SplineFontDB: 3.2
FontName: PixelUltima-Bold
FullName: Pixel Ultima Bold
FamilyName: Pixel Ultima
Weight: Bold
Copyright: Copyright (c) 2021, Douglas Lea~o, (DeeJayLSP, a.k.a. Didiei)
Version: 2021
ItalicAngle: 0
UnderlinePosition: 0
UnderlineWidth: 1
Ascent: 52
Descent: 12
InvalidEm: 0
sfntRevision: 0x00010000
LayerCount: 2
Layer: 0 1 "Back" 1
Layer: 1 1 "Fore" 0
XUID: [1021 136 -898950254 12059671]
StyleMap: 0x0020
FSType: 4
OS2Version: 2
OS2_WeightWidthSlopeOnly: 0
OS2_UseTypoMetrics: 0
CreationTime: 1635657487
ModificationTime: 1657061381
PfmFamily: 81
TTFWeight: 700
TTFWidth: 5
LineGap: 0
VLineGap: 0
Panose: 0 0 0 0 0 0 0 0 0 0
OS2TypoAscent: 52
OS2TypoAOffset: 0
OS2TypoDescent: -12
OS2TypoDOffset: 0
OS2TypoLinegap: 100
OS2WinAscent: 52
OS2WinAOffset: 0
OS2WinDescent: 12
OS2WinDOffset: 0
HheadAscent: 52
HheadAOffset: 0
HheadDescent: -12
HheadDOffset: 0
OS2SubXSize: 40
OS2SubYSize: 40
OS2SubXOff: 40
OS2SubYOff: 40
OS2SupXSize: 40
OS2SupYSize: 40
OS2SupXOff: 40
OS2SupYOff: 40
OS2StrikeYSize: 40
OS2StrikeYPos: 200
OS2CapHeight: 52
OS2XHeight: 40
OS2Vendor: 'Bird'
OS2CodePages: 203f00ff.dffd0000
OS2UnicodeRanges: 00000001.00000000.00000000.00000000
Lookup: 258 0 0 "'kern' Horizontal Kerning lookup 0" { "'kern' Horizontal Kerning lookup 0 subtable"  } [' RQD' ('DFLT' <'dflt' > ) 'kern' ('DFLT' <'dflt' > ) ]
DEI: 91125
ShortTable: maxp 16
  1
  0
  303
  140
  5
  0
  0
  1
  0
  0
  0
  0
  0
  0
  0
  0
EndShort

StartChar: .notdef
Encoding: 65536 -1 0
Width: 36
Flags: W
LayerCount: 2
Fore
SplineSet
8 4 m 1,0,1
 12 4 12 4 24 4 c 1,2,3
 24 15 24 15 24 48 c 1,4,5
 20 48 20 48 8 48 c 1,6,7
 8 37 8 37 8 4 c 1,0,1
0 52 m 1,8,9
 8 52 8 52 32 52 c 1,10,11
 32 39 32 39 32 0 c 1,12,13
 24 0 24 0 0 0 c 1,14,15
 0 13 0 13 0 52 c 1,8,9
EndSplineSet
EndChar

StartChar: exclam
Encoding: 33 33 4
Width: 12
GlyphClass: 2
Flags: W
LayerCount: 2
Fore
SplineSet
0 0 m 1,0,1
 0 2 0 2 0 8 c 1,2,3
 2 8 2 8 8 8 c 1,4,5
 8 6 8 6 8 0 c 1,6,7
 6 0 6 0 0 0 c 1,0,1
0 16 m 1,8,9
 0 25 0 25 0 52 c 1,10,11
 2 52 2 52 8 52 c 1,12,13
 8 43 8 43 8 16 c 1,14,15
 6 16 6 16 0 16 c 1,8,9
EndSplineSet
EndChar

StartChar: quotedbl
Encoding: 34 34 5
Width: 24
GlyphClass: 2
Flags: W
LayerCount: 2
Fore
SplineSet
0 32 m 1,0,1
 0 37 0 37 0 52 c 1,2,3
 2 52 2 52 8 52 c 1,4,5
 8 47 8 47 8 32 c 1,6,7
 6 32 6 32 0 32 c 1,0,1
12 32 m 1,8,9
 12 37 12 37 12 52 c 1,10,11
 14 52 14 52 20 52 c 1,12,13
 20 47 20 47 20 32 c 1,14,15
 18 32 18 32 12 32 c 1,8,9
EndSplineSet
EndChar

StartChar: numbersign
Encoding: 35 35 6
Width: 44
GlyphClass: 2
Flags: W
LayerCount: 2
Fore
SplineSet
24 16 m 1,0,1
 24 21 24 21 24 36 c 1,2,3
 22 36 22 36 16 36 c 1,4,5
 16 31 16 31 16 16 c 1,6,7
 18 16 18 16 24 16 c 1,0,1
8 0 m 1,8,9
 8 3 8 3 8 12 c 1,10,11
 6 12 6 12 0 12 c 1,12,13
 0 13 0 13 0 16 c 1,14,15
 2 16 2 16 8 16 c 1,16,17
 8 21 8 21 8 36 c 1,18,19
 6 36 6 36 0 36 c 1,20,21
 0 37 0 37 0 40 c 1,22,23
 2 40 2 40 8 40 c 1,24,25
 8 43 8 43 8 52 c 1,26,27
 10 52 10 52 16 52 c 1,28,29
 16 49 16 49 16 40 c 1,30,31
 18 40 18 40 24 40 c 1,32,33
 24 43 24 43 24 52 c 1,34,35
 26 52 26 52 32 52 c 1,36,37
 32 49 32 49 32 40 c 1,38,39
 34 40 34 40 40 40 c 1,40,41
 40 39 40 39 40 36 c 1,42,43
 38 36 38 36 32 36 c 1,44,45
 32 31 32 31 32 16 c 1,46,47
 34 16 34 16 40 16 c 1,48,49
 40 15 40 15 40 12 c 1,50,51
 38 12 38 12 32 12 c 1,52,53
 32 9 32 9 32 0 c 1,54,55
 30 0 30 0 24 0 c 1,56,57
 24 3 24 3 24 12 c 1,58,59
 22 12 22 12 16 12 c 1,60,61
 16 9 16 9 16 0 c 1,62,63
 14 0 14 0 8 0 c 1,8,9
EndSplineSet
EndChar

StartChar: dollar
Encoding: 36 36 7
Width: 36
GlyphClass: 2
Flags: W
LayerCount: 2
Fore
SplineSet
24 12 m 1,0,1
 24 15 24 15 24 24 c 1,2,3
 23 24 23 24 20 24 c 1,4,5
 20 21 20 21 20 12 c 1,6,7
 21 12 21 12 24 12 c 1,0,1
12 28 m 1,8,9
 12 31 12 31 12 40 c 1,10,11
 11 40 11 40 8 40 c 1,12,13
 8 37 8 37 8 28 c 1,14,15
 9 28 9 28 12 28 c 1,8,9
12 0 m 1,16,17
 12 2 12 2 12 8 c 1,18,19
 10 8 10 8 4 8 c 1,20,21
 4 9 4 9 4 12 c 1,22,23
 3 12 3 12 0 12 c 1,24,25
 0 14 0 14 0 20 c 1,26,27
 2 20 2 20 8 20 c 1,28,29
 8 18 8 18 8 12 c 1,30,31
 9 12 9 12 12 12 c 1,32,33
 12 15 12 15 12 24 c 1,34,35
 10 24 10 24 4 24 c 1,36,37
 4 25 4 25 4 28 c 1,38,39
 3 28 3 28 0 28 c 1,40,41
 0 31 0 31 0 40 c 1,42,43
 1 40 1 40 4 40 c 1,44,45
 4 41 4 41 4 44 c 1,46,47
 6 44 6 44 12 44 c 1,48,49
 12 46 12 46 12 52 c 1,50,51
 14 52 14 52 20 52 c 1,52,53
 20 50 20 50 20 44 c 1,54,55
 22 44 22 44 28 44 c 1,56,57
 28 43 28 43 28 40 c 1,58,59
 29 40 29 40 32 40 c 1,60,61
 32 39 32 39 32 36 c 1,62,63
 30 36 30 36 24 36 c 1,64,65
 24 37 24 37 24 40 c 1,66,67
 23 40 23 40 20 40 c 1,68,69
 20 37 20 37 20 28 c 1,70,71
 22 28 22 28 28 28 c 1,72,73
 28 27 28 27 28 24 c 1,74,75
 29 24 29 24 32 24 c 1,76,77
 32 21 32 21 32 12 c 1,78,79
 31 12 31 12 28 12 c 1,80,81
 28 11 28 11 28 8 c 1,82,83
 26 8 26 8 20 8 c 1,84,85
 20 6 20 6 20 0 c 1,86,87
 18 0 18 0 12 0 c 1,16,17
EndSplineSet
EndChar

StartChar: percent
Encoding: 37 37 8
Width: 48
GlyphClass: 2
Flags: W
LayerCount: 2
Fore
SplineSet
36 4 m 1,0,1
 36 7 36 7 36 16 c 1,2,3
 35 16 35 16 32 16 c 1,4,5
 32 13 32 13 32 4 c 1,6,7
 33 4 33 4 36 4 c 1,0,1
28 0 m 1,8,9
 28 1 28 1 28 4 c 1,10,11
 27 4 27 4 24 4 c 1,12,13
 24 7 24 7 24 16 c 1,14,15
 25 16 25 16 28 16 c 1,16,17
 28 17 28 17 28 20 c 1,18,19
 31 20 31 20 40 20 c 1,20,21
 40 19 40 19 40 16 c 1,22,23
 41 16 41 16 44 16 c 1,24,25
 44 13 44 13 44 4 c 1,26,27
 43 4 43 4 40 4 c 1,28,29
 40 3 40 3 40 0 c 1,30,31
 37 0 37 0 28 0 c 1,8,9
12 36 m 1,32,33
 12 39 12 39 12 48 c 1,34,35
 11 48 11 48 8 48 c 1,36,37
 8 45 8 45 8 36 c 1,38,39
 9 36 9 36 12 36 c 1,32,33
4 32 m 1,40,41
 4 33 4 33 4 36 c 1,42,43
 3 36 3 36 0 36 c 1,44,45
 0 39 0 39 0 48 c 1,46,47
 1 48 1 48 4 48 c 1,48,49
 4 49 4 49 4 52 c 1,50,51
 7 52 7 52 16 52 c 1,52,53
 16 51 16 51 16 48 c 1,54,55
 17 48 17 48 20 48 c 1,56,57
 20 45 20 45 20 36 c 1,58,59
 19 36 19 36 16 36 c 1,60,61
 16 35 16 35 16 32 c 1,62,63
 13 32 13 32 4 32 c 1,40,41
4 0 m 1,64,65
 4 1 4 1 4 4 c 1,66,67
 5 4 5 4 8 4 c 1,68,69
 8 6 8 6 8 12 c 1,70,71
 9 12 9 12 12 12 c 1,72,73
 12 14 12 14 12 20 c 1,74,75
 13 20 13 20 16 20 c 1,76,77
 16 22 16 22 16 28 c 1,78,79
 17 28 17 28 20 28 c 1,80,81
 20 30 20 30 20 36 c 1,82,83
 21 36 21 36 24 36 c 1,84,85
 24 38 24 38 24 44 c 1,86,87
 25 44 25 44 28 44 c 1,88,89
 28 46 28 46 28 52 c 1,90,91
 30 52 30 52 36 52 c 1,92,93
 36 50 36 50 36 44 c 1,94,95
 35 44 35 44 32 44 c 1,96,97
 32 42 32 42 32 36 c 1,98,99
 31 36 31 36 28 36 c 1,100,101
 28 34 28 34 28 28 c 1,102,103
 27 28 27 28 24 28 c 1,104,105
 24 26 24 26 24 20 c 1,106,107
 23 20 23 20 20 20 c 1,108,109
 20 18 20 18 20 12 c 1,110,111
 19 12 19 12 16 12 c 1,112,113
 16 10 16 10 16 4 c 1,114,115
 15 4 15 4 12 4 c 1,116,117
 12 3 12 3 12 0 c 1,118,119
 10 0 10 0 4 0 c 1,64,65
EndSplineSet
EndChar

StartChar: ampersand
Encoding: 38 38 9
Width: 36
GlyphClass: 2
Flags: W
LayerCount: 2
Fore
SplineSet
16 4 m 1,0,1
 16 5 16 5 16 8 c 1,2,3
 17 8 17 8 20 8 c 1,4,5
 20 10 20 10 20 16 c 1,6,7
 19 16 19 16 16 16 c 1,8,9
 16 18 16 18 16 24 c 1,10,11
 14 24 14 24 8 24 c 1,12,13
 8 20 8 20 8 8 c 1,14,15
 9 8 9 8 12 8 c 1,16,17
 12 7 12 7 12 4 c 1,18,19
 13 4 13 4 16 4 c 1,0,1
16 36 m 1,20,21
 16 37 16 37 16 40 c 1,22,23
 17 40 17 40 20 40 c 1,24,25
 20 42 20 42 20 48 c 1,26,27
 18 48 18 48 12 48 c 1,28,29
 12 45 12 45 12 36 c 1,30,31
 13 36 13 36 16 36 c 1,20,21
8 0 m 1,32,33
 8 1 8 1 8 4 c 1,34,35
 7 4 7 4 4 4 c 1,36,37
 4 5 4 5 4 8 c 1,38,39
 3 8 3 8 0 8 c 1,40,41
 0 12 0 12 0 24 c 1,42,43
 1 24 1 24 4 24 c 1,44,45
 4 25 4 25 4 28 c 1,46,47
 5 28 5 28 8 28 c 1,48,49
 8 30 8 30 8 36 c 1,50,51
 7 36 7 36 4 36 c 1,52,53
 4 39 4 39 4 48 c 1,54,55
 5 48 5 48 8 48 c 1,56,57
 8 49 8 49 8 52 c 1,58,59
 12 52 12 52 24 52 c 1,60,61
 24 51 24 51 24 48 c 1,62,63
 25 48 25 48 28 48 c 1,64,65
 28 46 28 46 28 40 c 1,66,67
 27 40 27 40 24 40 c 1,68,69
 24 38 24 38 24 32 c 1,70,71
 23 32 23 32 20 32 c 1,72,73
 20 30 20 30 20 24 c 1,74,75
 23 24 23 24 32 24 c 1,76,77
 32 22 32 22 32 16 c 1,78,79
 31 16 31 16 28 16 c 1,80,81
 28 14 28 14 28 8 c 1,82,83
 29 8 29 8 32 8 c 1,84,85
 32 6 32 6 32 0 c 1,86,87
 30 0 30 0 24 0 c 1,88,89
 24 1 24 1 24 4 c 1,90,91
 23 4 23 4 20 4 c 1,92,93
 20 3 20 3 20 0 c 1,94,95
 17 0 17 0 8 0 c 1,32,33
EndSplineSet
EndChar

StartChar: quotesingle
Encoding: 39 39 10
Width: 12
GlyphClass: 2
Flags: W
LayerCount: 2
Fore
SplineSet
0 32 m 1,0,1
 0 37 0 37 0 52 c 1,2,3
 2 52 2 52 8 52 c 1,4,5
 8 47 8 47 8 32 c 1,6,7
 6 32 6 32 0 32 c 1,0,1
EndSplineSet
EndChar

StartChar: parenleft
Encoding: 40 40 11
Width: 24
GlyphClass: 2
Flags: W
LayerCount: 2
Fore
SplineSet
12 0 m 1,0,1
 12 1 12 1 12 4 c 1,2,3
 11 4 11 4 8 4 c 1,4,5
 8 5 8 5 8 8 c 1,6,7
 7 8 7 8 4 8 c 1,8,9
 4 10 4 10 4 16 c 1,10,11
 3 16 3 16 0 16 c 1,12,13
 0 21 0 21 0 36 c 1,14,15
 1 36 1 36 4 36 c 1,16,17
 4 38 4 38 4 44 c 1,18,19
 5 44 5 44 8 44 c 1,20,21
 8 45 8 45 8 48 c 1,22,23
 9 48 9 48 12 48 c 1,24,25
 12 49 12 49 12 52 c 1,26,27
 14 52 14 52 20 52 c 1,28,29
 20 51 20 51 20 48 c 1,30,31
 19 48 19 48 16 48 c 1,32,33
 16 47 16 47 16 44 c 1,34,35
 15 44 15 44 12 44 c 1,36,37
 12 42 12 42 12 36 c 1,38,39
 11 36 11 36 8 36 c 1,40,41
 8 31 8 31 8 16 c 1,42,43
 9 16 9 16 12 16 c 1,44,45
 12 14 12 14 12 8 c 1,46,47
 13 8 13 8 16 8 c 1,48,49
 16 7 16 7 16 4 c 1,50,51
 17 4 17 4 20 4 c 1,52,53
 20 3 20 3 20 0 c 1,54,55
 18 0 18 0 12 0 c 1,0,1
EndSplineSet
EndChar

StartChar: parenright
Encoding: 41 41 12
Width: 24
GlyphClass: 2
Flags: W
LayerCount: 2
Fore
SplineSet
0 0 m 1,0,1
 0 1 0 1 0 4 c 1,2,3
 1 4 1 4 4 4 c 1,4,5
 4 5 4 5 4 8 c 1,6,7
 5 8 5 8 8 8 c 1,8,9
 8 10 8 10 8 16 c 1,10,11
 9 16 9 16 12 16 c 1,12,13
 12 21 12 21 12 36 c 1,14,15
 11 36 11 36 8 36 c 1,16,17
 8 38 8 38 8 44 c 1,18,19
 7 44 7 44 4 44 c 1,20,21
 4 45 4 45 4 48 c 1,22,23
 3 48 3 48 0 48 c 1,24,25
 0 49 0 49 0 52 c 1,26,27
 2 52 2 52 8 52 c 1,28,29
 8 51 8 51 8 48 c 1,30,31
 9 48 9 48 12 48 c 1,32,33
 12 47 12 47 12 44 c 1,34,35
 13 44 13 44 16 44 c 1,36,37
 16 42 16 42 16 36 c 1,38,39
 17 36 17 36 20 36 c 1,40,41
 20 31 20 31 20 16 c 1,42,43
 19 16 19 16 16 16 c 1,44,45
 16 14 16 14 16 8 c 1,46,47
 15 8 15 8 12 8 c 1,48,49
 12 7 12 7 12 4 c 1,50,51
 11 4 11 4 8 4 c 1,52,53
 8 3 8 3 8 0 c 1,54,55
 6 0 6 0 0 0 c 1,0,1
EndSplineSet
EndChar

StartChar: asterisk
Encoding: 42 42 13
Width: 36
GlyphClass: 2
Flags: W
LayerCount: 2
Fore
SplineSet
12 24 m 1,0,1
 12 26 12 26 12 32 c 1,2,3
 11 32 11 32 8 32 c 1,4,5
 8 31 8 31 8 28 c 1,6,7
 6 28 6 28 0 28 c 1,8,9
 0 29 0 29 0 32 c 1,10,11
 1 32 1 32 4 32 c 1,12,13
 4 33 4 33 4 36 c 1,14,15
 5 36 5 36 8 36 c 1,16,17
 8 37 8 37 8 40 c 1,18,19
 7 40 7 40 4 40 c 1,20,21
 4 41 4 41 4 44 c 1,22,23
 3 44 3 44 0 44 c 1,24,25
 0 45 0 45 0 48 c 1,26,27
 2 48 2 48 8 48 c 1,28,29
 8 47 8 47 8 44 c 1,30,31
 9 44 9 44 12 44 c 1,32,33
 12 46 12 46 12 52 c 1,34,35
 14 52 14 52 20 52 c 1,36,37
 20 50 20 50 20 44 c 1,38,39
 21 44 21 44 24 44 c 1,40,41
 24 45 24 45 24 48 c 1,42,43
 26 48 26 48 32 48 c 1,44,45
 32 47 32 47 32 44 c 1,46,47
 31 44 31 44 28 44 c 1,48,49
 28 43 28 43 28 40 c 1,50,51
 27 40 27 40 24 40 c 1,52,53
 24 39 24 39 24 36 c 1,54,55
 25 36 25 36 28 36 c 1,56,57
 28 35 28 35 28 32 c 1,58,59
 29 32 29 32 32 32 c 1,60,61
 32 31 32 31 32 28 c 1,62,63
 30 28 30 28 24 28 c 1,64,65
 24 29 24 29 24 32 c 1,66,67
 23 32 23 32 20 32 c 1,68,69
 20 30 20 30 20 24 c 1,70,71
 18 24 18 24 12 24 c 1,0,1
EndSplineSet
EndChar

StartChar: plus
Encoding: 43 43 14
Width: 36
GlyphClass: 2
Flags: W
LayerCount: 2
Fore
SplineSet
12 12 m 1,0,1
 12 15 12 15 12 24 c 1,2,3
 9 24 9 24 0 24 c 1,4,5
 0 25 0 25 0 28 c 1,6,7
 3 28 3 28 12 28 c 1,8,9
 12 31 12 31 12 40 c 1,10,11
 14 40 14 40 20 40 c 1,12,13
 20 37 20 37 20 28 c 1,14,15
 23 28 23 28 32 28 c 1,16,17
 32 27 32 27 32 24 c 1,18,19
 29 24 29 24 20 24 c 1,20,21
 20 21 20 21 20 12 c 1,22,23
 18 12 18 12 12 12 c 1,0,1
EndSplineSet
EndChar

StartChar: comma
Encoding: 44 44 15
Width: 16
GlyphClass: 2
Flags: W
LayerCount: 2
Fore
SplineSet
0 -12 m 1,0,1
 0 -11 0 -11 0 -8 c 1,2,3
 1 -8 1 -8 4 -8 c 1,4,5
 4 -6 4 -6 4 0 c 1,6,7
 3 0 3 0 0 0 c 1,8,9
 0 1 0 1 0 4 c 1,10,11
 3 4 3 4 12 4 c 1,12,13
 12 1 12 1 12 -8 c 1,14,15
 11 -8 11 -8 8 -8 c 1,16,17
 8 -9 8 -9 8 -12 c 1,18,19
 6 -12 6 -12 0 -12 c 1,0,1
EndSplineSet
EndChar

StartChar: hyphen
Encoding: 45 45 16
Width: 32
GlyphClass: 2
Flags: W
LayerCount: 2
Fore
SplineSet
0 24 m 1,0,1
 0 25 0 25 0 28 c 1,2,3
 7 28 7 28 28 28 c 1,4,5
 28 27 28 27 28 24 c 1,6,7
 21 24 21 24 0 24 c 1,0,1
EndSplineSet
EndChar

StartChar: period
Encoding: 46 46 17
Width: 12
GlyphClass: 2
Flags: W
LayerCount: 2
Fore
SplineSet
0 0 m 1,0,1
 0 1 0 1 0 4 c 1,2,3
 2 4 2 4 8 4 c 1,4,5
 8 3 8 3 8 0 c 1,6,7
 6 0 6 0 0 0 c 1,0,1
EndSplineSet
EndChar

StartChar: slash
Encoding: 47 47 18
Width: 36
GlyphClass: 2
Flags: W
LayerCount: 2
Fore
SplineSet
0 0 m 1,0,1
 0 1 0 1 0 4 c 1,2,3
 1 4 1 4 4 4 c 1,4,5
 4 6 4 6 4 12 c 1,6,7
 5 12 5 12 8 12 c 1,8,9
 8 14 8 14 8 20 c 1,10,11
 9 20 9 20 12 20 c 1,12,13
 12 22 12 22 12 28 c 1,14,15
 13 28 13 28 16 28 c 1,16,17
 16 30 16 30 16 36 c 1,18,19
 17 36 17 36 20 36 c 1,20,21
 20 38 20 38 20 44 c 1,22,23
 21 44 21 44 24 44 c 1,24,25
 24 46 24 46 24 52 c 1,26,27
 26 52 26 52 32 52 c 1,28,29
 32 50 32 50 32 44 c 1,30,31
 31 44 31 44 28 44 c 1,32,33
 28 42 28 42 28 36 c 1,34,35
 27 36 27 36 24 36 c 1,36,37
 24 34 24 34 24 28 c 1,38,39
 23 28 23 28 20 28 c 1,40,41
 20 26 20 26 20 20 c 1,42,43
 19 20 19 20 16 20 c 1,44,45
 16 18 16 18 16 12 c 1,46,47
 15 12 15 12 12 12 c 1,48,49
 12 10 12 10 12 4 c 1,50,51
 11 4 11 4 8 4 c 1,52,53
 8 3 8 3 8 0 c 1,54,55
 6 0 6 0 0 0 c 1,0,1
EndSplineSet
EndChar

StartChar: zero
Encoding: 48 48 19
Width: 36
GlyphClass: 2
Flags: W
LayerCount: 2
Fore
SplineSet
20 4 m 1,0,1
 20 5 20 5 20 8 c 1,2,3
 21 8 21 8 24 8 c 1,4,5
 24 13 24 13 24 28 c 1,6,7
 23 28 23 28 20 28 c 1,8,9
 20 27 20 27 20 24 c 1,10,11
 19 24 19 24 16 24 c 1,12,13
 16 23 16 23 16 20 c 1,14,15
 15 20 15 20 12 20 c 1,16,17
 12 19 12 19 12 16 c 1,18,19
 11 16 11 16 8 16 c 1,20,21
 8 14 8 14 8 8 c 1,22,23
 9 8 9 8 12 8 c 1,24,25
 12 7 12 7 12 4 c 1,26,27
 14 4 14 4 20 4 c 1,0,1
12 24 m 1,28,29
 12 25 12 25 12 28 c 1,30,31
 13 28 13 28 16 28 c 1,32,33
 16 29 16 29 16 32 c 1,34,35
 17 32 17 32 20 32 c 1,36,37
 20 33 20 33 20 36 c 1,38,39
 21 36 21 36 24 36 c 1,40,41
 24 38 24 38 24 44 c 1,42,43
 23 44 23 44 20 44 c 1,44,45
 20 45 20 45 20 48 c 1,46,47
 18 48 18 48 12 48 c 1,48,49
 12 47 12 47 12 44 c 1,50,51
 11 44 11 44 8 44 c 1,52,53
 8 39 8 39 8 24 c 1,54,55
 9 24 9 24 12 24 c 1,28,29
8 0 m 1,56,57
 8 1 8 1 8 4 c 1,58,59
 7 4 7 4 4 4 c 1,60,61
 4 5 4 5 4 8 c 1,62,63
 3 8 3 8 0 8 c 1,64,65
 0 17 0 17 0 44 c 1,66,67
 1 44 1 44 4 44 c 1,68,69
 4 45 4 45 4 48 c 1,70,71
 5 48 5 48 8 48 c 1,72,73
 8 49 8 49 8 52 c 1,74,75
 12 52 12 52 24 52 c 1,76,77
 24 51 24 51 24 48 c 1,78,79
 25 48 25 48 28 48 c 1,80,81
 28 47 28 47 28 44 c 1,82,83
 29 44 29 44 32 44 c 1,84,85
 32 35 32 35 32 8 c 1,86,87
 31 8 31 8 28 8 c 1,88,89
 28 7 28 7 28 4 c 1,90,91
 27 4 27 4 24 4 c 1,92,93
 24 3 24 3 24 0 c 1,94,95
 20 0 20 0 8 0 c 1,56,57
EndSplineSet
EndChar

StartChar: one
Encoding: 49 49 20
Width: 24
GlyphClass: 2
Flags: W
LayerCount: 2
Fore
SplineSet
12 0 m 1,0,1
 12 10 12 10 12 40 c 1,2,3
 11 40 11 40 8 40 c 1,4,5
 8 39 8 39 8 36 c 1,6,7
 6 36 6 36 0 36 c 1,8,9
 0 37 0 37 0 40 c 1,10,11
 1 40 1 40 4 40 c 1,12,13
 4 41 4 41 4 44 c 1,14,15
 5 44 5 44 8 44 c 1,16,17
 8 45 8 45 8 48 c 1,18,19
 9 48 9 48 12 48 c 1,20,21
 12 49 12 49 12 52 c 1,22,23
 14 52 14 52 20 52 c 1,24,25
 20 39 20 39 20 0 c 1,26,27
 18 0 18 0 12 0 c 1,0,1
EndSplineSet
EndChar

StartChar: two
Encoding: 50 50 21
Width: 36
GlyphClass: 2
Flags: W
LayerCount: 2
Fore
SplineSet
0 0 m 1,0,1
 0 3 0 3 0 12 c 1,2,3
 1 12 1 12 4 12 c 1,4,5
 4 13 4 13 4 16 c 1,6,7
 5 16 5 16 8 16 c 1,8,9
 8 17 8 17 8 20 c 1,10,11
 9 20 9 20 12 20 c 1,12,13
 12 21 12 21 12 24 c 1,14,15
 13 24 13 24 16 24 c 1,16,17
 16 25 16 25 16 28 c 1,18,19
 17 28 17 28 20 28 c 1,20,21
 20 29 20 29 20 32 c 1,22,23
 21 32 21 32 24 32 c 1,24,25
 24 35 24 35 24 44 c 1,26,27
 23 44 23 44 20 44 c 1,28,29
 20 45 20 45 20 48 c 1,30,31
 18 48 18 48 12 48 c 1,32,33
 12 47 12 47 12 44 c 1,34,35
 11 44 11 44 8 44 c 1,36,37
 8 43 8 43 8 40 c 1,38,39
 6 40 6 40 0 40 c 1,40,41
 0 41 0 41 0 44 c 1,42,43
 1 44 1 44 4 44 c 1,44,45
 4 45 4 45 4 48 c 1,46,47
 5 48 5 48 8 48 c 1,48,49
 8 49 8 49 8 52 c 1,50,51
 12 52 12 52 24 52 c 1,52,53
 24 51 24 51 24 48 c 1,54,55
 25 48 25 48 28 48 c 1,56,57
 28 47 28 47 28 44 c 1,58,59
 29 44 29 44 32 44 c 1,60,61
 32 41 32 41 32 32 c 1,62,63
 31 32 31 32 28 32 c 1,64,65
 28 31 28 31 28 28 c 1,66,67
 27 28 27 28 24 28 c 1,68,69
 24 27 24 27 24 24 c 1,70,71
 23 24 23 24 20 24 c 1,72,73
 20 23 20 23 20 20 c 1,74,75
 19 20 19 20 16 20 c 1,76,77
 16 19 16 19 16 16 c 1,78,79
 15 16 15 16 12 16 c 1,80,81
 12 15 12 15 12 12 c 1,82,83
 11 12 11 12 8 12 c 1,84,85
 8 10 8 10 8 4 c 1,86,87
 14 4 14 4 32 4 c 1,88,89
 32 3 32 3 32 0 c 1,90,91
 24 0 24 0 0 0 c 1,0,1
EndSplineSet
EndChar

StartChar: three
Encoding: 51 51 22
Width: 36
GlyphClass: 2
Flags: W
LayerCount: 2
Fore
SplineSet
8 0 m 1,0,1
 8 1 8 1 8 4 c 1,2,3
 7 4 7 4 4 4 c 1,4,5
 4 5 4 5 4 8 c 1,6,7
 3 8 3 8 0 8 c 1,8,9
 0 9 0 9 0 12 c 1,10,11
 2 12 2 12 8 12 c 1,12,13
 8 11 8 11 8 8 c 1,14,15
 9 8 9 8 12 8 c 1,16,17
 12 7 12 7 12 4 c 1,18,19
 14 4 14 4 20 4 c 1,20,21
 20 5 20 5 20 8 c 1,22,23
 21 8 21 8 24 8 c 1,24,25
 24 11 24 11 24 20 c 1,26,27
 23 20 23 20 20 20 c 1,28,29
 20 21 20 21 20 24 c 1,30,31
 17 24 17 24 8 24 c 1,32,33
 8 25 8 25 8 28 c 1,34,35
 11 28 11 28 20 28 c 1,36,37
 20 29 20 29 20 32 c 1,38,39
 21 32 21 32 24 32 c 1,40,41
 24 35 24 35 24 44 c 1,42,43
 23 44 23 44 20 44 c 1,44,45
 20 45 20 45 20 48 c 1,46,47
 18 48 18 48 12 48 c 1,48,49
 12 47 12 47 12 44 c 1,50,51
 11 44 11 44 8 44 c 1,52,53
 8 43 8 43 8 40 c 1,54,55
 6 40 6 40 0 40 c 1,56,57
 0 41 0 41 0 44 c 1,58,59
 1 44 1 44 4 44 c 1,60,61
 4 45 4 45 4 48 c 1,62,63
 5 48 5 48 8 48 c 1,64,65
 8 49 8 49 8 52 c 1,66,67
 12 52 12 52 24 52 c 1,68,69
 24 51 24 51 24 48 c 1,70,71
 25 48 25 48 28 48 c 1,72,73
 28 47 28 47 28 44 c 1,74,75
 29 44 29 44 32 44 c 1,76,77
 32 41 32 41 32 32 c 1,78,79
 31 32 31 32 28 32 c 1,80,81
 28 31 28 31 28 28 c 1,82,83
 27 28 27 28 24 28 c 1,84,85
 24 27 24 27 24 24 c 1,86,87
 25 24 25 24 28 24 c 1,88,89
 28 23 28 23 28 20 c 1,90,91
 29 20 29 20 32 20 c 1,92,93
 32 17 32 17 32 8 c 1,94,95
 31 8 31 8 28 8 c 1,96,97
 28 7 28 7 28 4 c 1,98,99
 27 4 27 4 24 4 c 1,100,101
 24 3 24 3 24 0 c 1,102,103
 20 0 20 0 8 0 c 1,0,1
EndSplineSet
EndChar

StartChar: four
Encoding: 52 52 23
Width: 36
GlyphClass: 2
Flags: W
LayerCount: 2
Fore
SplineSet
24 20 m 1,0,1
 24 25 24 25 24 40 c 1,2,3
 23 40 23 40 20 40 c 1,4,5
 20 39 20 39 20 36 c 1,6,7
 19 36 19 36 16 36 c 1,8,9
 16 35 16 35 16 32 c 1,10,11
 15 32 15 32 12 32 c 1,12,13
 12 31 12 31 12 28 c 1,14,15
 11 28 11 28 8 28 c 1,16,17
 8 26 8 26 8 20 c 1,18,19
 12 20 12 20 24 20 c 1,0,1
24 0 m 1,20,21
 24 4 24 4 24 16 c 1,22,23
 18 16 18 16 0 16 c 1,24,25
 0 19 0 19 0 28 c 1,26,27
 1 28 1 28 4 28 c 1,28,29
 4 29 4 29 4 32 c 1,30,31
 5 32 5 32 8 32 c 1,32,33
 8 33 8 33 8 36 c 1,34,35
 9 36 9 36 12 36 c 1,36,37
 12 37 12 37 12 40 c 1,38,39
 13 40 13 40 16 40 c 1,40,41
 16 41 16 41 16 44 c 1,42,43
 17 44 17 44 20 44 c 1,44,45
 20 45 20 45 20 48 c 1,46,47
 21 48 21 48 24 48 c 1,48,49
 24 49 24 49 24 52 c 1,50,51
 26 52 26 52 32 52 c 1,52,53
 32 39 32 39 32 0 c 1,54,55
 30 0 30 0 24 0 c 1,20,21
EndSplineSet
EndChar

StartChar: five
Encoding: 53 53 24
Width: 36
GlyphClass: 2
Flags: W
LayerCount: 2
Fore
SplineSet
8 0 m 1,0,1
 8 1 8 1 8 4 c 1,2,3
 7 4 7 4 4 4 c 1,4,5
 4 5 4 5 4 8 c 1,6,7
 3 8 3 8 0 8 c 1,8,9
 0 9 0 9 0 12 c 1,10,11
 2 12 2 12 8 12 c 1,12,13
 8 11 8 11 8 8 c 1,14,15
 9 8 9 8 12 8 c 1,16,17
 12 7 12 7 12 4 c 1,18,19
 14 4 14 4 20 4 c 1,20,21
 20 5 20 5 20 8 c 1,22,23
 21 8 21 8 24 8 c 1,24,25
 24 12 24 12 24 24 c 1,26,27
 23 24 23 24 20 24 c 1,28,29
 20 25 20 25 20 28 c 1,30,31
 15 28 15 28 0 28 c 1,32,33
 0 34 0 34 0 52 c 1,34,35
 8 52 8 52 32 52 c 1,36,37
 32 51 32 51 32 48 c 1,38,39
 26 48 26 48 8 48 c 1,40,41
 8 44 8 44 8 32 c 1,42,43
 12 32 12 32 24 32 c 1,44,45
 24 31 24 31 24 28 c 1,46,47
 25 28 25 28 28 28 c 1,48,49
 28 27 28 27 28 24 c 1,50,51
 29 24 29 24 32 24 c 1,52,53
 32 20 32 20 32 8 c 1,54,55
 31 8 31 8 28 8 c 1,56,57
 28 7 28 7 28 4 c 1,58,59
 27 4 27 4 24 4 c 1,60,61
 24 3 24 3 24 0 c 1,62,63
 20 0 20 0 8 0 c 1,0,1
EndSplineSet
EndChar

StartChar: six
Encoding: 54 54 25
Width: 36
GlyphClass: 2
Flags: W
LayerCount: 2
Fore
SplineSet
20 4 m 1,0,1
 20 5 20 5 20 8 c 1,2,3
 21 8 21 8 24 8 c 1,4,5
 24 12 24 12 24 24 c 1,6,7
 23 24 23 24 20 24 c 1,8,9
 20 25 20 25 20 28 c 1,10,11
 18 28 18 28 12 28 c 1,12,13
 12 27 12 27 12 24 c 1,14,15
 11 24 11 24 8 24 c 1,16,17
 8 20 8 20 8 8 c 1,18,19
 9 8 9 8 12 8 c 1,20,21
 12 7 12 7 12 4 c 1,22,23
 14 4 14 4 20 4 c 1,0,1
8 0 m 1,24,25
 8 1 8 1 8 4 c 1,26,27
 7 4 7 4 4 4 c 1,28,29
 4 5 4 5 4 8 c 1,30,31
 3 8 3 8 0 8 c 1,32,33
 0 17 0 17 0 44 c 1,34,35
 1 44 1 44 4 44 c 1,36,37
 4 45 4 45 4 48 c 1,38,39
 5 48 5 48 8 48 c 1,40,41
 8 49 8 49 8 52 c 1,42,43
 12 52 12 52 24 52 c 1,44,45
 24 51 24 51 24 48 c 1,46,47
 25 48 25 48 28 48 c 1,48,49
 28 47 28 47 28 44 c 1,50,51
 29 44 29 44 32 44 c 1,52,53
 32 43 32 43 32 40 c 1,54,55
 30 40 30 40 24 40 c 1,56,57
 24 41 24 41 24 44 c 1,58,59
 23 44 23 44 20 44 c 1,60,61
 20 45 20 45 20 48 c 1,62,63
 18 48 18 48 12 48 c 1,64,65
 12 47 12 47 12 44 c 1,66,67
 11 44 11 44 8 44 c 1,68,69
 8 41 8 41 8 32 c 1,70,71
 12 32 12 32 24 32 c 1,72,73
 24 31 24 31 24 28 c 1,74,75
 25 28 25 28 28 28 c 1,76,77
 28 27 28 27 28 24 c 1,78,79
 29 24 29 24 32 24 c 1,80,81
 32 20 32 20 32 8 c 1,82,83
 31 8 31 8 28 8 c 1,84,85
 28 7 28 7 28 4 c 1,86,87
 27 4 27 4 24 4 c 1,88,89
 24 3 24 3 24 0 c 1,90,91
 20 0 20 0 8 0 c 1,24,25
EndSplineSet
EndChar

StartChar: seven
Encoding: 55 55 26
Width: 36
GlyphClass: 2
Flags: W
LayerCount: 2
Fore
SplineSet
8 0 m 1,0,1
 8 5 8 5 8 20 c 1,2,3
 9 20 9 20 12 20 c 1,4,5
 12 22 12 22 12 28 c 1,6,7
 13 28 13 28 16 28 c 1,8,9
 16 30 16 30 16 36 c 1,10,11
 17 36 17 36 20 36 c 1,12,13
 20 38 20 38 20 44 c 1,14,15
 21 44 21 44 24 44 c 1,16,17
 24 45 24 45 24 48 c 1,18,19
 18 48 18 48 0 48 c 1,20,21
 0 49 0 49 0 52 c 1,22,23
 8 52 8 52 32 52 c 1,24,25
 32 50 32 50 32 44 c 1,26,27
 31 44 31 44 28 44 c 1,28,29
 28 42 28 42 28 36 c 1,30,31
 27 36 27 36 24 36 c 1,32,33
 24 34 24 34 24 28 c 1,34,35
 23 28 23 28 20 28 c 1,36,37
 20 26 20 26 20 20 c 1,38,39
 19 20 19 20 16 20 c 1,40,41
 16 15 16 15 16 0 c 1,42,43
 14 0 14 0 8 0 c 1,0,1
EndSplineSet
EndChar

StartChar: eight
Encoding: 56 56 27
Width: 36
GlyphClass: 2
Flags: W
LayerCount: 2
Fore
SplineSet
20 4 m 1,0,1
 20 5 20 5 20 8 c 1,2,3
 21 8 21 8 24 8 c 1,4,5
 24 11 24 11 24 20 c 1,6,7
 23 20 23 20 20 20 c 1,8,9
 20 21 20 21 20 24 c 1,10,11
 18 24 18 24 12 24 c 1,12,13
 12 23 12 23 12 20 c 1,14,15
 11 20 11 20 8 20 c 1,16,17
 8 17 8 17 8 8 c 1,18,19
 9 8 9 8 12 8 c 1,20,21
 12 7 12 7 12 4 c 1,22,23
 14 4 14 4 20 4 c 1,0,1
20 28 m 1,24,25
 20 29 20 29 20 32 c 1,26,27
 21 32 21 32 24 32 c 1,28,29
 24 35 24 35 24 44 c 1,30,31
 23 44 23 44 20 44 c 1,32,33
 20 45 20 45 20 48 c 1,34,35
 18 48 18 48 12 48 c 1,36,37
 12 47 12 47 12 44 c 1,38,39
 11 44 11 44 8 44 c 1,40,41
 8 41 8 41 8 32 c 1,42,43
 9 32 9 32 12 32 c 1,44,45
 12 31 12 31 12 28 c 1,46,47
 14 28 14 28 20 28 c 1,24,25
8 0 m 1,48,49
 8 1 8 1 8 4 c 1,50,51
 7 4 7 4 4 4 c 1,52,53
 4 5 4 5 4 8 c 1,54,55
 3 8 3 8 0 8 c 1,56,57
 0 11 0 11 0 20 c 1,58,59
 1 20 1 20 4 20 c 1,60,61
 4 21 4 21 4 24 c 1,62,63
 5 24 5 24 8 24 c 1,64,65
 8 25 8 25 8 28 c 1,66,67
 7 28 7 28 4 28 c 1,68,69
 4 29 4 29 4 32 c 1,70,71
 3 32 3 32 0 32 c 1,72,73
 0 35 0 35 0 44 c 1,74,75
 1 44 1 44 4 44 c 1,76,77
 4 45 4 45 4 48 c 1,78,79
 5 48 5 48 8 48 c 1,80,81
 8 49 8 49 8 52 c 1,82,83
 12 52 12 52 24 52 c 1,84,85
 24 51 24 51 24 48 c 1,86,87
 25 48 25 48 28 48 c 1,88,89
 28 47 28 47 28 44 c 1,90,91
 29 44 29 44 32 44 c 1,92,93
 32 41 32 41 32 32 c 1,94,95
 31 32 31 32 28 32 c 1,96,97
 28 31 28 31 28 28 c 1,98,99
 27 28 27 28 24 28 c 1,100,101
 24 27 24 27 24 24 c 1,102,103
 25 24 25 24 28 24 c 1,104,105
 28 23 28 23 28 20 c 1,106,107
 29 20 29 20 32 20 c 1,108,109
 32 17 32 17 32 8 c 1,110,111
 31 8 31 8 28 8 c 1,112,113
 28 7 28 7 28 4 c 1,114,115
 27 4 27 4 24 4 c 1,116,117
 24 3 24 3 24 0 c 1,118,119
 20 0 20 0 8 0 c 1,48,49
EndSplineSet
EndChar

StartChar: nine
Encoding: 57 57 28
Width: 36
GlyphClass: 2
Flags: W
LayerCount: 2
Fore
SplineSet
20 28 m 1,0,1
 20 29 20 29 20 32 c 1,2,3
 21 32 21 32 24 32 c 1,4,5
 24 35 24 35 24 44 c 1,6,7
 23 44 23 44 20 44 c 1,8,9
 20 45 20 45 20 48 c 1,10,11
 18 48 18 48 12 48 c 1,12,13
 12 47 12 47 12 44 c 1,14,15
 11 44 11 44 8 44 c 1,16,17
 8 41 8 41 8 32 c 1,18,19
 9 32 9 32 12 32 c 1,20,21
 12 31 12 31 12 28 c 1,22,23
 14 28 14 28 20 28 c 1,0,1
8 0 m 1,24,25
 8 1 8 1 8 4 c 1,26,27
 7 4 7 4 4 4 c 1,28,29
 4 5 4 5 4 8 c 1,30,31
 3 8 3 8 0 8 c 1,32,33
 0 9 0 9 0 12 c 1,34,35
 2 12 2 12 8 12 c 1,36,37
 8 11 8 11 8 8 c 1,38,39
 9 8 9 8 12 8 c 1,40,41
 12 7 12 7 12 4 c 1,42,43
 14 4 14 4 20 4 c 1,44,45
 20 5 20 5 20 8 c 1,46,47
 21 8 21 8 24 8 c 1,48,49
 24 12 24 12 24 24 c 1,50,51
 20 24 20 24 8 24 c 1,52,53
 8 25 8 25 8 28 c 1,54,55
 7 28 7 28 4 28 c 1,56,57
 4 29 4 29 4 32 c 1,58,59
 3 32 3 32 0 32 c 1,60,61
 0 35 0 35 0 44 c 1,62,63
 1 44 1 44 4 44 c 1,64,65
 4 45 4 45 4 48 c 1,66,67
 5 48 5 48 8 48 c 1,68,69
 8 49 8 49 8 52 c 1,70,71
 12 52 12 52 24 52 c 1,72,73
 24 51 24 51 24 48 c 1,74,75
 25 48 25 48 28 48 c 1,76,77
 28 47 28 47 28 44 c 1,78,79
 29 44 29 44 32 44 c 1,80,81
 32 35 32 35 32 8 c 1,82,83
 31 8 31 8 28 8 c 1,84,85
 28 7 28 7 28 4 c 1,86,87
 27 4 27 4 24 4 c 1,88,89
 24 3 24 3 24 0 c 1,90,91
 20 0 20 0 8 0 c 1,24,25
EndSplineSet
EndChar

StartChar: colon
Encoding: 58 58 29
Width: 12
GlyphClass: 2
Flags: W
LayerCount: 2
Fore
SplineSet
0 8 m 1,0,1
 0 9 0 9 0 12 c 1,2,3
 2 12 2 12 8 12 c 1,4,5
 8 11 8 11 8 8 c 1,6,7
 6 8 6 8 0 8 c 1,0,1
0 36 m 1,8,9
 0 37 0 37 0 40 c 1,10,11
 2 40 2 40 8 40 c 1,12,13
 8 39 8 39 8 36 c 1,14,15
 6 36 6 36 0 36 c 1,8,9
EndSplineSet
EndChar

StartChar: semicolon
Encoding: 59 59 30
Width: 16
GlyphClass: 2
Flags: W
LayerCount: 2
Fore
SplineSet
0 0 m 1,0,1
 0 1 0 1 0 4 c 1,2,3
 1 4 1 4 4 4 c 1,4,5
 4 5 4 5 4 8 c 1,6,7
 3 8 3 8 0 8 c 1,8,9
 0 9 0 9 0 12 c 1,10,11
 3 12 3 12 12 12 c 1,12,13
 12 10 12 10 12 4 c 1,14,15
 11 4 11 4 8 4 c 1,16,17
 8 3 8 3 8 0 c 1,18,19
 6 0 6 0 0 0 c 1,0,1
0 36 m 1,20,21
 0 37 0 37 0 40 c 1,22,23
 2 40 2 40 8 40 c 1,24,25
 8 39 8 39 8 36 c 1,26,27
 6 36 6 36 0 36 c 1,20,21
EndSplineSet
EndChar

StartChar: less
Encoding: 60 60 31
Width: 24
GlyphClass: 2
Flags: W
LayerCount: 2
Fore
SplineSet
12 12 m 1,0,1
 12 13 12 13 12 16 c 1,2,3
 11 16 11 16 8 16 c 1,4,5
 8 17 8 17 8 20 c 1,6,7
 7 20 7 20 4 20 c 1,8,9
 4 21 4 21 4 24 c 1,10,11
 3 24 3 24 0 24 c 1,12,13
 0 25 0 25 0 28 c 1,14,15
 1 28 1 28 4 28 c 1,16,17
 4 29 4 29 4 32 c 1,18,19
 5 32 5 32 8 32 c 1,20,21
 8 33 8 33 8 36 c 1,22,23
 9 36 9 36 12 36 c 1,24,25
 12 37 12 37 12 40 c 1,26,27
 14 40 14 40 20 40 c 1,28,29
 20 39 20 39 20 36 c 1,30,31
 19 36 19 36 16 36 c 1,32,33
 16 35 16 35 16 32 c 1,34,35
 15 32 15 32 12 32 c 1,36,37
 12 31 12 31 12 28 c 1,38,39
 11 28 11 28 8 28 c 1,40,41
 8 27 8 27 8 24 c 1,42,43
 9 24 9 24 12 24 c 1,44,45
 12 23 12 23 12 20 c 1,46,47
 13 20 13 20 16 20 c 1,48,49
 16 19 16 19 16 16 c 1,50,51
 17 16 17 16 20 16 c 1,52,53
 20 15 20 15 20 12 c 1,54,55
 18 12 18 12 12 12 c 1,0,1
EndSplineSet
EndChar

StartChar: equal
Encoding: 61 61 32
Width: 32
GlyphClass: 2
Flags: W
LayerCount: 2
Fore
SplineSet
0 16 m 1,0,1
 0 17 0 17 0 20 c 1,2,3
 7 20 7 20 28 20 c 1,4,5
 28 19 28 19 28 16 c 1,6,7
 21 16 21 16 0 16 c 1,0,1
0 32 m 1,8,9
 0 33 0 33 0 36 c 1,10,11
 7 36 7 36 28 36 c 1,12,13
 28 35 28 35 28 32 c 1,14,15
 21 32 21 32 0 32 c 1,8,9
EndSplineSet
EndChar

StartChar: greater
Encoding: 62 62 33
Width: 24
GlyphClass: 2
Flags: W
LayerCount: 2
Fore
SplineSet
0 12 m 1,0,1
 0 13 0 13 0 16 c 1,2,3
 1 16 1 16 4 16 c 1,4,5
 4 17 4 17 4 20 c 1,6,7
 5 20 5 20 8 20 c 1,8,9
 8 21 8 21 8 24 c 1,10,11
 9 24 9 24 12 24 c 1,12,13
 12 25 12 25 12 28 c 1,14,15
 11 28 11 28 8 28 c 1,16,17
 8 29 8 29 8 32 c 1,18,19
 7 32 7 32 4 32 c 1,20,21
 4 33 4 33 4 36 c 1,22,23
 3 36 3 36 0 36 c 1,24,25
 0 37 0 37 0 40 c 1,26,27
 2 40 2 40 8 40 c 1,28,29
 8 39 8 39 8 36 c 1,30,31
 9 36 9 36 12 36 c 1,32,33
 12 35 12 35 12 32 c 1,34,35
 13 32 13 32 16 32 c 1,36,37
 16 31 16 31 16 28 c 1,38,39
 17 28 17 28 20 28 c 1,40,41
 20 27 20 27 20 24 c 1,42,43
 19 24 19 24 16 24 c 1,44,45
 16 23 16 23 16 20 c 1,46,47
 15 20 15 20 12 20 c 1,48,49
 12 19 12 19 12 16 c 1,50,51
 11 16 11 16 8 16 c 1,52,53
 8 15 8 15 8 12 c 1,54,55
 6 12 6 12 0 12 c 1,0,1
EndSplineSet
EndChar

StartChar: question
Encoding: 63 63 34
Width: 36
GlyphClass: 2
Flags: W
LayerCount: 2
Fore
SplineSet
12 0 m 1,0,1
 12 2 12 2 12 8 c 1,2,3
 14 8 14 8 20 8 c 1,4,5
 20 6 20 6 20 0 c 1,6,7
 18 0 18 0 12 0 c 1,0,1
12 16 m 1,8,9
 12 18 12 18 12 24 c 1,10,11
 13 24 13 24 16 24 c 1,12,13
 16 25 16 25 16 28 c 1,14,15
 17 28 17 28 20 28 c 1,16,17
 20 29 20 29 20 32 c 1,18,19
 21 32 21 32 24 32 c 1,20,21
 24 35 24 35 24 44 c 1,22,23
 23 44 23 44 20 44 c 1,24,25
 20 45 20 45 20 48 c 1,26,27
 18 48 18 48 12 48 c 1,28,29
 12 47 12 47 12 44 c 1,30,31
 11 44 11 44 8 44 c 1,32,33
 8 43 8 43 8 40 c 1,34,35
 6 40 6 40 0 40 c 1,36,37
 0 41 0 41 0 44 c 1,38,39
 1 44 1 44 4 44 c 1,40,41
 4 45 4 45 4 48 c 1,42,43
 5 48 5 48 8 48 c 1,44,45
 8 49 8 49 8 52 c 1,46,47
 12 52 12 52 24 52 c 1,48,49
 24 51 24 51 24 48 c 1,50,51
 25 48 25 48 28 48 c 1,52,53
 28 47 28 47 28 44 c 1,54,55
 29 44 29 44 32 44 c 1,56,57
 32 41 32 41 32 32 c 1,58,59
 31 32 31 32 28 32 c 1,60,61
 28 31 28 31 28 28 c 1,62,63
 27 28 27 28 24 28 c 1,64,65
 24 27 24 27 24 24 c 1,66,67
 23 24 23 24 20 24 c 1,68,69
 20 22 20 22 20 16 c 1,70,71
 18 16 18 16 12 16 c 1,8,9
EndSplineSet
EndChar

StartChar: at
Encoding: 64 64 35
Width: 44
GlyphClass: 2
Flags: W
LayerCount: 2
Fore
SplineSet
24 16 m 1,0,1
 24 21 24 21 24 36 c 1,2,3
 22 36 22 36 16 36 c 1,4,5
 16 31 16 31 16 16 c 1,6,7
 18 16 18 16 24 16 c 1,0,1
32 36 m 1,8,9
 32 38 32 38 32 44 c 1,10,11
 31 44 31 44 28 44 c 1,12,13
 28 45 28 45 28 48 c 1,14,15
 24 48 24 48 12 48 c 1,16,17
 12 47 12 47 12 44 c 1,18,19
 11 44 11 44 8 44 c 1,20,21
 8 42 8 42 8 36 c 1,22,23
 9 36 9 36 12 36 c 1,24,25
 12 37 12 37 12 40 c 1,26,27
 16 40 16 40 28 40 c 1,28,29
 28 39 28 39 28 36 c 1,30,31
 29 36 29 36 32 36 c 1,8,9
8 0 m 1,32,33
 8 1 8 1 8 4 c 1,34,35
 7 4 7 4 4 4 c 1,36,37
 4 5 4 5 4 8 c 1,38,39
 3 8 3 8 0 8 c 1,40,41
 0 17 0 17 0 44 c 1,42,43
 1 44 1 44 4 44 c 1,44,45
 4 45 4 45 4 48 c 1,46,47
 5 48 5 48 8 48 c 1,48,49
 8 49 8 49 8 52 c 1,50,51
 14 52 14 52 32 52 c 1,52,53
 32 51 32 51 32 48 c 1,54,55
 33 48 33 48 36 48 c 1,56,57
 36 47 36 47 36 44 c 1,58,59
 37 44 37 44 40 44 c 1,60,61
 40 37 40 37 40 16 c 1,62,63
 39 16 39 16 36 16 c 1,64,65
 36 15 36 15 36 12 c 1,66,67
 30 12 30 12 12 12 c 1,68,69
 12 13 12 13 12 16 c 1,70,71
 11 16 11 16 8 16 c 1,72,73
 8 14 8 14 8 8 c 1,74,75
 9 8 9 8 12 8 c 1,76,77
 12 7 12 7 12 4 c 1,78,79
 17 4 17 4 32 4 c 1,80,81
 32 5 32 5 32 8 c 1,82,83
 34 8 34 8 40 8 c 1,84,85
 40 7 40 7 40 4 c 1,86,87
 39 4 39 4 36 4 c 1,88,89
 36 3 36 3 36 0 c 1,90,91
 29 0 29 0 8 0 c 1,32,33
EndSplineSet
EndChar

StartChar: A
Encoding: 65 65 36
Width: 36
GlyphClass: 2
Flags: W
LayerCount: 2
Fore
SplineSet
24 24 m 1,0,1
 24 28 24 28 24 40 c 1,2,3
 23 40 23 40 20 40 c 1,4,5
 20 42 20 42 20 48 c 1,6,7
 18 48 18 48 12 48 c 1,8,9
 12 46 12 46 12 40 c 1,10,11
 11 40 11 40 8 40 c 1,12,13
 8 36 8 36 8 24 c 1,14,15
 12 24 12 24 24 24 c 1,0,1
0 0 m 1,16,17
 0 10 0 10 0 40 c 1,18,19
 1 40 1 40 4 40 c 1,20,21
 4 42 4 42 4 48 c 1,22,23
 5 48 5 48 8 48 c 1,24,25
 8 49 8 49 8 52 c 1,26,27
 12 52 12 52 24 52 c 1,28,29
 24 51 24 51 24 48 c 1,30,31
 25 48 25 48 28 48 c 1,32,33
 28 46 28 46 28 40 c 1,34,35
 29 40 29 40 32 40 c 1,36,37
 32 30 32 30 32 0 c 1,38,39
 30 0 30 0 24 0 c 1,40,41
 24 5 24 5 24 20 c 1,42,43
 20 20 20 20 8 20 c 1,44,45
 8 15 8 15 8 0 c 1,46,47
 6 0 6 0 0 0 c 1,16,17
EndSplineSet
EndChar

StartChar: B
Encoding: 66 66 37
Width: 36
GlyphClass: 2
Flags: W
LayerCount: 2
Fore
SplineSet
20 4 m 1,0,1
 20 5 20 5 20 8 c 1,2,3
 21 8 21 8 24 8 c 1,4,5
 24 11 24 11 24 20 c 1,6,7
 23 20 23 20 20 20 c 1,8,9
 20 21 20 21 20 24 c 1,10,11
 17 24 17 24 8 24 c 1,12,13
 8 19 8 19 8 4 c 1,14,15
 11 4 11 4 20 4 c 1,0,1
20 28 m 1,16,17
 20 29 20 29 20 32 c 1,18,19
 21 32 21 32 24 32 c 1,20,21
 24 35 24 35 24 44 c 1,22,23
 23 44 23 44 20 44 c 1,24,25
 20 45 20 45 20 48 c 1,26,27
 17 48 17 48 8 48 c 1,28,29
 8 43 8 43 8 28 c 1,30,31
 11 28 11 28 20 28 c 1,16,17
0 0 m 1,32,33
 0 13 0 13 0 52 c 1,34,35
 6 52 6 52 24 52 c 1,36,37
 24 51 24 51 24 48 c 1,38,39
 25 48 25 48 28 48 c 1,40,41
 28 47 28 47 28 44 c 1,42,43
 29 44 29 44 32 44 c 1,44,45
 32 41 32 41 32 32 c 1,46,47
 31 32 31 32 28 32 c 1,48,49
 28 31 28 31 28 28 c 1,50,51
 27 28 27 28 24 28 c 1,52,53
 24 27 24 27 24 24 c 1,54,55
 25 24 25 24 28 24 c 1,56,57
 28 23 28 23 28 20 c 1,58,59
 29 20 29 20 32 20 c 1,60,61
 32 17 32 17 32 8 c 1,62,63
 31 8 31 8 28 8 c 1,64,65
 28 7 28 7 28 4 c 1,66,67
 27 4 27 4 24 4 c 1,68,69
 24 3 24 3 24 0 c 1,70,71
 18 0 18 0 0 0 c 1,32,33
EndSplineSet
EndChar

StartChar: C
Encoding: 67 67 38
Width: 36
GlyphClass: 2
Flags: W
LayerCount: 2
Fore
SplineSet
8 0 m 1,0,1
 8 1 8 1 8 4 c 1,2,3
 7 4 7 4 4 4 c 1,4,5
 4 5 4 5 4 8 c 1,6,7
 3 8 3 8 0 8 c 1,8,9
 0 17 0 17 0 44 c 1,10,11
 1 44 1 44 4 44 c 1,12,13
 4 45 4 45 4 48 c 1,14,15
 5 48 5 48 8 48 c 1,16,17
 8 49 8 49 8 52 c 1,18,19
 12 52 12 52 24 52 c 1,20,21
 24 51 24 51 24 48 c 1,22,23
 25 48 25 48 28 48 c 1,24,25
 28 47 28 47 28 44 c 1,26,27
 29 44 29 44 32 44 c 1,28,29
 32 43 32 43 32 40 c 1,30,31
 30 40 30 40 24 40 c 1,32,33
 24 41 24 41 24 44 c 1,34,35
 23 44 23 44 20 44 c 1,36,37
 20 45 20 45 20 48 c 1,38,39
 18 48 18 48 12 48 c 1,40,41
 12 47 12 47 12 44 c 1,42,43
 11 44 11 44 8 44 c 1,44,45
 8 35 8 35 8 8 c 1,46,47
 9 8 9 8 12 8 c 1,48,49
 12 7 12 7 12 4 c 1,50,51
 14 4 14 4 20 4 c 1,52,53
 20 5 20 5 20 8 c 1,54,55
 21 8 21 8 24 8 c 1,56,57
 24 9 24 9 24 12 c 1,58,59
 26 12 26 12 32 12 c 1,60,61
 32 11 32 11 32 8 c 1,62,63
 31 8 31 8 28 8 c 1,64,65
 28 7 28 7 28 4 c 1,66,67
 27 4 27 4 24 4 c 1,68,69
 24 3 24 3 24 0 c 1,70,71
 20 0 20 0 8 0 c 1,0,1
EndSplineSet
EndChar

StartChar: D
Encoding: 68 68 39
Width: 36
GlyphClass: 2
Flags: W
LayerCount: 2
Fore
SplineSet
20 4 m 1,0,1
 20 5 20 5 20 8 c 1,2,3
 21 8 21 8 24 8 c 1,4,5
 24 17 24 17 24 44 c 1,6,7
 23 44 23 44 20 44 c 1,8,9
 20 45 20 45 20 48 c 1,10,11
 17 48 17 48 8 48 c 1,12,13
 8 37 8 37 8 4 c 1,14,15
 11 4 11 4 20 4 c 1,0,1
0 0 m 1,16,17
 0 13 0 13 0 52 c 1,18,19
 6 52 6 52 24 52 c 1,20,21
 24 51 24 51 24 48 c 1,22,23
 25 48 25 48 28 48 c 1,24,25
 28 47 28 47 28 44 c 1,26,27
 29 44 29 44 32 44 c 1,28,29
 32 35 32 35 32 8 c 1,30,31
 31 8 31 8 28 8 c 1,32,33
 28 7 28 7 28 4 c 1,34,35
 27 4 27 4 24 4 c 1,36,37
 24 3 24 3 24 0 c 1,38,39
 18 0 18 0 0 0 c 1,16,17
EndSplineSet
EndChar

StartChar: E
Encoding: 69 69 40
Width: 36
GlyphClass: 2
Flags: W
LayerCount: 2
Fore
SplineSet
0 0 m 1,0,1
 0 13 0 13 0 52 c 1,2,3
 8 52 8 52 32 52 c 1,4,5
 32 51 32 51 32 48 c 1,6,7
 26 48 26 48 8 48 c 1,8,9
 8 43 8 43 8 28 c 1,10,11
 12 28 12 28 24 28 c 1,12,13
 24 27 24 27 24 24 c 1,14,15
 20 24 20 24 8 24 c 1,16,17
 8 19 8 19 8 4 c 1,18,19
 14 4 14 4 32 4 c 1,20,21
 32 3 32 3 32 0 c 1,22,23
 24 0 24 0 0 0 c 1,0,1
EndSplineSet
EndChar

StartChar: F
Encoding: 70 70 41
Width: 36
GlyphClass: 2
Flags: W
LayerCount: 2
Fore
SplineSet
0 0 m 1,0,1
 0 13 0 13 0 52 c 1,2,3
 8 52 8 52 32 52 c 1,4,5
 32 51 32 51 32 48 c 1,6,7
 26 48 26 48 8 48 c 1,8,9
 8 43 8 43 8 28 c 1,10,11
 12 28 12 28 24 28 c 1,12,13
 24 27 24 27 24 24 c 1,14,15
 20 24 20 24 8 24 c 1,16,17
 8 18 8 18 8 0 c 1,18,19
 6 0 6 0 0 0 c 1,0,1
EndSplineSet
EndChar

StartChar: G
Encoding: 71 71 42
Width: 36
GlyphClass: 2
Flags: W
LayerCount: 2
Fore
SplineSet
8 0 m 1,0,1
 8 1 8 1 8 4 c 1,2,3
 7 4 7 4 4 4 c 1,4,5
 4 5 4 5 4 8 c 1,6,7
 3 8 3 8 0 8 c 1,8,9
 0 17 0 17 0 44 c 1,10,11
 1 44 1 44 4 44 c 1,12,13
 4 45 4 45 4 48 c 1,14,15
 5 48 5 48 8 48 c 1,16,17
 8 49 8 49 8 52 c 1,18,19
 13 52 13 52 28 52 c 1,20,21
 28 51 28 51 28 48 c 1,22,23
 29 48 29 48 32 48 c 1,24,25
 32 47 32 47 32 44 c 1,26,27
 30 44 30 44 24 44 c 1,28,29
 24 45 24 45 24 48 c 1,30,31
 21 48 21 48 12 48 c 1,32,33
 12 47 12 47 12 44 c 1,34,35
 11 44 11 44 8 44 c 1,36,37
 8 35 8 35 8 8 c 1,38,39
 9 8 9 8 12 8 c 1,40,41
 12 7 12 7 12 4 c 1,42,43
 15 4 15 4 24 4 c 1,44,45
 24 9 24 9 24 24 c 1,46,47
 22 24 22 24 16 24 c 1,48,49
 16 25 16 25 16 28 c 1,50,51
 20 28 20 28 32 28 c 1,52,53
 32 21 32 21 32 0 c 1,54,55
 26 0 26 0 8 0 c 1,0,1
EndSplineSet
EndChar

StartChar: H
Encoding: 72 72 43
Width: 36
GlyphClass: 2
Flags: W
LayerCount: 2
Fore
SplineSet
0 0 m 1,0,1
 0 13 0 13 0 52 c 1,2,3
 2 52 2 52 8 52 c 1,4,5
 8 46 8 46 8 28 c 1,6,7
 12 28 12 28 24 28 c 1,8,9
 24 34 24 34 24 52 c 1,10,11
 26 52 26 52 32 52 c 1,12,13
 32 39 32 39 32 0 c 1,14,15
 30 0 30 0 24 0 c 1,16,17
 24 6 24 6 24 24 c 1,18,19
 20 24 20 24 8 24 c 1,20,21
 8 18 8 18 8 0 c 1,22,23
 6 0 6 0 0 0 c 1,0,1
EndSplineSet
EndChar

StartChar: I
Encoding: 73 73 44
Width: 12
GlyphClass: 2
Flags: W
LayerCount: 2
Fore
SplineSet
0 0 m 1,0,1
 0 13 0 13 0 52 c 1,2,3
 2 52 2 52 8 52 c 1,4,5
 8 39 8 39 8 0 c 1,6,7
 6 0 6 0 0 0 c 1,0,1
EndSplineSet
EndChar

StartChar: J
Encoding: 74 74 45
Width: 36
GlyphClass: 2
Flags: W
LayerCount: 2
Fore
SplineSet
8 0 m 1,0,1
 8 1 8 1 8 4 c 1,2,3
 7 4 7 4 4 4 c 1,4,5
 4 5 4 5 4 8 c 1,6,7
 3 8 3 8 0 8 c 1,8,9
 0 9 0 9 0 12 c 1,10,11
 2 12 2 12 8 12 c 1,12,13
 8 11 8 11 8 8 c 1,14,15
 9 8 9 8 12 8 c 1,16,17
 12 7 12 7 12 4 c 1,18,19
 14 4 14 4 20 4 c 1,20,21
 20 5 20 5 20 8 c 1,22,23
 21 8 21 8 24 8 c 1,24,25
 24 19 24 19 24 52 c 1,26,27
 26 52 26 52 32 52 c 1,28,29
 32 41 32 41 32 8 c 1,30,31
 31 8 31 8 28 8 c 1,32,33
 28 7 28 7 28 4 c 1,34,35
 27 4 27 4 24 4 c 1,36,37
 24 3 24 3 24 0 c 1,38,39
 20 0 20 0 8 0 c 1,0,1
EndSplineSet
EndChar

StartChar: K
Encoding: 75 75 46
Width: 36
GlyphClass: 2
Flags: W
LayerCount: 2
Fore
SplineSet
0 0 m 1,0,1
 0 13 0 13 0 52 c 1,2,3
 2 52 2 52 8 52 c 1,4,5
 8 46 8 46 8 28 c 1,6,7
 9 28 9 28 12 28 c 1,8,9
 12 29 12 29 12 32 c 1,10,11
 13 32 13 32 16 32 c 1,12,13
 16 33 16 33 16 36 c 1,14,15
 17 36 17 36 20 36 c 1,16,17
 20 37 20 37 20 40 c 1,18,19
 21 40 21 40 24 40 c 1,20,21
 24 43 24 43 24 52 c 1,22,23
 26 52 26 52 32 52 c 1,24,25
 32 49 32 49 32 40 c 1,26,27
 31 40 31 40 28 40 c 1,28,29
 28 39 28 39 28 36 c 1,30,31
 27 36 27 36 24 36 c 1,32,33
 24 35 24 35 24 32 c 1,34,35
 23 32 23 32 20 32 c 1,36,37
 20 31 20 31 20 28 c 1,38,39
 19 28 19 28 16 28 c 1,40,41
 16 27 16 27 16 24 c 1,42,43
 17 24 17 24 20 24 c 1,44,45
 20 23 20 23 20 20 c 1,46,47
 21 20 21 20 24 20 c 1,48,49
 24 19 24 19 24 16 c 1,50,51
 25 16 25 16 28 16 c 1,52,53
 28 15 28 15 28 12 c 1,54,55
 29 12 29 12 32 12 c 1,56,57
 32 9 32 9 32 0 c 1,58,59
 30 0 30 0 24 0 c 1,60,61
 24 3 24 3 24 12 c 1,62,63
 23 12 23 12 20 12 c 1,64,65
 20 13 20 13 20 16 c 1,66,67
 19 16 19 16 16 16 c 1,68,69
 16 17 16 17 16 20 c 1,70,71
 15 20 15 20 12 20 c 1,72,73
 12 21 12 21 12 24 c 1,74,75
 11 24 11 24 8 24 c 1,76,77
 8 18 8 18 8 0 c 1,78,79
 6 0 6 0 0 0 c 1,0,1
EndSplineSet
EndChar

StartChar: L
Encoding: 76 76 47
Width: 36
GlyphClass: 2
Flags: W
LayerCount: 2
Fore
SplineSet
0 0 m 1,0,1
 0 13 0 13 0 52 c 1,2,3
 2 52 2 52 8 52 c 1,4,5
 8 40 8 40 8 4 c 1,6,7
 14 4 14 4 32 4 c 1,8,9
 32 3 32 3 32 0 c 1,10,11
 24 0 24 0 0 0 c 1,0,1
EndSplineSet
EndChar

StartChar: M
Encoding: 77 77 48
Width: 52
GlyphClass: 2
Flags: W
LayerCount: 2
Fore
SplineSet
0 0 m 1,0,1
 0 13 0 13 0 52 c 1,2,3
 2 52 2 52 8 52 c 1,4,5
 8 50 8 50 8 44 c 1,6,7
 9 44 9 44 12 44 c 1,8,9
 12 43 12 43 12 40 c 1,10,11
 13 40 13 40 16 40 c 1,12,13
 16 39 16 39 16 36 c 1,14,15
 17 36 17 36 20 36 c 1,16,17
 20 35 20 35 20 32 c 1,18,19
 22 32 22 32 28 32 c 1,20,21
 28 33 28 33 28 36 c 1,22,23
 29 36 29 36 32 36 c 1,24,25
 32 37 32 37 32 40 c 1,26,27
 33 40 33 40 36 40 c 1,28,29
 36 41 36 41 36 44 c 1,30,31
 37 44 37 44 40 44 c 1,32,33
 40 46 40 46 40 52 c 1,34,35
 42 52 42 52 48 52 c 1,36,37
 48 39 48 39 48 0 c 1,38,39
 46 0 46 0 40 0 c 1,40,41
 40 9 40 9 40 36 c 1,42,43
 39 36 39 36 36 36 c 1,44,45
 36 35 36 35 36 32 c 1,46,47
 35 32 35 32 32 32 c 1,48,49
 32 31 32 31 32 28 c 1,50,51
 31 28 31 28 28 28 c 1,52,53
 28 27 28 27 28 24 c 1,54,55
 26 24 26 24 20 24 c 1,56,57
 20 25 20 25 20 28 c 1,58,59
 19 28 19 28 16 28 c 1,60,61
 16 29 16 29 16 32 c 1,62,63
 15 32 15 32 12 32 c 1,64,65
 12 33 12 33 12 36 c 1,66,67
 11 36 11 36 8 36 c 1,68,69
 8 27 8 27 8 0 c 1,70,71
 6 0 6 0 0 0 c 1,0,1
EndSplineSet
EndChar

StartChar: N
Encoding: 78 78 49
Width: 36
GlyphClass: 2
Flags: W
LayerCount: 2
Fore
SplineSet
0 0 m 1,0,1
 0 13 0 13 0 52 c 1,2,3
 2 52 2 52 8 52 c 1,4,5
 8 49 8 49 8 40 c 1,6,7
 9 40 9 40 12 40 c 1,8,9
 12 39 12 39 12 36 c 1,10,11
 13 36 13 36 16 36 c 1,12,13
 16 35 16 35 16 32 c 1,14,15
 17 32 17 32 20 32 c 1,16,17
 20 31 20 31 20 28 c 1,18,19
 21 28 21 28 24 28 c 1,20,21
 24 34 24 34 24 52 c 1,22,23
 26 52 26 52 32 52 c 1,24,25
 32 39 32 39 32 0 c 1,26,27
 30 0 30 0 24 0 c 1,28,29
 24 5 24 5 24 20 c 1,30,31
 23 20 23 20 20 20 c 1,32,33
 20 21 20 21 20 24 c 1,34,35
 19 24 19 24 16 24 c 1,36,37
 16 25 16 25 16 28 c 1,38,39
 15 28 15 28 12 28 c 1,40,41
 12 29 12 29 12 32 c 1,42,43
 11 32 11 32 8 32 c 1,44,45
 8 24 8 24 8 0 c 1,46,47
 6 0 6 0 0 0 c 1,0,1
EndSplineSet
EndChar

StartChar: O
Encoding: 79 79 50
Width: 36
GlyphClass: 2
Flags: W
LayerCount: 2
Fore
SplineSet
20 4 m 1,0,1
 20 5 20 5 20 8 c 1,2,3
 21 8 21 8 24 8 c 1,4,5
 24 17 24 17 24 44 c 1,6,7
 23 44 23 44 20 44 c 1,8,9
 20 45 20 45 20 48 c 1,10,11
 18 48 18 48 12 48 c 1,12,13
 12 47 12 47 12 44 c 1,14,15
 11 44 11 44 8 44 c 1,16,17
 8 35 8 35 8 8 c 1,18,19
 9 8 9 8 12 8 c 1,20,21
 12 7 12 7 12 4 c 1,22,23
 14 4 14 4 20 4 c 1,0,1
8 0 m 1,24,25
 8 1 8 1 8 4 c 1,26,27
 7 4 7 4 4 4 c 1,28,29
 4 5 4 5 4 8 c 1,30,31
 3 8 3 8 0 8 c 1,32,33
 0 17 0 17 0 44 c 1,34,35
 1 44 1 44 4 44 c 1,36,37
 4 45 4 45 4 48 c 1,38,39
 5 48 5 48 8 48 c 1,40,41
 8 49 8 49 8 52 c 1,42,43
 12 52 12 52 24 52 c 1,44,45
 24 51 24 51 24 48 c 1,46,47
 25 48 25 48 28 48 c 1,48,49
 28 47 28 47 28 44 c 1,50,51
 29 44 29 44 32 44 c 1,52,53
 32 35 32 35 32 8 c 1,54,55
 31 8 31 8 28 8 c 1,56,57
 28 7 28 7 28 4 c 1,58,59
 27 4 27 4 24 4 c 1,60,61
 24 3 24 3 24 0 c 1,62,63
 20 0 20 0 8 0 c 1,24,25
EndSplineSet
EndChar

StartChar: P
Encoding: 80 80 51
Width: 36
GlyphClass: 2
Flags: W
LayerCount: 2
Fore
SplineSet
20 28 m 1,0,1
 20 29 20 29 20 32 c 1,2,3
 21 32 21 32 24 32 c 1,4,5
 24 35 24 35 24 44 c 1,6,7
 23 44 23 44 20 44 c 1,8,9
 20 45 20 45 20 48 c 1,10,11
 17 48 17 48 8 48 c 1,12,13
 8 43 8 43 8 28 c 1,14,15
 11 28 11 28 20 28 c 1,0,1
0 0 m 1,16,17
 0 13 0 13 0 52 c 1,18,19
 6 52 6 52 24 52 c 1,20,21
 24 51 24 51 24 48 c 1,22,23
 25 48 25 48 28 48 c 1,24,25
 28 47 28 47 28 44 c 1,26,27
 29 44 29 44 32 44 c 1,28,29
 32 41 32 41 32 32 c 1,30,31
 31 32 31 32 28 32 c 1,32,33
 28 31 28 31 28 28 c 1,34,35
 27 28 27 28 24 28 c 1,36,37
 24 27 24 27 24 24 c 1,38,39
 20 24 20 24 8 24 c 1,40,41
 8 18 8 18 8 0 c 1,42,43
 6 0 6 0 0 0 c 1,16,17
EndSplineSet
EndChar

StartChar: Q
Encoding: 81 81 52
Width: 36
GlyphClass: 2
Flags: W
LayerCount: 2
Fore
SplineSet
20 4 m 1,0,1
 20 6 20 6 20 12 c 1,2,3
 19 12 19 12 16 12 c 1,4,5
 16 13 16 13 16 16 c 1,6,7
 18 16 18 16 24 16 c 1,8,9
 24 23 24 23 24 44 c 1,10,11
 23 44 23 44 20 44 c 1,12,13
 20 45 20 45 20 48 c 1,14,15
 18 48 18 48 12 48 c 1,16,17
 12 47 12 47 12 44 c 1,18,19
 11 44 11 44 8 44 c 1,20,21
 8 35 8 35 8 8 c 1,22,23
 9 8 9 8 12 8 c 1,24,25
 12 7 12 7 12 4 c 1,26,27
 14 4 14 4 20 4 c 1,0,1
8 0 m 1,28,29
 8 1 8 1 8 4 c 1,30,31
 7 4 7 4 4 4 c 1,32,33
 4 5 4 5 4 8 c 1,34,35
 3 8 3 8 0 8 c 1,36,37
 0 17 0 17 0 44 c 1,38,39
 1 44 1 44 4 44 c 1,40,41
 4 45 4 45 4 48 c 1,42,43
 5 48 5 48 8 48 c 1,44,45
 8 49 8 49 8 52 c 1,46,47
 12 52 12 52 24 52 c 1,48,49
 24 51 24 51 24 48 c 1,50,51
 25 48 25 48 28 48 c 1,52,53
 28 47 28 47 28 44 c 1,54,55
 29 44 29 44 32 44 c 1,56,57
 32 35 32 35 32 8 c 1,58,59
 31 8 31 8 28 8 c 1,60,61
 28 7 28 7 28 4 c 1,62,63
 29 4 29 4 32 4 c 1,64,65
 32 3 32 3 32 0 c 1,66,67
 26 0 26 0 8 0 c 1,28,29
EndSplineSet
EndChar

StartChar: R
Encoding: 82 82 53
Width: 36
GlyphClass: 2
Flags: W
LayerCount: 2
Fore
SplineSet
20 28 m 1,0,1
 20 29 20 29 20 32 c 1,2,3
 21 32 21 32 24 32 c 1,4,5
 24 35 24 35 24 44 c 1,6,7
 23 44 23 44 20 44 c 1,8,9
 20 45 20 45 20 48 c 1,10,11
 17 48 17 48 8 48 c 1,12,13
 8 43 8 43 8 28 c 1,14,15
 11 28 11 28 20 28 c 1,0,1
0 0 m 1,16,17
 0 13 0 13 0 52 c 1,18,19
 6 52 6 52 24 52 c 1,20,21
 24 51 24 51 24 48 c 1,22,23
 25 48 25 48 28 48 c 1,24,25
 28 47 28 47 28 44 c 1,26,27
 29 44 29 44 32 44 c 1,28,29
 32 41 32 41 32 32 c 1,30,31
 31 32 31 32 28 32 c 1,32,33
 28 31 28 31 28 28 c 1,34,35
 27 28 27 28 24 28 c 1,36,37
 24 27 24 27 24 24 c 1,38,39
 23 24 23 24 20 24 c 1,40,41
 20 23 20 23 20 20 c 1,42,43
 21 20 21 20 24 20 c 1,44,45
 24 19 24 19 24 16 c 1,46,47
 25 16 25 16 28 16 c 1,48,49
 28 14 28 14 28 8 c 1,50,51
 29 8 29 8 32 8 c 1,52,53
 32 6 32 6 32 0 c 1,54,55
 30 0 30 0 24 0 c 1,56,57
 24 2 24 2 24 8 c 1,58,59
 23 8 23 8 20 8 c 1,60,61
 20 10 20 10 20 16 c 1,62,63
 19 16 19 16 16 16 c 1,64,65
 16 17 16 17 16 20 c 1,66,67
 15 20 15 20 12 20 c 1,68,69
 12 21 12 21 12 24 c 1,70,71
 11 24 11 24 8 24 c 1,72,73
 8 18 8 18 8 0 c 1,74,75
 6 0 6 0 0 0 c 1,16,17
EndSplineSet
EndChar

StartChar: S
Encoding: 83 83 54
Width: 36
GlyphClass: 2
Flags: W
LayerCount: 2
Fore
SplineSet
8 0 m 1,0,1
 8 1 8 1 8 4 c 1,2,3
 7 4 7 4 4 4 c 1,4,5
 4 5 4 5 4 8 c 1,6,7
 3 8 3 8 0 8 c 1,8,9
 0 9 0 9 0 12 c 1,10,11
 2 12 2 12 8 12 c 1,12,13
 8 11 8 11 8 8 c 1,14,15
 9 8 9 8 12 8 c 1,16,17
 12 7 12 7 12 4 c 1,18,19
 14 4 14 4 20 4 c 1,20,21
 20 5 20 5 20 8 c 1,22,23
 21 8 21 8 24 8 c 1,24,25
 24 11 24 11 24 20 c 1,26,27
 23 20 23 20 20 20 c 1,28,29
 20 21 20 21 20 24 c 1,30,31
 18 24 18 24 12 24 c 1,32,33
 12 25 12 25 12 28 c 1,34,35
 10 28 10 28 4 28 c 1,36,37
 4 29 4 29 4 32 c 1,38,39
 3 32 3 32 0 32 c 1,40,41
 0 35 0 35 0 44 c 1,42,43
 1 44 1 44 4 44 c 1,44,45
 4 45 4 45 4 48 c 1,46,47
 5 48 5 48 8 48 c 1,48,49
 8 49 8 49 8 52 c 1,50,51
 13 52 13 52 28 52 c 1,52,53
 28 51 28 51 28 48 c 1,54,55
 29 48 29 48 32 48 c 1,56,57
 32 47 32 47 32 44 c 1,58,59
 30 44 30 44 24 44 c 1,60,61
 24 45 24 45 24 48 c 1,62,63
 21 48 21 48 12 48 c 1,64,65
 12 47 12 47 12 44 c 1,66,67
 11 44 11 44 8 44 c 1,68,69
 8 41 8 41 8 32 c 1,70,71
 10 32 10 32 16 32 c 1,72,73
 16 31 16 31 16 28 c 1,74,75
 18 28 18 28 24 28 c 1,76,77
 24 27 24 27 24 24 c 1,78,79
 25 24 25 24 28 24 c 1,80,81
 28 23 28 23 28 20 c 1,82,83
 29 20 29 20 32 20 c 1,84,85
 32 17 32 17 32 8 c 1,86,87
 31 8 31 8 28 8 c 1,88,89
 28 7 28 7 28 4 c 1,90,91
 27 4 27 4 24 4 c 1,92,93
 24 3 24 3 24 0 c 1,94,95
 20 0 20 0 8 0 c 1,0,1
EndSplineSet
EndChar

StartChar: T
Encoding: 84 84 55
Width: 36
GlyphClass: 2
Flags: W
LayerCount: 2
Fore
SplineSet
12 0 m 1,0,1
 12 12 12 12 12 48 c 1,2,3
 9 48 9 48 0 48 c 1,4,5
 0 49 0 49 0 52 c 1,6,7
 8 52 8 52 32 52 c 1,8,9
 32 51 32 51 32 48 c 1,10,11
 29 48 29 48 20 48 c 1,12,13
 20 36 20 36 20 0 c 1,14,15
 18 0 18 0 12 0 c 1,0,1
EndSplineSet
EndChar

StartChar: U
Encoding: 85 85 56
Width: 36
GlyphClass: 2
Flags: W
LayerCount: 2
Fore
SplineSet
8 0 m 1,0,1
 8 1 8 1 8 4 c 1,2,3
 7 4 7 4 4 4 c 1,4,5
 4 5 4 5 4 8 c 1,6,7
 3 8 3 8 0 8 c 1,8,9
 0 19 0 19 0 52 c 1,10,11
 2 52 2 52 8 52 c 1,12,13
 8 41 8 41 8 8 c 1,14,15
 9 8 9 8 12 8 c 1,16,17
 12 7 12 7 12 4 c 1,18,19
 14 4 14 4 20 4 c 1,20,21
 20 5 20 5 20 8 c 1,22,23
 21 8 21 8 24 8 c 1,24,25
 24 19 24 19 24 52 c 1,26,27
 26 52 26 52 32 52 c 1,28,29
 32 41 32 41 32 8 c 1,30,31
 31 8 31 8 28 8 c 1,32,33
 28 7 28 7 28 4 c 1,34,35
 27 4 27 4 24 4 c 1,36,37
 24 3 24 3 24 0 c 1,38,39
 20 0 20 0 8 0 c 1,0,1
EndSplineSet
EndChar

StartChar: V
Encoding: 86 86 57
Width: 36
GlyphClass: 2
Flags: W
LayerCount: 2
Fore
SplineSet
12 0 m 1,0,1
 12 1 12 1 12 4 c 1,2,3
 11 4 11 4 8 4 c 1,4,5
 8 6 8 6 8 12 c 1,6,7
 7 12 7 12 4 12 c 1,8,9
 4 14 4 14 4 20 c 1,10,11
 3 20 3 20 0 20 c 1,12,13
 0 28 0 28 0 52 c 1,14,15
 2 52 2 52 8 52 c 1,16,17
 8 44 8 44 8 20 c 1,18,19
 9 20 9 20 12 20 c 1,20,21
 12 18 12 18 12 12 c 1,22,23
 14 12 14 12 20 12 c 1,24,25
 20 14 20 14 20 20 c 1,26,27
 21 20 21 20 24 20 c 1,28,29
 24 28 24 28 24 52 c 1,30,31
 26 52 26 52 32 52 c 1,32,33
 32 44 32 44 32 20 c 1,34,35
 31 20 31 20 28 20 c 1,36,37
 28 18 28 18 28 12 c 1,38,39
 27 12 27 12 24 12 c 1,40,41
 24 10 24 10 24 4 c 1,42,43
 23 4 23 4 20 4 c 1,44,45
 20 3 20 3 20 0 c 1,46,47
 18 0 18 0 12 0 c 1,0,1
EndSplineSet
EndChar

StartChar: W
Encoding: 87 87 58
Width: 52
GlyphClass: 2
Flags: W
LayerCount: 2
Fore
SplineSet
8 0 m 1,0,1
 8 1 8 1 8 4 c 1,2,3
 7 4 7 4 4 4 c 1,4,5
 4 6 4 6 4 12 c 1,6,7
 3 12 3 12 0 12 c 1,8,9
 0 22 0 22 0 52 c 1,10,11
 2 52 2 52 8 52 c 1,12,13
 8 42 8 42 8 12 c 1,14,15
 9 12 9 12 12 12 c 1,16,17
 12 10 12 10 12 4 c 1,18,19
 13 4 13 4 16 4 c 1,20,21
 16 6 16 6 16 12 c 1,22,23
 17 12 17 12 20 12 c 1,24,25
 20 20 20 20 20 44 c 1,26,27
 22 44 22 44 28 44 c 1,28,29
 28 36 28 36 28 12 c 1,30,31
 29 12 29 12 32 12 c 1,32,33
 32 10 32 10 32 4 c 1,34,35
 33 4 33 4 36 4 c 1,36,37
 36 6 36 6 36 12 c 1,38,39
 37 12 37 12 40 12 c 1,40,41
 40 22 40 22 40 52 c 1,42,43
 42 52 42 52 48 52 c 1,44,45
 48 42 48 42 48 12 c 1,46,47
 47 12 47 12 44 12 c 1,48,49
 44 10 44 10 44 4 c 1,50,51
 43 4 43 4 40 4 c 1,52,53
 40 3 40 3 40 0 c 1,54,55
 37 0 37 0 28 0 c 1,56,57
 28 1 28 1 28 4 c 1,58,59
 26 4 26 4 20 4 c 1,60,61
 20 3 20 3 20 0 c 1,62,63
 17 0 17 0 8 0 c 1,0,1
EndSplineSet
EndChar

StartChar: X
Encoding: 88 88 59
Width: 36
GlyphClass: 2
Flags: W
LayerCount: 2
Fore
SplineSet
0 0 m 1,0,1
 0 3 0 3 0 12 c 1,2,3
 1 12 1 12 4 12 c 1,4,5
 4 14 4 14 4 20 c 1,6,7
 5 20 5 20 8 20 c 1,8,9
 8 21 8 21 8 24 c 1,10,11
 9 24 9 24 12 24 c 1,12,13
 12 25 12 25 12 28 c 1,14,15
 11 28 11 28 8 28 c 1,16,17
 8 29 8 29 8 32 c 1,18,19
 7 32 7 32 4 32 c 1,20,21
 4 34 4 34 4 40 c 1,22,23
 3 40 3 40 0 40 c 1,24,25
 0 43 0 43 0 52 c 1,26,27
 2 52 2 52 8 52 c 1,28,29
 8 49 8 49 8 40 c 1,30,31
 9 40 9 40 12 40 c 1,32,33
 12 38 12 38 12 32 c 1,34,35
 14 32 14 32 20 32 c 1,36,37
 20 34 20 34 20 40 c 1,38,39
 21 40 21 40 24 40 c 1,40,41
 24 43 24 43 24 52 c 1,42,43
 26 52 26 52 32 52 c 1,44,45
 32 49 32 49 32 40 c 1,46,47
 31 40 31 40 28 40 c 1,48,49
 28 38 28 38 28 32 c 1,50,51
 27 32 27 32 24 32 c 1,52,53
 24 31 24 31 24 28 c 1,54,55
 23 28 23 28 20 28 c 1,56,57
 20 27 20 27 20 24 c 1,58,59
 21 24 21 24 24 24 c 1,60,61
 24 23 24 23 24 20 c 1,62,63
 25 20 25 20 28 20 c 1,64,65
 28 18 28 18 28 12 c 1,66,67
 29 12 29 12 32 12 c 1,68,69
 32 9 32 9 32 0 c 1,70,71
 30 0 30 0 24 0 c 1,72,73
 24 3 24 3 24 12 c 1,74,75
 23 12 23 12 20 12 c 1,76,77
 20 14 20 14 20 20 c 1,78,79
 18 20 18 20 12 20 c 1,80,81
 12 18 12 18 12 12 c 1,82,83
 11 12 11 12 8 12 c 1,84,85
 8 9 8 9 8 0 c 1,86,87
 6 0 6 0 0 0 c 1,0,1
EndSplineSet
EndChar

StartChar: Y
Encoding: 89 89 60
Width: 36
GlyphClass: 2
Flags: W
LayerCount: 2
Fore
SplineSet
12 0 m 1,0,1
 12 6 12 6 12 24 c 1,2,3
 11 24 11 24 8 24 c 1,4,5
 8 25 8 25 8 28 c 1,6,7
 7 28 7 28 4 28 c 1,8,9
 4 30 4 30 4 36 c 1,10,11
 3 36 3 36 0 36 c 1,12,13
 0 40 0 40 0 52 c 1,14,15
 2 52 2 52 8 52 c 1,16,17
 8 48 8 48 8 36 c 1,18,19
 9 36 9 36 12 36 c 1,20,21
 12 34 12 34 12 28 c 1,22,23
 14 28 14 28 20 28 c 1,24,25
 20 30 20 30 20 36 c 1,26,27
 21 36 21 36 24 36 c 1,28,29
 24 40 24 40 24 52 c 1,30,31
 26 52 26 52 32 52 c 1,32,33
 32 48 32 48 32 36 c 1,34,35
 31 36 31 36 28 36 c 1,36,37
 28 34 28 34 28 28 c 1,38,39
 27 28 27 28 24 28 c 1,40,41
 24 27 24 27 24 24 c 1,42,43
 23 24 23 24 20 24 c 1,44,45
 20 18 20 18 20 0 c 1,46,47
 18 0 18 0 12 0 c 1,0,1
EndSplineSet
EndChar

StartChar: Z
Encoding: 90 90 61
Width: 36
GlyphClass: 2
Flags: W
LayerCount: 2
Fore
SplineSet
0 0 m 1,0,1
 0 4 0 4 0 16 c 1,2,3
 1 16 1 16 4 16 c 1,4,5
 4 17 4 17 4 20 c 1,6,7
 5 20 5 20 8 20 c 1,8,9
 8 21 8 21 8 24 c 1,10,11
 9 24 9 24 12 24 c 1,12,13
 12 25 12 25 12 28 c 1,14,15
 13 28 13 28 16 28 c 1,16,17
 16 29 16 29 16 32 c 1,18,19
 17 32 17 32 20 32 c 1,20,21
 20 33 20 33 20 36 c 1,22,23
 21 36 21 36 24 36 c 1,24,25
 24 39 24 39 24 48 c 1,26,27
 18 48 18 48 0 48 c 1,28,29
 0 49 0 49 0 52 c 1,30,31
 8 52 8 52 32 52 c 1,32,33
 32 48 32 48 32 36 c 1,34,35
 31 36 31 36 28 36 c 1,36,37
 28 35 28 35 28 32 c 1,38,39
 27 32 27 32 24 32 c 1,40,41
 24 31 24 31 24 28 c 1,42,43
 23 28 23 28 20 28 c 1,44,45
 20 27 20 27 20 24 c 1,46,47
 19 24 19 24 16 24 c 1,48,49
 16 23 16 23 16 20 c 1,50,51
 15 20 15 20 12 20 c 1,52,53
 12 19 12 19 12 16 c 1,54,55
 11 16 11 16 8 16 c 1,56,57
 8 13 8 13 8 4 c 1,58,59
 14 4 14 4 32 4 c 1,60,61
 32 3 32 3 32 0 c 1,62,63
 24 0 24 0 0 0 c 1,0,1
EndSplineSet
EndChar

StartChar: bracketleft
Encoding: 91 91 62
Width: 24
GlyphClass: 2
Flags: W
LayerCount: 2
Fore
SplineSet
0 0 m 1,0,1
 0 13 0 13 0 52 c 1,2,3
 5 52 5 52 20 52 c 1,4,5
 20 51 20 51 20 48 c 1,6,7
 17 48 17 48 8 48 c 1,8,9
 8 37 8 37 8 4 c 1,10,11
 11 4 11 4 20 4 c 1,12,13
 20 3 20 3 20 0 c 1,14,15
 15 0 15 0 0 0 c 1,0,1
EndSplineSet
EndChar

StartChar: backslash
Encoding: 92 92 63
Width: 36
GlyphClass: 2
Flags: W
LayerCount: 2
Fore
SplineSet
24 0 m 1,0,1
 24 1 24 1 24 4 c 1,2,3
 23 4 23 4 20 4 c 1,4,5
 20 6 20 6 20 12 c 1,6,7
 19 12 19 12 16 12 c 1,8,9
 16 14 16 14 16 20 c 1,10,11
 15 20 15 20 12 20 c 1,12,13
 12 22 12 22 12 28 c 1,14,15
 11 28 11 28 8 28 c 1,16,17
 8 30 8 30 8 36 c 1,18,19
 7 36 7 36 4 36 c 1,20,21
 4 38 4 38 4 44 c 1,22,23
 3 44 3 44 0 44 c 1,24,25
 0 46 0 46 0 52 c 1,26,27
 2 52 2 52 8 52 c 1,28,29
 8 50 8 50 8 44 c 1,30,31
 9 44 9 44 12 44 c 1,32,33
 12 42 12 42 12 36 c 1,34,35
 13 36 13 36 16 36 c 1,36,37
 16 34 16 34 16 28 c 1,38,39
 17 28 17 28 20 28 c 1,40,41
 20 26 20 26 20 20 c 1,42,43
 21 20 21 20 24 20 c 1,44,45
 24 18 24 18 24 12 c 1,46,47
 25 12 25 12 28 12 c 1,48,49
 28 10 28 10 28 4 c 1,50,51
 29 4 29 4 32 4 c 1,52,53
 32 3 32 3 32 0 c 1,54,55
 30 0 30 0 24 0 c 1,0,1
EndSplineSet
EndChar

StartChar: bracketright
Encoding: 93 93 64
Width: 24
GlyphClass: 2
Flags: W
LayerCount: 2
Fore
SplineSet
0 0 m 1,0,1
 0 1 0 1 0 4 c 1,2,3
 3 4 3 4 12 4 c 1,4,5
 12 15 12 15 12 48 c 1,6,7
 9 48 9 48 0 48 c 1,8,9
 0 49 0 49 0 52 c 1,10,11
 5 52 5 52 20 52 c 1,12,13
 20 39 20 39 20 0 c 1,14,15
 15 0 15 0 0 0 c 1,0,1
EndSplineSet
EndChar

StartChar: asciicircum
Encoding: 94 94 65
Width: 36
GlyphClass: 2
Flags: W
LayerCount: 2
Fore
SplineSet
0 36 m 1,0,1
 0 37 0 37 0 40 c 1,2,3
 1 40 1 40 4 40 c 1,4,5
 4 41 4 41 4 44 c 1,6,7
 5 44 5 44 8 44 c 1,8,9
 8 45 8 45 8 48 c 1,10,11
 9 48 9 48 12 48 c 1,12,13
 12 49 12 49 12 52 c 1,14,15
 14 52 14 52 20 52 c 1,16,17
 20 51 20 51 20 48 c 1,18,19
 21 48 21 48 24 48 c 1,20,21
 24 47 24 47 24 44 c 1,22,23
 25 44 25 44 28 44 c 1,24,25
 28 43 28 43 28 40 c 1,26,27
 29 40 29 40 32 40 c 1,28,29
 32 39 32 39 32 36 c 1,30,31
 30 36 30 36 24 36 c 1,32,33
 24 37 24 37 24 40 c 1,34,35
 23 40 23 40 20 40 c 1,36,37
 20 41 20 41 20 44 c 1,38,39
 18 44 18 44 12 44 c 1,40,41
 12 43 12 43 12 40 c 1,42,43
 11 40 11 40 8 40 c 1,44,45
 8 39 8 39 8 36 c 1,46,47
 6 36 6 36 0 36 c 1,0,1
EndSplineSet
EndChar

StartChar: underscore
Encoding: 95 95 66
Width: 36
GlyphClass: 2
Flags: W
LayerCount: 2
Fore
SplineSet
0 0 m 1,0,1
 0 1 0 1 0 4 c 1,2,3
 9 4 9 4 36 4 c 1,4,5
 36 3 36 3 36 0 c 1,6,7
 27 0 27 0 0 0 c 1,0,1
EndSplineSet
EndChar

StartChar: grave
Encoding: 96 96 67
Width: 20
GlyphClass: 2
Flags: W
LayerCount: 2
Fore
SplineSet
8 40 m 1,0,1
 8 41 8 41 8 44 c 1,2,3
 7 44 7 44 4 44 c 1,4,5
 4 45 4 45 4 48 c 1,6,7
 3 48 3 48 0 48 c 1,8,9
 0 49 0 49 0 52 c 1,10,11
 2 52 2 52 8 52 c 1,12,13
 8 51 8 51 8 48 c 1,14,15
 9 48 9 48 12 48 c 1,16,17
 12 47 12 47 12 44 c 1,18,19
 13 44 13 44 16 44 c 1,20,21
 16 43 16 43 16 40 c 1,22,23
 14 40 14 40 8 40 c 1,0,1
EndSplineSet
EndChar

StartChar: a
Encoding: 97 97 68
Width: 35
GlyphClass: 2
Flags: W
LayerCount: 2
Fore
SplineSet
20 4 m 1,0,1
 20 5 20 5 20 8 c 1,2,3
 21 8 21 8 24 8 c 1,4,5
 24 11 24 11 24 20 c 1,6,7
 21 20 21 20 12 20 c 1,8,9
 12 19 12 19 12 16 c 1,10,11
 11 16 11 16 8 16 c 1,12,13
 8 13 8 13 8 4 c 1,14,15
 11 4 11 4 20 4 c 1,0,1
4 0 m 1,16,17
 4 1 4 1 4 4 c 1,18,19
 3 4 3 4 0 4 c 1,20,21
 0 7 0 7 0 16 c 1,22,23
 1 16 1 16 4 16 c 1,24,25
 4 17 4 17 4 20 c 1,26,27
 5 20 5 20 8 20 c 1,28,29
 8 21 8 21 8 24 c 1,30,31
 12 24 12 24 24 24 c 1,32,33
 24 27 24 27 24 36 c 1,34,35
 21 36 21 36 12 36 c 1,36,37
 12 35 12 35 12 32 c 1,38,39
 11 32 11 32 8 32 c 1,40,41
 8 31 8 31 8 28 c 1,42,43
 6 28 6 28 0 28 c 1,44,45
 0 29 0 29 0 32 c 1,46,47
 1 32 1 32 4 32 c 1,48,49
 4 33 4 33 4 36 c 1,50,51
 5 36 5 36 8 36 c 1,52,53
 8 37 8 37 8 40 c 1,54,55
 13 40 13 40 28 40 c 1,56,57
 28 39 28 39 28 36 c 1,58,59
 29 36 29 36 32 36 c 1,60,61
 32 27 32 27 32 0 c 1,62,63
 25 0 25 0 4 0 c 1,16,17
EndSplineSet
EndChar

StartChar: b
Encoding: 98 98 69
Width: 36
GlyphClass: 2
Flags: W
LayerCount: 2
Fore
SplineSet
20 4 m 1,0,1
 20 5 20 5 20 8 c 1,2,3
 21 8 21 8 24 8 c 1,4,5
 24 14 24 14 24 32 c 1,6,7
 23 32 23 32 20 32 c 1,8,9
 20 33 20 33 20 36 c 1,10,11
 18 36 18 36 12 36 c 1,12,13
 12 35 12 35 12 32 c 1,14,15
 11 32 11 32 8 32 c 1,16,17
 8 26 8 26 8 8 c 1,18,19
 9 8 9 8 12 8 c 1,20,21
 12 7 12 7 12 4 c 1,22,23
 14 4 14 4 20 4 c 1,0,1
0 0 m 1,24,25
 0 13 0 13 0 52 c 1,26,27
 2 52 2 52 8 52 c 1,28,29
 8 49 8 49 8 40 c 1,30,31
 12 40 12 40 24 40 c 1,32,33
 24 39 24 39 24 36 c 1,34,35
 25 36 25 36 28 36 c 1,36,37
 28 35 28 35 28 32 c 1,38,39
 29 32 29 32 32 32 c 1,40,41
 32 26 32 26 32 8 c 1,42,43
 31 8 31 8 28 8 c 1,44,45
 28 7 28 7 28 4 c 1,46,47
 27 4 27 4 24 4 c 1,48,49
 24 3 24 3 24 0 c 1,50,51
 18 0 18 0 0 0 c 1,24,25
EndSplineSet
EndChar

StartChar: c
Encoding: 99 99 70
Width: 36
GlyphClass: 2
Flags: W
LayerCount: 2
Fore
SplineSet
8 0 m 1,0,1
 8 1 8 1 8 4 c 1,2,3
 7 4 7 4 4 4 c 1,4,5
 4 5 4 5 4 8 c 1,6,7
 3 8 3 8 0 8 c 1,8,9
 0 14 0 14 0 32 c 1,10,11
 1 32 1 32 4 32 c 1,12,13
 4 33 4 33 4 36 c 1,14,15
 5 36 5 36 8 36 c 1,16,17
 8 37 8 37 8 40 c 1,18,19
 12 40 12 40 24 40 c 1,20,21
 24 39 24 39 24 36 c 1,22,23
 25 36 25 36 28 36 c 1,24,25
 28 35 28 35 28 32 c 1,26,27
 29 32 29 32 32 32 c 1,28,29
 32 31 32 31 32 28 c 1,30,31
 30 28 30 28 24 28 c 1,32,33
 24 29 24 29 24 32 c 1,34,35
 23 32 23 32 20 32 c 1,36,37
 20 33 20 33 20 36 c 1,38,39
 18 36 18 36 12 36 c 1,40,41
 12 35 12 35 12 32 c 1,42,43
 11 32 11 32 8 32 c 1,44,45
 8 26 8 26 8 8 c 1,46,47
 9 8 9 8 12 8 c 1,48,49
 12 7 12 7 12 4 c 1,50,51
 14 4 14 4 20 4 c 1,52,53
 20 5 20 5 20 8 c 1,54,55
 21 8 21 8 24 8 c 1,56,57
 24 9 24 9 24 12 c 1,58,59
 26 12 26 12 32 12 c 1,60,61
 32 11 32 11 32 8 c 1,62,63
 31 8 31 8 28 8 c 1,64,65
 28 7 28 7 28 4 c 1,66,67
 27 4 27 4 24 4 c 1,68,69
 24 3 24 3 24 0 c 1,70,71
 20 0 20 0 8 0 c 1,0,1
EndSplineSet
EndChar

StartChar: d
Encoding: 100 100 71
Width: 36
GlyphClass: 2
Flags: W
LayerCount: 2
Fore
SplineSet
20 4 m 1,0,1
 20 5 20 5 20 8 c 1,2,3
 21 8 21 8 24 8 c 1,4,5
 24 14 24 14 24 32 c 1,6,7
 23 32 23 32 20 32 c 1,8,9
 20 33 20 33 20 36 c 1,10,11
 18 36 18 36 12 36 c 1,12,13
 12 35 12 35 12 32 c 1,14,15
 11 32 11 32 8 32 c 1,16,17
 8 26 8 26 8 8 c 1,18,19
 9 8 9 8 12 8 c 1,20,21
 12 7 12 7 12 4 c 1,22,23
 14 4 14 4 20 4 c 1,0,1
8 0 m 1,24,25
 8 1 8 1 8 4 c 1,26,27
 7 4 7 4 4 4 c 1,28,29
 4 5 4 5 4 8 c 1,30,31
 3 8 3 8 0 8 c 1,32,33
 0 14 0 14 0 32 c 1,34,35
 1 32 1 32 4 32 c 1,36,37
 4 33 4 33 4 36 c 1,38,39
 5 36 5 36 8 36 c 1,40,41
 8 37 8 37 8 40 c 1,42,43
 12 40 12 40 24 40 c 1,44,45
 24 43 24 43 24 52 c 1,46,47
 26 52 26 52 32 52 c 1,48,49
 32 39 32 39 32 0 c 1,50,51
 26 0 26 0 8 0 c 1,24,25
EndSplineSet
EndChar

StartChar: e
Encoding: 101 101 72
Width: 36
GlyphClass: 2
Flags: W
LayerCount: 2
Fore
SplineSet
24 24 m 1,0,1
 24 26 24 26 24 32 c 1,2,3
 23 32 23 32 20 32 c 1,4,5
 20 33 20 33 20 36 c 1,6,7
 18 36 18 36 12 36 c 1,8,9
 12 35 12 35 12 32 c 1,10,11
 11 32 11 32 8 32 c 1,12,13
 8 30 8 30 8 24 c 1,14,15
 12 24 12 24 24 24 c 1,0,1
8 0 m 1,16,17
 8 1 8 1 8 4 c 1,18,19
 7 4 7 4 4 4 c 1,20,21
 4 5 4 5 4 8 c 1,22,23
 3 8 3 8 0 8 c 1,24,25
 0 14 0 14 0 32 c 1,26,27
 1 32 1 32 4 32 c 1,28,29
 4 33 4 33 4 36 c 1,30,31
 5 36 5 36 8 36 c 1,32,33
 8 37 8 37 8 40 c 1,34,35
 12 40 12 40 24 40 c 1,36,37
 24 39 24 39 24 36 c 1,38,39
 25 36 25 36 28 36 c 1,40,41
 28 35 28 35 28 32 c 1,42,43
 29 32 29 32 32 32 c 1,44,45
 32 29 32 29 32 20 c 1,46,47
 26 20 26 20 8 20 c 1,48,49
 8 17 8 17 8 8 c 1,50,51
 9 8 9 8 12 8 c 1,52,53
 12 7 12 7 12 4 c 1,54,55
 14 4 14 4 20 4 c 1,56,57
 20 5 20 5 20 8 c 1,58,59
 21 8 21 8 24 8 c 1,60,61
 24 9 24 9 24 12 c 1,62,63
 26 12 26 12 32 12 c 1,64,65
 32 11 32 11 32 8 c 1,66,67
 31 8 31 8 28 8 c 1,68,69
 28 7 28 7 28 4 c 1,70,71
 27 4 27 4 24 4 c 1,72,73
 24 3 24 3 24 0 c 1,74,75
 20 0 20 0 8 0 c 1,16,17
EndSplineSet
EndChar

StartChar: f
Encoding: 102 102 73
Width: 32
GlyphClass: 2
Flags: W
LayerCount: 2
Fore
SplineSet
8 0 m 1,0,1
 8 7 8 7 8 28 c 1,2,3
 6 28 6 28 0 28 c 1,4,5
 0 29 0 29 0 32 c 1,6,7
 2 32 2 32 8 32 c 1,8,9
 8 36 8 36 8 48 c 1,10,11
 9 48 9 48 12 48 c 1,12,13
 12 49 12 49 12 52 c 1,14,15
 16 52 16 52 28 52 c 1,16,17
 28 51 28 51 28 48 c 1,18,19
 25 48 25 48 16 48 c 1,20,21
 16 44 16 44 16 32 c 1,22,23
 19 32 19 32 28 32 c 1,24,25
 28 31 28 31 28 28 c 1,26,27
 25 28 25 28 16 28 c 1,28,29
 16 21 16 21 16 0 c 1,30,31
 14 0 14 0 8 0 c 1,0,1
EndSplineSet
EndChar

StartChar: g
Encoding: 103 103 74
Width: 36
GlyphClass: 2
Flags: W
LayerCount: 2
Fore
SplineSet
20 12 m 1,0,1
 20 13 20 13 20 16 c 1,2,3
 21 16 21 16 24 16 c 1,4,5
 24 20 24 20 24 32 c 1,6,7
 23 32 23 32 20 32 c 1,8,9
 20 33 20 33 20 36 c 1,10,11
 18 36 18 36 12 36 c 1,12,13
 12 35 12 35 12 32 c 1,14,15
 11 32 11 32 8 32 c 1,16,17
 8 28 8 28 8 16 c 1,18,19
 9 16 9 16 12 16 c 1,20,21
 12 15 12 15 12 12 c 1,22,23
 14 12 14 12 20 12 c 1,0,1
8 -12 m 1,24,25
 8 -11 8 -11 8 -8 c 1,26,27
 7 -8 7 -8 4 -8 c 1,28,29
 4 -7 4 -7 4 -4 c 1,30,31
 3 -4 3 -4 0 -4 c 1,32,33
 0 -3 0 -3 0 0 c 1,34,35
 2 0 2 0 8 0 c 1,36,37
 8 -1 8 -1 8 -4 c 1,38,39
 9 -4 9 -4 12 -4 c 1,40,41
 12 -5 12 -5 12 -8 c 1,42,43
 14 -8 14 -8 20 -8 c 1,44,45
 20 -7 20 -7 20 -4 c 1,46,47
 21 -4 21 -4 24 -4 c 1,48,49
 24 -1 24 -1 24 8 c 1,50,51
 20 8 20 8 8 8 c 1,52,53
 8 9 8 9 8 12 c 1,54,55
 7 12 7 12 4 12 c 1,56,57
 4 13 4 13 4 16 c 1,58,59
 3 16 3 16 0 16 c 1,60,61
 0 20 0 20 0 32 c 1,62,63
 1 32 1 32 4 32 c 1,64,65
 4 33 4 33 4 36 c 1,66,67
 5 36 5 36 8 36 c 1,68,69
 8 37 8 37 8 40 c 1,70,71
 14 40 14 40 32 40 c 1,72,73
 32 29 32 29 32 -4 c 1,74,75
 31 -4 31 -4 28 -4 c 1,76,77
 28 -5 28 -5 28 -8 c 1,78,79
 27 -8 27 -8 24 -8 c 1,80,81
 24 -9 24 -9 24 -12 c 1,82,83
 20 -12 20 -12 8 -12 c 1,24,25
EndSplineSet
EndChar

StartChar: h
Encoding: 104 104 75
Width: 36
GlyphClass: 2
Flags: W
LayerCount: 2
Fore
SplineSet
0 0 m 1,0,1
 0 13 0 13 0 52 c 1,2,3
 2 52 2 52 8 52 c 1,4,5
 8 49 8 49 8 40 c 1,6,7
 12 40 12 40 24 40 c 1,8,9
 24 39 24 39 24 36 c 1,10,11
 25 36 25 36 28 36 c 1,12,13
 28 35 28 35 28 32 c 1,14,15
 29 32 29 32 32 32 c 1,16,17
 32 24 32 24 32 0 c 1,18,19
 30 0 30 0 24 0 c 1,20,21
 24 8 24 8 24 32 c 1,22,23
 23 32 23 32 20 32 c 1,24,25
 20 33 20 33 20 36 c 1,26,27
 18 36 18 36 12 36 c 1,28,29
 12 35 12 35 12 32 c 1,30,31
 11 32 11 32 8 32 c 1,32,33
 8 24 8 24 8 0 c 1,34,35
 6 0 6 0 0 0 c 1,0,1
EndSplineSet
EndChar

StartChar: i
Encoding: 105 105 76
Width: 12
GlyphClass: 2
Flags: W
LayerCount: 2
Fore
SplineSet
0 0 m 1,0,1
 0 10 0 10 0 40 c 1,2,3
 2 40 2 40 8 40 c 1,4,5
 8 30 8 30 8 0 c 1,6,7
 6 0 6 0 0 0 c 1,0,1
0 48 m 1,8,9
 0 49 0 49 0 52 c 1,10,11
 2 52 2 52 8 52 c 1,12,13
 8 51 8 51 8 48 c 1,14,15
 6 48 6 48 0 48 c 1,8,9
EndSplineSet
EndChar

StartChar: j
Encoding: 106 106 77
Width: 16
GlyphClass: 2
Flags: W
LayerCount: 2
Fore
SplineSet
-4 -12 m 1,0,1
 -4 -11 -4 -11 -4 -8 c 1,2,3
 -5 -8 -5 -8 -8 -8 c 1,4,5
 -8 -7 -8 -7 -8 -4 c 1,6,7
 -6 -4 -6 -4 0 -4 c 1,8,9
 0 -5 0 -5 0 -8 c 1,10,11
 1 -8 1 -8 4 -8 c 1,12,13
 4 4 4 4 4 40 c 1,14,15
 6 40 6 40 12 40 c 1,16,17
 12 28 12 28 12 -8 c 1,18,19
 11 -8 11 -8 8 -8 c 1,20,21
 8 -9 8 -9 8 -12 c 1,22,23
 5 -12 5 -12 -4 -12 c 1,0,1
4 48 m 1,24,25
 4 49 4 49 4 52 c 1,26,27
 6 52 6 52 12 52 c 1,28,29
 12 51 12 51 12 48 c 1,30,31
 10 48 10 48 4 48 c 1,24,25
EndSplineSet
EndChar

StartChar: k
Encoding: 107 107 78
Width: 36
GlyphClass: 2
Flags: W
LayerCount: 2
Fore
SplineSet
0 0 m 1,0,1
 0 13 0 13 0 52 c 1,2,3
 2 52 2 52 8 52 c 1,4,5
 8 45 8 45 8 24 c 1,6,7
 9 24 9 24 12 24 c 1,8,9
 12 25 12 25 12 28 c 1,10,11
 13 28 13 28 16 28 c 1,12,13
 16 29 16 29 16 32 c 1,14,15
 17 32 17 32 20 32 c 1,16,17
 20 33 20 33 20 36 c 1,18,19
 21 36 21 36 24 36 c 1,20,21
 24 37 24 37 24 40 c 1,22,23
 26 40 26 40 32 40 c 1,24,25
 32 39 32 39 32 36 c 1,26,27
 31 36 31 36 28 36 c 1,28,29
 28 35 28 35 28 32 c 1,30,31
 27 32 27 32 24 32 c 1,32,33
 24 31 24 31 24 28 c 1,34,35
 23 28 23 28 20 28 c 1,36,37
 20 27 20 27 20 24 c 1,38,39
 19 24 19 24 16 24 c 1,40,41
 16 23 16 23 16 20 c 1,42,43
 17 20 17 20 20 20 c 1,44,45
 20 19 20 19 20 16 c 1,46,47
 21 16 21 16 24 16 c 1,48,49
 24 15 24 15 24 12 c 1,50,51
 25 12 25 12 28 12 c 1,52,53
 28 11 28 11 28 8 c 1,54,55
 29 8 29 8 32 8 c 1,56,57
 32 6 32 6 32 0 c 1,58,59
 30 0 30 0 24 0 c 1,60,61
 24 2 24 2 24 8 c 1,62,63
 23 8 23 8 20 8 c 1,64,65
 20 9 20 9 20 12 c 1,66,67
 19 12 19 12 16 12 c 1,68,69
 16 13 16 13 16 16 c 1,70,71
 15 16 15 16 12 16 c 1,72,73
 12 17 12 17 12 20 c 1,74,75
 11 20 11 20 8 20 c 1,76,77
 8 15 8 15 8 0 c 1,78,79
 6 0 6 0 0 0 c 1,0,1
EndSplineSet
EndChar

StartChar: l
Encoding: 108 108 79
Width: 20
GlyphClass: 2
Flags: W
LayerCount: 2
Fore
SplineSet
4 0 m 1,0,1
 4 1 4 1 4 4 c 1,2,3
 3 4 3 4 0 4 c 1,4,5
 0 12 0 12 0 23 c 256,6,7
 0 34 0 34 0 52 c 1,8,9
 3 52 3 52 8 52 c 1,10,11
 8 40 8 40 8 4 c 1,12,13
 10 4 10 4 16 4 c 1,14,15
 16 3 16 3 16 0 c 1,16,17
 13 0 13 0 4 0 c 1,0,1
EndSplineSet
EndChar

StartChar: m
Encoding: 109 109 80
Width: 52
GlyphClass: 2
Flags: W
LayerCount: 2
Fore
SplineSet
0 0 m 1,0,1
 0 10 0 10 0 40 c 1,2,3
 5 40 5 40 20 40 c 1,4,5
 20 39 20 39 20 36 c 1,6,7
 22 36 22 36 28 36 c 1,8,9
 28 37 28 37 28 40 c 1,10,11
 31 40 31 40 40 40 c 1,12,13
 40 39 40 39 40 36 c 1,14,15
 41 36 41 36 44 36 c 1,16,17
 44 35 44 35 44 32 c 1,18,19
 45 32 45 32 48 32 c 1,20,21
 48 24 48 24 48 0 c 1,22,23
 46 0 46 0 40 0 c 1,24,25
 40 8 40 8 40 32 c 1,26,27
 39 32 39 32 36 32 c 1,28,29
 36 33 36 33 36 36 c 1,30,31
 35 36 35 36 32 36 c 1,32,33
 32 35 32 35 32 32 c 1,34,35
 31 32 31 32 28 32 c 1,36,37
 28 27 28 27 28 12 c 1,38,39
 26 12 26 12 20 12 c 1,40,41
 20 17 20 17 20 32 c 1,42,43
 19 32 19 32 16 32 c 1,44,45
 16 33 16 33 16 36 c 1,46,47
 15 36 15 36 12 36 c 1,48,49
 12 35 12 35 12 32 c 1,50,51
 11 32 11 32 8 32 c 1,52,53
 8 24 8 24 8 0 c 1,54,55
 6 0 6 0 0 0 c 1,0,1
EndSplineSet
EndChar

StartChar: n
Encoding: 110 110 81
Width: 36
GlyphClass: 2
Flags: W
LayerCount: 2
Fore
SplineSet
0 0 m 1,0,1
 0 10 0 10 0 40 c 1,2,3
 6 40 6 40 24 40 c 1,4,5
 24 39 24 39 24 36 c 1,6,7
 25 36 25 36 28 36 c 1,8,9
 28 35 28 35 28 32 c 1,10,11
 29 32 29 32 32 32 c 1,12,13
 32 24 32 24 32 0 c 1,14,15
 30 0 30 0 24 0 c 1,16,17
 24 8 24 8 24 32 c 1,18,19
 23 32 23 32 20 32 c 1,20,21
 20 33 20 33 20 36 c 1,22,23
 18 36 18 36 12 36 c 1,24,25
 12 35 12 35 12 32 c 1,26,27
 11 32 11 32 8 32 c 1,28,29
 8 24 8 24 8 0 c 1,30,31
 6 0 6 0 0 0 c 1,0,1
EndSplineSet
EndChar

StartChar: o
Encoding: 111 111 82
Width: 36
GlyphClass: 2
Flags: W
LayerCount: 2
Fore
SplineSet
20 4 m 1,0,1
 20 5 20 5 20 8 c 1,2,3
 21 8 21 8 24 8 c 1,4,5
 24 14 24 14 24 32 c 1,6,7
 23 32 23 32 20 32 c 1,8,9
 20 33 20 33 20 36 c 1,10,11
 18 36 18 36 12 36 c 1,12,13
 12 35 12 35 12 32 c 1,14,15
 11 32 11 32 8 32 c 1,16,17
 8 26 8 26 8 8 c 1,18,19
 9 8 9 8 12 8 c 1,20,21
 12 7 12 7 12 4 c 1,22,23
 14 4 14 4 20 4 c 1,0,1
8 0 m 1,24,25
 8 1 8 1 8 4 c 1,26,27
 7 4 7 4 4 4 c 1,28,29
 4 5 4 5 4 8 c 1,30,31
 3 8 3 8 0 8 c 1,32,33
 0 14 0 14 0 32 c 1,34,35
 1 32 1 32 4 32 c 1,36,37
 4 33 4 33 4 36 c 1,38,39
 5 36 5 36 8 36 c 1,40,41
 8 37 8 37 8 40 c 1,42,43
 12 40 12 40 24 40 c 1,44,45
 24 39 24 39 24 36 c 1,46,47
 25 36 25 36 28 36 c 1,48,49
 28 35 28 35 28 32 c 1,50,51
 29 32 29 32 32 32 c 1,52,53
 32 26 32 26 32 8 c 1,54,55
 31 8 31 8 28 8 c 1,56,57
 28 7 28 7 28 4 c 1,58,59
 27 4 27 4 24 4 c 1,60,61
 24 3 24 3 24 0 c 1,62,63
 20 0 20 0 8 0 c 1,24,25
EndSplineSet
EndChar

StartChar: p
Encoding: 112 112 83
Width: 36
GlyphClass: 2
Flags: W
LayerCount: 2
Fore
SplineSet
20 4 m 1,0,1
 20 5 20 5 20 8 c 1,2,3
 21 8 21 8 24 8 c 1,4,5
 24 14 24 14 24 32 c 1,6,7
 23 32 23 32 20 32 c 1,8,9
 20 33 20 33 20 36 c 1,10,11
 18 36 18 36 12 36 c 1,12,13
 12 35 12 35 12 32 c 1,14,15
 11 32 11 32 8 32 c 1,16,17
 8 26 8 26 8 8 c 1,18,19
 9 8 9 8 12 8 c 1,20,21
 12 7 12 7 12 4 c 1,22,23
 14 4 14 4 20 4 c 1,0,1
0 -12 m 1,24,25
 0 1 0 1 0 40 c 1,26,27
 6 40 6 40 24 40 c 1,28,29
 24 39 24 39 24 36 c 1,30,31
 25 36 25 36 28 36 c 1,32,33
 28 35 28 35 28 32 c 1,34,35
 29 32 29 32 32 32 c 1,36,37
 32 26 32 26 32 8 c 1,38,39
 31 8 31 8 28 8 c 1,40,41
 28 7 28 7 28 4 c 1,42,43
 27 4 27 4 24 4 c 1,44,45
 24 3 24 3 24 0 c 1,46,47
 20 0 20 0 8 0 c 1,48,49
 8 -3 8 -3 8 -12 c 1,50,51
 6 -12 6 -12 0 -12 c 1,24,25
EndSplineSet
EndChar

StartChar: q
Encoding: 113 113 84
Width: 36
GlyphClass: 2
Flags: W
LayerCount: 2
Fore
SplineSet
20 4 m 1,0,1
 20 5 20 5 20 8 c 1,2,3
 21 8 21 8 24 8 c 1,4,5
 24 14 24 14 24 32 c 1,6,7
 23 32 23 32 20 32 c 1,8,9
 20 33 20 33 20 36 c 1,10,11
 18 36 18 36 12 36 c 1,12,13
 12 35 12 35 12 32 c 1,14,15
 11 32 11 32 8 32 c 1,16,17
 8 26 8 26 8 8 c 1,18,19
 9 8 9 8 12 8 c 1,20,21
 12 7 12 7 12 4 c 1,22,23
 14 4 14 4 20 4 c 1,0,1
24 -12 m 1,24,25
 24 -9 24 -9 24 0 c 1,26,27
 20 0 20 0 8 0 c 1,28,29
 8 1 8 1 8 4 c 1,30,31
 7 4 7 4 4 4 c 1,32,33
 4 5 4 5 4 8 c 1,34,35
 3 8 3 8 0 8 c 1,36,37
 0 14 0 14 0 32 c 1,38,39
 1 32 1 32 4 32 c 1,40,41
 4 33 4 33 4 36 c 1,42,43
 5 36 5 36 8 36 c 1,44,45
 8 37 8 37 8 40 c 1,46,47
 14 40 14 40 32 40 c 1,48,49
 32 27 32 27 32 -12 c 1,50,51
 30 -12 30 -12 24 -12 c 1,24,25
EndSplineSet
EndChar

StartChar: r
Encoding: 114 114 85
Width: 28
GlyphClass: 2
Flags: W
LayerCount: 2
Fore
SplineSet
0 0 m 1,0,1
 0 10 0 10 0 40 c 1,2,3
 2 40 2 40 8 40 c 1,4,5
 8 39 8 39 8 36 c 1,6,7
 9 36 9 36 12 36 c 1,8,9
 12 37 12 37 12 40 c 1,10,11
 15 40 15 40 24 40 c 1,12,13
 24 39 24 39 24 36 c 1,14,15
 22 36 22 36 16 36 c 1,16,17
 16 35 16 35 16 32 c 1,18,19
 15 32 15 32 12 32 c 1,20,21
 12 31 12 31 12 28 c 1,22,23
 11 28 11 28 8 28 c 1,24,25
 8 21 8 21 8 0 c 1,26,27
 6 0 6 0 0 0 c 1,0,1
EndSplineSet
EndChar

StartChar: s
Encoding: 115 115 86
Width: 36
GlyphClass: 2
Flags: W
LayerCount: 2
Fore
SplineSet
8 0 m 1,0,1
 8 1 8 1 8 4 c 1,2,3
 7 4 7 4 4 4 c 1,4,5
 4 5 4 5 4 8 c 1,6,7
 3 8 3 8 0 8 c 1,8,9
 0 9 0 9 0 12 c 1,10,11
 2 12 2 12 8 12 c 1,12,13
 8 11 8 11 8 8 c 1,14,15
 9 8 9 8 12 8 c 1,16,17
 12 7 12 7 12 4 c 1,18,19
 14 4 14 4 20 4 c 1,20,21
 20 5 20 5 20 8 c 1,22,23
 21 8 21 8 24 8 c 1,24,25
 24 10 24 10 24 16 c 1,26,27
 23 16 23 16 20 16 c 1,28,29
 20 17 20 17 20 20 c 1,30,31
 17 20 17 20 8 20 c 1,32,33
 8 21 8 21 8 24 c 1,34,35
 7 24 7 24 4 24 c 1,36,37
 4 25 4 25 4 28 c 1,38,39
 3 28 3 28 0 28 c 1,40,41
 0 29 0 29 0 32 c 1,42,43
 1 32 1 32 4 32 c 1,44,45
 4 33 4 33 4 36 c 1,46,47
 5 36 5 36 8 36 c 1,48,49
 8 37 8 37 8 40 c 1,50,51
 12 40 12 40 24 40 c 1,52,53
 24 39 24 39 24 36 c 1,54,55
 25 36 25 36 28 36 c 1,56,57
 28 35 28 35 28 32 c 1,58,59
 29 32 29 32 32 32 c 1,60,61
 32 31 32 31 32 28 c 1,62,63
 30 28 30 28 24 28 c 1,64,65
 24 29 24 29 24 32 c 1,66,67
 23 32 23 32 20 32 c 1,68,69
 20 33 20 33 20 36 c 1,70,71
 18 36 18 36 12 36 c 1,72,73
 12 35 12 35 12 32 c 1,74,75
 11 32 11 32 8 32 c 1,76,77
 8 31 8 31 8 28 c 1,78,79
 9 28 9 28 12 28 c 1,80,81
 12 27 12 27 12 24 c 1,82,83
 15 24 15 24 24 24 c 1,84,85
 24 23 24 23 24 20 c 1,86,87
 25 20 25 20 28 20 c 1,88,89
 28 19 28 19 28 16 c 1,90,91
 29 16 29 16 32 16 c 1,92,93
 32 14 32 14 32 8 c 1,94,95
 31 8 31 8 28 8 c 1,96,97
 28 7 28 7 28 4 c 1,98,99
 27 4 27 4 24 4 c 1,100,101
 24 3 24 3 24 0 c 1,102,103
 20 0 20 0 8 0 c 1,0,1
EndSplineSet
EndChar

StartChar: t
Encoding: 116 116 87
Width: 32
GlyphClass: 2
Flags: W
LayerCount: 2
Fore
SplineSet
8 0 m 1,0,1
 8 1 8 1 8 4 c 1,2,3
 7 4 7 4 4 4 c 1,4,5
 4 12 4 12 4 36 c 1,6,7
 2 36 2 36 -4 36 c 1,8,9
 -4 37 -4 37 -4 40 c 1,10,11
 -2 40 -2 40 4 40 c 1,12,13
 4 43 4 43 4 52 c 1,14,15
 6 52 6 52 12 52 c 1,16,17
 12 49 12 49 12 40 c 1,18,19
 16 40 16 40 28 40 c 1,20,21
 28 39 28 39 28 36 c 1,22,23
 24 36 24 36 12 36 c 1,24,25
 12 28 12 28 12 4 c 1,26,27
 16 4 16 4 28 4 c 1,28,29
 28 3 28 3 28 0 c 1,30,31
 23 0 23 0 8 0 c 1,0,1
EndSplineSet
EndChar

StartChar: u
Encoding: 117 117 88
Width: 36
GlyphClass: 2
Flags: W
LayerCount: 2
Fore
SplineSet
8 0 m 1,0,1
 8 1 8 1 8 4 c 1,2,3
 7 4 7 4 4 4 c 1,4,5
 4 5 4 5 4 8 c 1,6,7
 3 8 3 8 0 8 c 1,8,9
 0 16 0 16 0 40 c 1,10,11
 2 40 2 40 8 40 c 1,12,13
 8 32 8 32 8 8 c 1,14,15
 9 8 9 8 12 8 c 1,16,17
 12 7 12 7 12 4 c 1,18,19
 14 4 14 4 20 4 c 1,20,21
 20 5 20 5 20 8 c 1,22,23
 21 8 21 8 24 8 c 1,24,25
 24 16 24 16 24 40 c 1,26,27
 26 40 26 40 32 40 c 1,28,29
 32 32 32 32 32 8 c 1,30,31
 31 8 31 8 28 8 c 1,32,33
 28 7 28 7 28 4 c 1,34,35
 27 4 27 4 24 4 c 1,36,37
 24 3 24 3 24 0 c 1,38,39
 20 0 20 0 8 0 c 1,0,1
EndSplineSet
EndChar

StartChar: v
Encoding: 118 118 89
Width: 36
GlyphClass: 2
Flags: W
LayerCount: 2
Fore
SplineSet
12 0 m 1,0,1
 12 1 12 1 12 4 c 1,2,3
 11 4 11 4 8 4 c 1,4,5
 8 6 8 6 8 12 c 1,6,7
 7 12 7 12 4 12 c 1,8,9
 4 14 4 14 4 20 c 1,10,11
 3 20 3 20 0 20 c 1,12,13
 0 25 0 25 0 40 c 1,14,15
 2 40 2 40 8 40 c 1,16,17
 8 35 8 35 8 20 c 1,18,19
 9 20 9 20 12 20 c 1,20,21
 12 18 12 18 12 12 c 1,22,23
 14 12 14 12 20 12 c 1,24,25
 20 14 20 14 20 20 c 1,26,27
 21 20 21 20 24 20 c 1,28,29
 24 25 24 25 24 40 c 1,30,31
 26 40 26 40 32 40 c 1,32,33
 32 35 32 35 32 20 c 1,34,35
 31 20 31 20 28 20 c 1,36,37
 28 18 28 18 28 12 c 1,38,39
 27 12 27 12 24 12 c 1,40,41
 24 10 24 10 24 4 c 1,42,43
 23 4 23 4 20 4 c 1,44,45
 20 3 20 3 20 0 c 1,46,47
 18 0 18 0 12 0 c 1,0,1
EndSplineSet
EndChar

StartChar: w
Encoding: 119 119 90
Width: 52
GlyphClass: 2
Flags: W
LayerCount: 2
Fore
SplineSet
8 0 m 1,0,1
 8 1 8 1 8 4 c 1,2,3
 7 4 7 4 4 4 c 1,4,5
 4 6 4 6 4 12 c 1,6,7
 3 12 3 12 0 12 c 1,8,9
 0 19 0 19 0 40 c 1,10,11
 2 40 2 40 8 40 c 1,12,13
 8 33 8 33 8 12 c 1,14,15
 9 12 9 12 12 12 c 1,16,17
 12 10 12 10 12 4 c 1,18,19
 13 4 13 4 16 4 c 1,20,21
 16 6 16 6 16 12 c 1,22,23
 17 12 17 12 20 12 c 1,24,25
 20 17 20 17 20 32 c 1,26,27
 22 32 22 32 28 32 c 1,28,29
 28 27 28 27 28 12 c 1,30,31
 29 12 29 12 32 12 c 1,32,33
 32 10 32 10 32 4 c 1,34,35
 33 4 33 4 36 4 c 1,36,37
 36 6 36 6 36 12 c 1,38,39
 37 12 37 12 40 12 c 1,40,41
 40 19 40 19 40 40 c 1,42,43
 42 40 42 40 48 40 c 1,44,45
 48 33 48 33 48 12 c 1,46,47
 47 12 47 12 44 12 c 1,48,49
 44 10 44 10 44 4 c 1,50,51
 43 4 43 4 40 4 c 1,52,53
 40 3 40 3 40 0 c 1,54,55
 37 0 37 0 28 0 c 1,56,57
 28 1 28 1 28 4 c 1,58,59
 26 4 26 4 20 4 c 1,60,61
 20 3 20 3 20 0 c 1,62,63
 17 0 17 0 8 0 c 1,0,1
EndSplineSet
EndChar

StartChar: x
Encoding: 120 120 91
Width: 36
GlyphClass: 2
Flags: W
LayerCount: 2
Fore
SplineSet
0 0 m 1,0,1
 0 2 0 2 0 8 c 1,2,3
 1 8 1 8 4 8 c 1,4,5
 4 10 4 10 4 16 c 1,6,7
 5 16 5 16 8 16 c 1,8,9
 8 17 8 17 8 20 c 1,10,11
 9 20 9 20 12 20 c 1,12,13
 12 21 12 21 12 24 c 1,14,15
 11 24 11 24 8 24 c 1,16,17
 8 25 8 25 8 28 c 1,18,19
 7 28 7 28 4 28 c 1,20,21
 4 29 4 29 4 32 c 1,22,23
 3 32 3 32 0 32 c 1,24,25
 0 34 0 34 0 36 c 256,26,27
 0 38 0 38 0 40 c 1,28,29
 3 40 3 40 8 40 c 1,30,31
 8 38 8 38 8 36 c 256,32,33
 8 34 8 34 8 32 c 1,34,35
 9 32 9 32 12 32 c 1,36,37
 12 31 12 31 12 28 c 1,38,39
 14 28 14 28 20 28 c 1,40,41
 20 29 20 29 20 32 c 1,42,43
 21 32 21 32 24 32 c 1,44,45
 24 34 24 34 24 36 c 256,46,47
 24 38 24 38 24 40 c 1,48,49
 27 40 27 40 32 40 c 1,50,51
 32 38 32 38 32 36 c 256,52,53
 32 34 32 34 32 32 c 1,54,55
 31 32 31 32 28 32 c 1,56,57
 28 31 28 31 28 28 c 1,58,59
 27 28 27 28 24 28 c 1,60,61
 24 27 24 27 24 24 c 1,62,63
 23 24 23 24 20 24 c 1,64,65
 20 23 20 23 20 20 c 1,66,67
 21 20 21 20 24 20 c 1,68,69
 24 19 24 19 24 16 c 1,70,71
 25 16 25 16 28 16 c 1,72,73
 28 14 28 14 28 8 c 1,74,75
 29 8 29 8 32 8 c 1,76,77
 32 6 32 6 32 0 c 1,78,79
 30 0 30 0 24 0 c 1,80,81
 24 2 24 2 24 8 c 1,82,83
 23 8 23 8 20 8 c 1,84,85
 20 10 20 10 20 16 c 1,86,87
 18 16 18 16 12 16 c 1,88,89
 12 14 12 14 12 8 c 1,90,91
 11 8 11 8 8 8 c 1,92,93
 8 6 8 6 8 0 c 1,94,95
 6 0 6 0 0 0 c 1,0,1
EndSplineSet
EndChar

StartChar: y
Encoding: 121 121 92
Width: 36
GlyphClass: 2
Flags: W
LayerCount: 2
Fore
SplineSet
8 -12 m 1,0,1
 8 -11 8 -11 8 -8 c 1,2,3
 7 -8 7 -8 4 -8 c 1,4,5
 4 -7 4 -7 4 -4 c 1,6,7
 3 -4 3 -4 0 -4 c 1,8,9
 0 -3 0 -3 0 0 c 1,10,11
 2 0 2 0 8 0 c 1,12,13
 8 -1 8 -1 8 -4 c 1,14,15
 9 -4 9 -4 12 -4 c 1,16,17
 12 -5 12 -5 12 -8 c 1,18,19
 14 -8 14 -8 20 -8 c 1,20,21
 20 -7 20 -7 20 -4 c 1,22,23
 21 -4 21 -4 24 -4 c 1,24,25
 24 -1 24 -1 24 8 c 1,26,27
 20 8 20 8 8 8 c 1,28,29
 8 9 8 9 8 12 c 1,30,31
 7 12 7 12 4 12 c 1,32,33
 4 13 4 13 4 16 c 1,34,35
 3 16 3 16 0 16 c 1,36,37
 0 22 0 22 0 40 c 1,38,39
 2 40 2 40 8 40 c 1,40,41
 8 34 8 34 8 16 c 1,42,43
 9 16 9 16 12 16 c 1,44,45
 12 15 12 15 12 12 c 1,46,47
 14 12 14 12 20 12 c 1,48,49
 20 13 20 13 20 16 c 1,50,51
 21 16 21 16 24 16 c 1,52,53
 24 22 24 22 24 40 c 1,54,55
 26 40 26 40 32 40 c 1,56,57
 32 29 32 29 32 -4 c 1,58,59
 31 -4 31 -4 28 -4 c 1,60,61
 28 -5 28 -5 28 -8 c 1,62,63
 27 -8 27 -8 24 -8 c 1,64,65
 24 -9 24 -9 24 -12 c 1,66,67
 20 -12 20 -12 8 -12 c 1,0,1
EndSplineSet
EndChar

StartChar: z
Encoding: 122 122 93
Width: 36
GlyphClass: 2
Flags: W
LayerCount: 2
Fore
SplineSet
0 0 m 1,0,1
 0 3 0 3 0 12 c 1,2,3
 1 12 1 12 4 12 c 1,4,5
 4 13 4 13 4 16 c 1,6,7
 5 16 5 16 8 16 c 1,8,9
 8 17 8 17 8 20 c 1,10,11
 9 20 9 20 12 20 c 1,12,13
 12 21 12 21 12 24 c 1,14,15
 13 24 13 24 16 24 c 1,16,17
 16 25 16 25 16 28 c 1,18,19
 17 28 17 28 20 28 c 1,20,21
 20 29 20 29 20 32 c 1,22,23
 21 32 21 32 24 32 c 1,24,25
 24 33 24 33 24 36 c 1,26,27
 18 36 18 36 0 36 c 1,28,29
 0 37 0 37 0 40 c 1,30,31
 8 40 8 40 32 40 c 1,32,33
 32 38 32 38 32 32 c 1,34,35
 31 32 31 32 28 32 c 1,36,37
 28 31 28 31 28 28 c 1,38,39
 27 28 27 28 24 28 c 1,40,41
 24 27 24 27 24 24 c 1,42,43
 23 24 23 24 20 24 c 1,44,45
 20 23 20 23 20 20 c 1,46,47
 19 20 19 20 16 20 c 1,48,49
 16 19 16 19 16 16 c 1,50,51
 15 16 15 16 12 16 c 1,52,53
 12 15 12 15 12 12 c 1,54,55
 11 12 11 12 8 12 c 1,56,57
 8 10 8 10 8 4 c 1,58,59
 14 4 14 4 32 4 c 1,60,61
 32 3 32 3 32 0 c 1,62,63
 24 0 24 0 0 0 c 1,0,1
EndSplineSet
EndChar

StartChar: braceleft
Encoding: 123 123 94
Width: 24
GlyphClass: 2
Flags: W
LayerCount: 2
Fore
SplineSet
8 0 m 1,0,1
 8 1 8 1 8 4 c 1,2,3
 7 4 7 4 4 4 c 1,4,5
 4 9 4 9 4 24 c 1,6,7
 3 24 3 24 0 24 c 1,8,9
 0 25 0 25 0 28 c 1,10,11
 1 28 1 28 4 28 c 1,12,13
 4 33 4 33 4 48 c 1,14,15
 5 48 5 48 8 48 c 1,16,17
 8 49 8 49 8 52 c 1,18,19
 11 52 11 52 20 52 c 1,20,21
 20 51 20 51 20 48 c 1,22,23
 18 48 18 48 12 48 c 1,24,25
 12 43 12 43 12 28 c 1,26,27
 11 28 11 28 8 28 c 1,28,29
 8 27 8 27 8 24 c 1,30,31
 9 24 9 24 12 24 c 1,32,33
 12 19 12 19 12 4 c 1,34,35
 14 4 14 4 20 4 c 1,36,37
 20 3 20 3 20 0 c 1,38,39
 17 0 17 0 8 0 c 1,0,1
EndSplineSet
EndChar

StartChar: bar
Encoding: 124 124 95
Width: 12
GlyphClass: 2
Flags: W
LayerCount: 2
Fore
SplineSet
0 0 m 1,0,1
 0 13 0 13 0 52 c 1,2,3
 2 52 2 52 8 52 c 1,4,5
 8 39 8 39 8 0 c 1,6,7
 6 0 6 0 0 0 c 1,0,1
EndSplineSet
EndChar

StartChar: braceright
Encoding: 125 125 96
Width: 24
GlyphClass: 2
Flags: W
LayerCount: 2
Fore
SplineSet
0 0 m 1,0,1
 0 1 0 1 0 4 c 1,2,3
 2 4 2 4 8 4 c 1,4,5
 8 9 8 9 8 24 c 1,6,7
 9 24 9 24 12 24 c 1,8,9
 12 25 12 25 12 28 c 1,10,11
 11 28 11 28 8 28 c 1,12,13
 8 33 8 33 8 48 c 1,14,15
 6 48 6 48 0 48 c 1,16,17
 0 49 0 49 0 52 c 1,18,19
 3 52 3 52 12 52 c 1,20,21
 12 51 12 51 12 48 c 1,22,23
 13 48 13 48 16 48 c 1,24,25
 16 43 16 43 16 28 c 1,26,27
 17 28 17 28 20 28 c 1,28,29
 20 27 20 27 20 24 c 1,30,31
 19 24 19 24 16 24 c 1,32,33
 16 19 16 19 16 4 c 1,34,35
 15 4 15 4 12 4 c 1,36,37
 12 3 12 3 12 0 c 1,38,39
 9 0 9 0 0 0 c 1,0,1
EndSplineSet
EndChar

StartChar: asciitilde
Encoding: 126 126 97
Width: 40
GlyphClass: 2
Flags: W
LayerCount: 2
Fore
SplineSet
0 20 m 1,0,1
 0 21 0 21 0 24 c 1,2,3
 1 24 1 24 4 24 c 1,4,5
 4 25 4 25 4 28 c 1,6,7
 5 28 5 28 8 28 c 1,8,9
 8 29 8 29 8 32 c 1,10,11
 11 32 11 32 20 32 c 1,12,13
 20 31 20 31 20 28 c 1,14,15
 21 28 21 28 24 28 c 1,16,17
 24 27 24 27 24 24 c 1,18,19
 25 24 25 24 28 24 c 1,20,21
 28 26 28 26 28 32 c 1,22,23
 30 32 30 32 36 32 c 1,24,25
 36 30 36 30 36 24 c 1,26,27
 35 24 35 24 32 24 c 1,28,29
 32 23 32 23 32 20 c 1,30,31
 29 20 29 20 20 20 c 1,32,33
 20 21 20 21 20 24 c 1,34,35
 19 24 19 24 16 24 c 1,36,37
 16 25 16 25 16 28 c 1,38,39
 15 28 15 28 12 28 c 1,40,41
 12 27 12 27 12 24 c 1,42,43
 11 24 11 24 8 24 c 1,44,45
 8 23 8 23 8 20 c 1,46,47
 6 20 6 20 0 20 c 1,0,1
EndSplineSet
EndChar

StartChar: exclamdown
Encoding: 161 161 98
Width: 12
GlyphClass: 2
Flags: W
LayerCount: 2
Fore
SplineSet
0 -12 m 1,0,1
 0 -3 0 -3 0 24 c 1,2,3
 2 24 2 24 8 24 c 1,4,5
 8 15 8 15 8 -12 c 1,6,7
 6 -12 6 -12 0 -12 c 1,0,1
0 32 m 1,8,9
 0 34 0 34 0 40 c 1,10,11
 2 40 2 40 8 40 c 1,12,13
 8 38 8 38 8 32 c 1,14,15
 6 32 6 32 0 32 c 1,8,9
EndSplineSet
EndChar

StartChar: cent
Encoding: 162 162 99
Width: 36
GlyphClass: 2
Flags: W
LayerCount: 2
Fore
SplineSet
12 16 m 1,0,1
 12 21 12 21 12 36 c 1,2,3
 11 36 11 36 8 36 c 1,4,5
 8 31 8 31 8 16 c 1,6,7
 9 16 9 16 12 16 c 1,0,1
12 0 m 1,8,9
 12 2 12 2 12 8 c 1,10,11
 11 8 11 8 8 8 c 1,12,13
 8 9 8 9 8 12 c 1,14,15
 7 12 7 12 4 12 c 1,16,17
 4 13 4 13 4 16 c 1,18,19
 3 16 3 16 0 16 c 1,20,21
 0 21 0 21 0 36 c 1,22,23
 1 36 1 36 4 36 c 1,24,25
 4 37 4 37 4 40 c 1,26,27
 5 40 5 40 8 40 c 1,28,29
 8 41 8 41 8 44 c 1,30,31
 9 44 9 44 12 44 c 1,32,33
 12 46 12 46 12 52 c 1,34,35
 14 52 14 52 20 52 c 1,36,37
 20 50 20 50 20 44 c 1,38,39
 21 44 21 44 24 44 c 1,40,41
 24 43 24 43 24 40 c 1,42,43
 25 40 25 40 28 40 c 1,44,45
 28 39 28 39 28 36 c 1,46,47
 29 36 29 36 32 36 c 1,48,49
 32 35 32 35 32 32 c 1,50,51
 30 32 30 32 24 32 c 1,52,53
 24 33 24 33 24 36 c 1,54,55
 23 36 23 36 20 36 c 1,56,57
 20 31 20 31 20 16 c 1,58,59
 21 16 21 16 24 16 c 1,60,61
 24 17 24 17 24 20 c 1,62,63
 26 20 26 20 32 20 c 1,64,65
 32 19 32 19 32 16 c 1,66,67
 31 16 31 16 28 16 c 1,68,69
 28 15 28 15 28 12 c 1,70,71
 27 12 27 12 24 12 c 1,72,73
 24 11 24 11 24 8 c 1,74,75
 23 8 23 8 20 8 c 1,76,77
 20 6 20 6 20 0 c 1,78,79
 18 0 18 0 12 0 c 1,8,9
EndSplineSet
EndChar

StartChar: sterling
Encoding: 163 163 100
Width: 36
GlyphClass: 2
Flags: W
LayerCount: 2
Fore
SplineSet
0 0 m 1,0,1
 0 1 0 1 0 4 c 1,2,3
 1 4 1 4 4 4 c 1,4,5
 4 8 4 8 4 20 c 1,6,7
 3 20 3 20 0 20 c 1,8,9
 0 21 0 21 0 24 c 1,10,11
 1 24 1 24 4 24 c 1,12,13
 4 28 4 28 4 40 c 1,14,15
 5 40 5 40 8 40 c 1,16,17
 8 41 8 41 8 44 c 1,18,19
 9 44 9 44 12 44 c 1,20,21
 12 45 12 45 12 48 c 1,22,23
 15 48 15 48 24 48 c 1,24,25
 24 47 24 47 24 44 c 1,26,27
 25 44 25 44 28 44 c 1,28,29
 28 43 28 43 28 40 c 1,30,31
 29 40 29 40 32 40 c 1,32,33
 32 38 32 38 32 32 c 1,34,35
 30 32 30 32 24 32 c 1,36,37
 24 34 24 34 24 40 c 1,38,39
 23 40 23 40 20 40 c 1,40,41
 20 41 20 41 20 44 c 1,42,43
 19 44 19 44 16 44 c 1,44,45
 16 43 16 43 16 40 c 1,46,47
 15 40 15 40 12 40 c 1,48,49
 12 36 12 36 12 24 c 1,50,51
 15 24 15 24 24 24 c 1,52,53
 24 23 24 23 24 20 c 1,54,55
 21 20 21 20 12 20 c 1,56,57
 12 17 12 17 12 8 c 1,58,59
 14 8 14 8 20 8 c 1,60,61
 20 7 20 7 20 4 c 1,62,63
 21 4 21 4 24 4 c 1,64,65
 24 5 24 5 24 8 c 1,66,67
 26 8 26 8 32 8 c 1,68,69
 32 7 32 7 32 4 c 1,70,71
 31 4 31 4 28 4 c 1,72,73
 28 3 28 3 28 0 c 1,74,75
 25 0 25 0 16 0 c 1,76,77
 16 1 16 1 16 4 c 1,78,79
 14 4 14 4 8 4 c 1,80,81
 8 3 8 3 8 0 c 1,82,83
 6 0 6 0 0 0 c 1,0,1
EndSplineSet
EndChar

StartChar: yen
Encoding: 165 165 101
Width: 36
GlyphClass: 2
Flags: W
LayerCount: 2
Fore
SplineSet
12 0 m 1,0,1
 12 2 12 2 12 8 c 1,2,3
 10 8 10 8 4 8 c 1,4,5
 4 9 4 9 4 12 c 1,6,7
 6 12 6 12 12 12 c 1,8,9
 12 13 12 13 12 16 c 1,10,11
 10 16 10 16 4 16 c 1,12,13
 4 17 4 17 4 20 c 1,14,15
 5 20 5 20 8 20 c 1,16,17
 8 22 8 22 8 28 c 1,18,19
 7 28 7 28 4 28 c 1,20,21
 4 30 4 30 4 36 c 1,22,23
 3 36 3 36 0 36 c 1,24,25
 0 38 0 38 0 44 c 1,26,27
 2 44 2 44 8 44 c 1,28,29
 8 42 8 42 8 36 c 1,30,31
 9 36 9 36 12 36 c 1,32,33
 12 34 12 34 12 28 c 1,34,35
 14 28 14 28 20 28 c 1,36,37
 20 30 20 30 20 36 c 1,38,39
 21 36 21 36 24 36 c 1,40,41
 24 38 24 38 24 44 c 1,42,43
 26 44 26 44 32 44 c 1,44,45
 32 42 32 42 32 36 c 1,46,47
 31 36 31 36 28 36 c 1,48,49
 28 34 28 34 28 28 c 1,50,51
 27 28 27 28 24 28 c 1,52,53
 24 26 24 26 24 20 c 1,54,55
 25 20 25 20 28 20 c 1,56,57
 28 19 28 19 28 16 c 1,58,59
 26 16 26 16 20 16 c 1,60,61
 20 15 20 15 20 12 c 1,62,63
 22 12 22 12 28 12 c 1,64,65
 28 11 28 11 28 8 c 1,66,67
 26 8 26 8 20 8 c 1,68,69
 20 6 20 6 20 0 c 1,70,71
 18 0 18 0 12 0 c 1,0,1
EndSplineSet
EndChar

StartChar: brokenbar
Encoding: 166 166 102
Width: 12
GlyphClass: 2
Flags: W
LayerCount: 2
Fore
SplineSet
0 0 m 1,0,1
 0 6 0 6 0 24 c 1,2,3
 2 24 2 24 8 24 c 1,4,5
 8 18 8 18 8 0 c 1,6,7
 6 0 6 0 0 0 c 1,0,1
0 32 m 1,8,9
 0 37 0 37 0 52 c 1,10,11
 2 52 2 52 8 52 c 1,12,13
 8 47 8 47 8 32 c 1,14,15
 6 32 6 32 0 32 c 1,8,9
EndSplineSet
EndChar

StartChar: dieresis
Encoding: 168 168 103
Width: 32
GlyphClass: 2
Flags: W
LayerCount: 2
Fore
SplineSet
4 48 m 1,0,1
 4 49 4 49 4 52 c 1,2,3
 6 52 6 52 12 52 c 1,4,5
 12 51 12 51 12 48 c 1,6,7
 10 48 10 48 4 48 c 1,0,1
20 48 m 1,8,9
 20 49 20 49 20 52 c 1,10,11
 22 52 22 52 28 52 c 1,12,13
 28 51 28 51 28 48 c 1,14,15
 26 48 26 48 20 48 c 1,8,9
EndSplineSet
EndChar

StartChar: copyright
Encoding: 169 169 104
Width: 40
GlyphClass: 2
Flags: W
LayerCount: 2
Fore
SplineSet
24 4 m 1,0,1
 24 5 24 5 24 8 c 1,2,3
 25 8 25 8 28 8 c 1,4,5
 28 9 28 9 28 12 c 1,6,7
 27 12 27 12 24 12 c 1,8,9
 24 11 24 11 24 8 c 1,10,11
 21 8 21 8 12 8 c 1,12,13
 12 9 12 9 12 12 c 1,14,15
 11 12 11 12 8 12 c 1,16,17
 8 11 8 11 8 8 c 1,18,19
 9 8 9 8 12 8 c 1,20,21
 12 7 12 7 12 4 c 1,22,23
 15 4 15 4 24 4 c 1,0,1
20 12 m 1,24,25
 20 13 20 13 20 16 c 1,26,27
 22 16 22 16 28 16 c 1,28,29
 28 18 28 18 28 24 c 1,30,31
 26 24 26 24 20 24 c 1,32,33
 20 25 20 25 20 28 c 1,34,35
 19 28 19 28 16 28 c 1,36,37
 16 24 16 24 16 12 c 1,38,39
 17 12 17 12 20 12 c 1,24,25
28 28 m 1,40,41
 28 29 28 29 28 32 c 1,42,43
 27 32 27 32 24 32 c 1,44,45
 24 33 24 33 24 36 c 1,46,47
 21 36 21 36 12 36 c 1,48,49
 12 35 12 35 12 32 c 1,50,51
 11 32 11 32 8 32 c 1,52,53
 8 31 8 31 8 28 c 1,54,55
 9 28 9 28 12 28 c 1,56,57
 12 29 12 29 12 32 c 1,58,59
 15 32 15 32 24 32 c 1,60,61
 24 31 24 31 24 28 c 1,62,63
 25 28 25 28 28 28 c 1,40,41
8 0 m 1,64,65
 8 1 8 1 8 4 c 1,66,67
 7 4 7 4 4 4 c 1,68,69
 4 5 4 5 4 8 c 1,70,71
 3 8 3 8 0 8 c 1,72,73
 0 14 0 14 0 32 c 1,74,75
 1 32 1 32 4 32 c 1,76,77
 4 33 4 33 4 36 c 1,78,79
 5 36 5 36 8 36 c 1,80,81
 8 37 8 37 8 40 c 1,82,83
 13 40 13 40 28 40 c 1,84,85
 28 39 28 39 28 36 c 1,86,87
 29 36 29 36 32 36 c 1,88,89
 32 35 32 35 32 32 c 1,90,91
 33 32 33 32 36 32 c 1,92,93
 36 26 36 26 36 8 c 1,94,95
 35 8 35 8 32 8 c 1,96,97
 32 7 32 7 32 4 c 1,98,99
 31 4 31 4 28 4 c 1,100,101
 28 3 28 3 28 0 c 1,102,103
 23 0 23 0 8 0 c 1,64,65
EndSplineSet
EndChar

StartChar: guillemotleft
Encoding: 171 171 105
Width: 36
GlyphClass: 2
Flags: W
LayerCount: 2
Fore
SplineSet
8 16 m 1,0,1
 8 17 8 17 8 20 c 1,2,3
 7 20 7 20 4 20 c 1,4,5
 4 21 4 21 4 24 c 1,6,7
 3 24 3 24 0 24 c 1,8,9
 0 26 0 26 0 32 c 1,10,11
 1 32 1 32 4 32 c 1,12,13
 4 33 4 33 4 36 c 1,14,15
 5 36 5 36 8 36 c 1,16,17
 8 37 8 37 8 40 c 1,18,19
 10 40 10 40 16 40 c 1,20,21
 16 39 16 39 16 36 c 1,22,23
 15 36 15 36 12 36 c 1,24,25
 12 35 12 35 12 32 c 1,26,27
 11 32 11 32 8 32 c 1,28,29
 8 30 8 30 8 24 c 1,30,31
 9 24 9 24 12 24 c 1,32,33
 12 23 12 23 12 20 c 1,34,35
 13 20 13 20 16 20 c 1,36,37
 16 19 16 19 16 16 c 1,38,39
 14 16 14 16 8 16 c 1,0,1
24 16 m 1,40,41
 24 17 24 17 24 20 c 1,42,43
 23 20 23 20 20 20 c 1,44,45
 20 21 20 21 20 24 c 1,46,47
 19 24 19 24 16 24 c 1,48,49
 16 26 16 26 16 32 c 1,50,51
 17 32 17 32 20 32 c 1,52,53
 20 33 20 33 20 36 c 1,54,55
 21 36 21 36 24 36 c 1,56,57
 24 37 24 37 24 40 c 1,58,59
 26 40 26 40 32 40 c 1,60,61
 32 39 32 39 32 36 c 1,62,63
 31 36 31 36 28 36 c 1,64,65
 28 35 28 35 28 32 c 1,66,67
 27 32 27 32 24 32 c 1,68,69
 24 30 24 30 24 24 c 1,70,71
 25 24 25 24 28 24 c 1,72,73
 28 23 28 23 28 20 c 1,74,75
 29 20 29 20 32 20 c 1,76,77
 32 19 32 19 32 16 c 1,78,79
 30 16 30 16 24 16 c 1,40,41
EndSplineSet
EndChar

StartChar: logicalnot
Encoding: 172 172 106
Width: 28
GlyphClass: 2
Flags: W
LayerCount: 2
Fore
SplineSet
16 16 m 1,0,1
 16 18 16 18 16 24 c 1,2,3
 12 24 12 24 0 24 c 1,4,5
 0 25 0 25 0 28 c 1,6,7
 6 28 6 28 24 28 c 1,8,9
 24 25 24 25 24 16 c 1,10,11
 22 16 22 16 16 16 c 1,0,1
EndSplineSet
EndChar

StartChar: uni00ad
Encoding: 173 173 107
Width: 20
GlyphClass: 2
Flags: W
LayerCount: 2
Fore
SplineSet
0 12 m 1,0,1
 0 13 0 13 0 16 c 1,2,3
 4 16 4 16 16 16 c 1,4,5
 16 15 16 15 16 12 c 1,6,7
 12 12 12 12 0 12 c 1,0,1
EndSplineSet
EndChar

StartChar: registered
Encoding: 174 174 108
Width: 40
GlyphClass: 2
Flags: W
LayerCount: 2
Fore
SplineSet
24 4 m 1,0,1
 24 5 24 5 24 8 c 1,2,3
 25 8 25 8 28 8 c 1,4,5
 28 9 28 9 28 12 c 1,6,7
 26 12 26 12 20 12 c 1,8,9
 20 14 20 14 20 20 c 1,10,11
 19 20 19 20 16 20 c 1,12,13
 16 18 16 18 16 12 c 1,14,15
 14 12 14 12 8 12 c 1,16,17
 8 11 8 11 8 8 c 1,18,19
 9 8 9 8 12 8 c 1,20,21
 12 7 12 7 12 4 c 1,22,23
 15 4 15 4 24 4 c 1,0,1
28 20 m 1,24,25
 28 21 28 21 28 24 c 1,26,27
 27 24 27 24 24 24 c 1,28,29
 24 23 24 23 24 20 c 1,30,31
 25 20 25 20 28 20 c 1,24,25
20 24 m 1,32,33
 20 25 20 25 20 28 c 1,34,35
 19 28 19 28 16 28 c 1,36,37
 16 27 16 27 16 24 c 1,38,39
 17 24 17 24 20 24 c 1,32,33
28 28 m 1,40,41
 28 29 28 29 28 32 c 1,42,43
 27 32 27 32 24 32 c 1,44,45
 24 33 24 33 24 36 c 1,46,47
 21 36 21 36 12 36 c 1,48,49
 12 35 12 35 12 32 c 1,50,51
 11 32 11 32 8 32 c 1,52,53
 8 31 8 31 8 28 c 1,54,55
 9 28 9 28 12 28 c 1,56,57
 12 29 12 29 12 32 c 1,58,59
 15 32 15 32 24 32 c 1,60,61
 24 31 24 31 24 28 c 1,62,63
 25 28 25 28 28 28 c 1,40,41
8 0 m 1,64,65
 8 1 8 1 8 4 c 1,66,67
 7 4 7 4 4 4 c 1,68,69
 4 5 4 5 4 8 c 1,70,71
 3 8 3 8 0 8 c 1,72,73
 0 14 0 14 0 32 c 1,74,75
 1 32 1 32 4 32 c 1,76,77
 4 33 4 33 4 36 c 1,78,79
 5 36 5 36 8 36 c 1,80,81
 8 37 8 37 8 40 c 1,82,83
 13 40 13 40 28 40 c 1,84,85
 28 39 28 39 28 36 c 1,86,87
 29 36 29 36 32 36 c 1,88,89
 32 35 32 35 32 32 c 1,90,91
 33 32 33 32 36 32 c 1,92,93
 36 26 36 26 36 8 c 1,94,95
 35 8 35 8 32 8 c 1,96,97
 32 7 32 7 32 4 c 1,98,99
 31 4 31 4 28 4 c 1,100,101
 28 3 28 3 28 0 c 1,102,103
 23 0 23 0 8 0 c 1,64,65
EndSplineSet
EndChar

StartChar: degree
Encoding: 176 176 109
Width: 20
GlyphClass: 2
Flags: W
LayerCount: 2
Fore
SplineSet
4 40 m 1,0,1
 4 41 4 41 4 44 c 1,2,3
 3 44 3 44 0 44 c 1,4,5
 0 45 0 45 0 48 c 1,6,7
 1 48 1 48 4 48 c 1,8,9
 4 49 4 49 4 52 c 1,10,11
 6 52 6 52 12 52 c 1,12,13
 12 51 12 51 12 48 c 1,14,15
 13 48 13 48 16 48 c 1,16,17
 16 47 16 47 16 44 c 1,18,19
 15 44 15 44 12 44 c 1,20,21
 12 43 12 43 12 40 c 1,22,23
 10 40 10 40 4 40 c 1,0,1
EndSplineSet
EndChar

StartChar: plusminus
Encoding: 177 177 110
Width: 28
GlyphClass: 2
Flags: W
LayerCount: 2
Fore
SplineSet
0 12 m 1,0,1
 0 13 0 13 0 16 c 1,2,3
 2 16 2 16 8 16 c 0,4,5
 12 16 12 16 24 16 c 1,6,7
 24 15 24 15 24 12 c 1,8,9
 18 12 18 12 0 12 c 1,0,1
8 20 m 1,10,11
 8 22 8 22 8 28 c 1,12,13
 6 28 6 28 0 28 c 1,14,15
 0 29 0 29 0 32 c 1,16,17
 2 32 2 32 8 32 c 1,18,19
 8 34 8 34 8 40 c 1,20,21
 10 40 10 40 16 40 c 1,22,23
 16 38 16 38 16 32 c 1,24,25
 18 32 18 32 24 32 c 1,26,27
 24 31 24 31 24 28 c 1,28,29
 22 28 22 28 16 28 c 1,30,31
 16 26 16 26 16 20 c 1,32,33
 14 20 14 20 8 20 c 1,10,11
EndSplineSet
EndChar

StartChar: acute
Encoding: 180 180 111
Width: 32
GlyphClass: 2
Flags: W
LayerCount: 2
Fore
SplineSet
12 44 m 1,0,1
 12 45 12 45 12 48 c 1,2,3
 13 48 13 48 16 48 c 1,4,5
 16 49 16 49 16 52 c 1,6,7
 17 52 17 52 20 52 c 1,8,9
 20 53 20 53 20 56 c 1,10,11
 22 56 22 56 28 56 c 1,12,13
 28 55 28 55 28 52 c 1,14,15
 27 52 27 52 24 52 c 1,16,17
 24 51 24 51 24 48 c 1,18,19
 23 48 23 48 20 48 c 1,20,21
 20 47 20 47 20 44 c 1,22,23
 18 44 18 44 12 44 c 1,0,1
EndSplineSet
EndChar

StartChar: mu
Encoding: 181 181 112
Width: 40
GlyphClass: 2
Flags: W
LayerCount: 2
Fore
SplineSet
0 -12 m 1,0,1
 0 1 0 1 0 40 c 1,2,3
 2 40 2 40 8 40 c 1,4,5
 8 32 8 32 8 8 c 1,6,7
 9 8 9 8 12 8 c 1,8,9
 12 7 12 7 12 4 c 1,10,11
 14 4 14 4 20 4 c 1,12,13
 20 5 20 5 20 8 c 1,14,15
 21 8 21 8 24 8 c 1,16,17
 24 16 24 16 24 40 c 1,18,19
 26 40 26 40 32 40 c 1,20,21
 32 31 32 31 32 4 c 1,22,23
 33 4 33 4 36 4 c 1,24,25
 36 3 36 3 36 0 c 1,26,27
 29 0 29 0 8 0 c 1,28,29
 8 -3 8 -3 8 -12 c 1,30,31
 6 -12 6 -12 0 -12 c 1,0,1
EndSplineSet
EndChar

StartChar: paragraph
Encoding: 182 182 113
Width: 36
GlyphClass: 2
Flags: W
LayerCount: 2
Fore
SplineSet
16 0 m 1,0,1
 16 7 16 7 16 28 c 1,2,3
 14 28 14 28 8 28 c 1,4,5
 8 29 8 29 8 32 c 1,6,7
 7 32 7 32 4 32 c 1,8,9
 4 33 4 33 4 36 c 1,10,11
 3 36 3 36 0 36 c 1,12,13
 0 38 0 38 0 44 c 1,14,15
 1 44 1 44 4 44 c 1,16,17
 4 45 4 45 4 48 c 1,18,19
 5 48 5 48 8 48 c 1,20,21
 8 49 8 49 8 52 c 1,22,23
 14 52 14 52 32 52 c 1,24,25
 32 39 32 39 32 0 c 1,26,27
 28 0 28 0 16 0 c 1,0,1
EndSplineSet
EndChar

StartChar: periodcentered
Encoding: 183 183 114
Width: 12
GlyphClass: 2
Flags: W
LayerCount: 2
Fore
SplineSet
0 20 m 1,0,1
 0 21 0 21 0 24 c 1,2,3
 2 24 2 24 8 24 c 1,4,5
 8 23 8 23 8 20 c 1,6,7
 6 20 6 20 0 20 c 1,0,1
EndSplineSet
EndChar

StartChar: cedilla
Encoding: 184 184 115
Width: 20
GlyphClass: 2
Flags: W
LayerCount: 2
Fore
SplineSet
0 -12 m 1,0,1
 0 -11 0 -11 0 -8 c 1,2,3
 2 -8 2 -8 8 -8 c 1,4,5
 8 -7 8 -7 8 -4 c 1,6,7
 7 -4 7 -4 4 -4 c 1,8,9
 4 -3 4 -3 4 0 c 1,10,11
 6 0 6 0 12 0 c 1,12,13
 12 -1 12 -1 12 -4 c 1,14,15
 13 -4 13 -4 16 -4 c 1,16,17
 16 -5 16 -5 16 -8 c 1,18,19
 15 -8 15 -8 12 -8 c 1,20,21
 12 -9 12 -9 12 -12 c 1,22,23
 9 -12 9 -12 0 -12 c 1,0,1
EndSplineSet
EndChar

StartChar: guillemotright
Encoding: 187 187 116
Width: 36
GlyphClass: 2
Flags: W
LayerCount: 2
Fore
SplineSet
0 16 m 1,0,1
 0 17 0 17 0 20 c 1,2,3
 1 20 1 20 4 20 c 1,4,5
 4 21 4 21 4 24 c 1,6,7
 5 24 5 24 8 24 c 1,8,9
 8 26 8 26 8 32 c 1,10,11
 7 32 7 32 4 32 c 1,12,13
 4 33 4 33 4 36 c 1,14,15
 3 36 3 36 0 36 c 1,16,17
 0 37 0 37 0 40 c 1,18,19
 2 40 2 40 8 40 c 1,20,21
 8 39 8 39 8 36 c 1,22,23
 9 36 9 36 12 36 c 1,24,25
 12 35 12 35 12 32 c 1,26,27
 13 32 13 32 16 32 c 1,28,29
 16 30 16 30 16 24 c 1,30,31
 15 24 15 24 12 24 c 1,32,33
 12 23 12 23 12 20 c 1,34,35
 11 20 11 20 8 20 c 1,36,37
 8 19 8 19 8 16 c 1,38,39
 6 16 6 16 0 16 c 1,0,1
16 16 m 1,40,41
 16 17 16 17 16 20 c 1,42,43
 17 20 17 20 20 20 c 1,44,45
 20 21 20 21 20 24 c 1,46,47
 21 24 21 24 24 24 c 1,48,49
 24 26 24 26 24 32 c 1,50,51
 23 32 23 32 20 32 c 1,52,53
 20 33 20 33 20 36 c 1,54,55
 19 36 19 36 16 36 c 1,56,57
 16 37 16 37 16 40 c 1,58,59
 18 40 18 40 24 40 c 1,60,61
 24 39 24 39 24 36 c 1,62,63
 25 36 25 36 28 36 c 1,64,65
 28 35 28 35 28 32 c 1,66,67
 29 32 29 32 32 32 c 1,68,69
 32 30 32 30 32 24 c 1,70,71
 31 24 31 24 28 24 c 1,72,73
 28 23 28 23 28 20 c 1,74,75
 27 20 27 20 24 20 c 1,76,77
 24 19 24 19 24 16 c 1,78,79
 22 16 22 16 16 16 c 1,40,41
EndSplineSet
EndChar

StartChar: questiondown
Encoding: 191 191 117
Width: 36
GlyphClass: 2
Flags: W
LayerCount: 2
Fore
SplineSet
8 -12 m 1,0,1
 8 -11 8 -11 8 -8 c 1,2,3
 7 -8 7 -8 4 -8 c 1,4,5
 4 -7 4 -7 4 -4 c 1,6,7
 3 -4 3 -4 0 -4 c 1,8,9
 0 -1 0 -1 0 8 c 1,10,11
 1 8 1 8 4 8 c 1,12,13
 4 9 4 9 4 12 c 1,14,15
 5 12 5 12 8 12 c 1,16,17
 8 13 8 13 8 16 c 1,18,19
 9 16 9 16 12 16 c 1,20,21
 12 18 12 18 12 24 c 1,22,23
 14 24 14 24 20 24 c 1,24,25
 20 22 20 22 20 16 c 1,26,27
 19 16 19 16 16 16 c 1,28,29
 16 15 16 15 16 12 c 1,30,31
 15 12 15 12 12 12 c 1,32,33
 12 11 12 11 12 8 c 1,34,35
 11 8 11 8 8 8 c 1,36,37
 8 5 8 5 8 -4 c 1,38,39
 9 -4 9 -4 12 -4 c 1,40,41
 12 -5 12 -5 12 -8 c 1,42,43
 14 -8 14 -8 20 -8 c 1,44,45
 20 -7 20 -7 20 -4 c 1,46,47
 21 -4 21 -4 24 -4 c 1,48,49
 24 -3 24 -3 24 0 c 1,50,51
 26 0 26 0 32 0 c 1,52,53
 32 -1 32 -1 32 -4 c 1,54,55
 31 -4 31 -4 28 -4 c 1,56,57
 28 -5 28 -5 28 -8 c 1,58,59
 27 -8 27 -8 24 -8 c 1,60,61
 24 -9 24 -9 24 -12 c 1,62,63
 20 -12 20 -12 8 -12 c 1,0,1
12 32 m 1,64,65
 12 34 12 34 12 40 c 1,66,67
 14 40 14 40 20 40 c 1,68,69
 20 38 20 38 20 32 c 1,70,71
 18 32 18 32 12 32 c 1,64,65
EndSplineSet
EndChar

StartChar: Agrave
Encoding: 192 192 118
Width: 36
GlyphClass: 2
Flags: W
LayerCount: 2
Fore
SplineSet
24 24 m 1,0,1
 24 28 24 28 24 40 c 1,2,3
 23 40 23 40 20 40 c 1,4,5
 20 42 20 42 20 48 c 1,6,7
 18 48 18 48 12 48 c 1,8,9
 12 46 12 46 12 40 c 1,10,11
 11 40 11 40 8 40 c 1,12,13
 8 36 8 36 8 24 c 1,14,15
 12 24 12 24 24 24 c 1,0,1
0 0 m 1,16,17
 0 10 0 10 0 40 c 1,18,19
 1 40 1 40 4 40 c 1,20,21
 4 42 4 42 4 48 c 1,22,23
 5 48 5 48 8 48 c 1,24,25
 8 49 8 49 8 52 c 1,26,27
 12 52 12 52 24 52 c 1,28,29
 24 51 24 51 24 48 c 1,30,31
 25 48 25 48 28 48 c 1,32,33
 28 46 28 46 28 40 c 1,34,35
 29 40 29 40 32 40 c 1,36,37
 32 30 32 30 32 0 c 1,38,39
 30 0 30 0 24 0 c 1,40,41
 24 5 24 5 24 20 c 1,42,43
 20 20 20 20 8 20 c 1,44,45
 8 15 8 15 8 0 c 1,46,47
 6 0 6 0 0 0 c 1,16,17
12 56 m 1,48,49
 12 57 12 57 12 60 c 1,50,51
 11 60 11 60 8 60 c 1,52,53
 8 61 8 61 8 64 c 1,54,55
 7 64 7 64 4 64 c 1,56,57
 4 65 4 65 4 68 c 1,58,59
 6 68 6 68 12 68 c 1,60,61
 12 67 12 67 12 64 c 1,62,63
 13 64 13 64 16 64 c 1,64,65
 16 63 16 63 16 60 c 1,66,67
 17 60 17 60 20 60 c 1,68,69
 20 59 20 59 20 56 c 1,70,71
 18 56 18 56 12 56 c 1,48,49
EndSplineSet
EndChar

StartChar: Aacute
Encoding: 193 193 119
Width: 36
GlyphClass: 2
Flags: W
LayerCount: 2
Fore
SplineSet
24 24 m 1,0,1
 24 28 24 28 24 40 c 1,2,3
 23 40 23 40 20 40 c 1,4,5
 20 42 20 42 20 48 c 1,6,7
 18 48 18 48 12 48 c 1,8,9
 12 46 12 46 12 40 c 1,10,11
 11 40 11 40 8 40 c 1,12,13
 8 36 8 36 8 24 c 1,14,15
 12 24 12 24 24 24 c 1,0,1
0 0 m 1,16,17
 0 10 0 10 0 40 c 1,18,19
 1 40 1 40 4 40 c 1,20,21
 4 42 4 42 4 48 c 1,22,23
 5 48 5 48 8 48 c 1,24,25
 8 49 8 49 8 52 c 1,26,27
 11 52 11 52 20 52 c 0,28,29
 21 52 21 52 24 52 c 1,30,31
 24 51 24 51 24 48 c 1,32,33
 25 48 25 48 28 48 c 1,34,35
 28 46 28 46 28 40 c 1,36,37
 29 40 29 40 32 40 c 1,38,39
 32 30 32 30 32 0 c 1,40,41
 30 0 30 0 24 0 c 1,42,43
 24 5 24 5 24 20 c 1,44,45
 20 20 20 20 8 20 c 1,46,47
 8 15 8 15 8 0 c 1,48,49
 6 0 6 0 0 0 c 1,16,17
12 56 m 1,50,51
 12 57 12 57 12 60 c 1,52,53
 13 60 13 60 16 60 c 1,54,55
 16 61 16 61 16 64 c 1,56,57
 17 64 17 64 20 64 c 1,58,59
 20 65 20 65 20 68 c 1,60,61
 22 68 22 68 28 68 c 1,62,63
 28 67 28 67 28 64 c 1,64,65
 27 64 27 64 24 64 c 1,66,67
 24 63 24 63 24 60 c 1,68,69
 23 60 23 60 20 60 c 1,70,71
 20 59 20 59 20 56 c 1,72,73
 18 56 18 56 12 56 c 1,50,51
EndSplineSet
EndChar

StartChar: Acircumflex
Encoding: 194 194 120
Width: 36
GlyphClass: 2
Flags: W
LayerCount: 2
Fore
SplineSet
24 24 m 1,0,1
 24 28 24 28 24 40 c 1,2,3
 23 40 23 40 20 40 c 1,4,5
 20 42 20 42 20 48 c 1,6,7
 18 48 18 48 12 48 c 1,8,9
 12 46 12 46 12 40 c 1,10,11
 11 40 11 40 8 40 c 1,12,13
 8 36 8 36 8 24 c 1,14,15
 12 24 12 24 24 24 c 1,0,1
0 0 m 1,16,17
 0 10 0 10 0 40 c 1,18,19
 1 40 1 40 4 40 c 1,20,21
 4 42 4 42 4 48 c 1,22,23
 5 48 5 48 8 48 c 1,24,25
 8 49 8 49 8 52 c 1,26,27
 9 52 9 52 12 52 c 256,28,29
 15 52 15 52 24 52 c 1,30,31
 24 51 24 51 24 48 c 1,32,33
 25 48 25 48 28 48 c 1,34,35
 28 46 28 46 28 40 c 1,36,37
 29 40 29 40 32 40 c 1,38,39
 32 30 32 30 32 0 c 1,40,41
 30 0 30 0 24 0 c 1,42,43
 24 5 24 5 24 20 c 1,44,45
 20 20 20 20 8 20 c 1,46,47
 8 15 8 15 8 0 c 1,48,49
 6 0 6 0 0 0 c 1,16,17
4 56 m 1,50,51
 4 57 4 57 4 60 c 1,52,53
 5 60 5 60 8 60 c 1,54,55
 8 61 8 61 8 64 c 1,56,57
 9 64 9 64 12 64 c 1,58,59
 12 65 12 65 12 68 c 1,60,61
 14 68 14 68 20 68 c 1,62,63
 20 67 20 67 20 64 c 1,64,65
 21 64 21 64 24 64 c 1,66,67
 24 63 24 63 24 60 c 1,68,69
 25 60 25 60 28 60 c 1,70,71
 28 59 28 59 28 56 c 1,72,73
 26 56 26 56 20 56 c 1,74,75
 20 57 20 57 20 60 c 1,76,77
 18 60 18 60 12 60 c 1,78,79
 12 59 12 59 12 56 c 1,80,81
 10 56 10 56 4 56 c 1,50,51
EndSplineSet
EndChar

StartChar: Atilde
Encoding: 195 195 121
Width: 36
GlyphClass: 2
Flags: W
LayerCount: 2
Fore
SplineSet
24 24 m 1,0,1
 24 28 24 28 24 40 c 1,2,3
 23 40 23 40 20 40 c 1,4,5
 20 42 20 42 20 48 c 1,6,7
 18 48 18 48 12 48 c 1,8,9
 12 46 12 46 12 40 c 1,10,11
 11 40 11 40 8 40 c 1,12,13
 8 36 8 36 8 24 c 1,14,15
 12 24 12 24 24 24 c 1,0,1
0 0 m 1,16,17
 0 10 0 10 0 40 c 1,18,19
 1 40 1 40 4 40 c 1,20,21
 4 42 4 42 4 48 c 1,22,23
 5 48 5 48 8 48 c 1,24,25
 8 49 8 49 8 52 c 1,26,27
 12 52 12 52 24 52 c 1,28,29
 24 51 24 51 24 48 c 1,30,31
 25 48 25 48 28 48 c 1,32,33
 28 46 28 46 28 40 c 1,34,35
 29 40 29 40 32 40 c 1,36,37
 32 30 32 30 32 0 c 1,38,39
 30 0 30 0 24 0 c 1,40,41
 24 5 24 5 24 20 c 1,42,43
 20 20 20 20 8 20 c 1,44,45
 8 15 8 15 8 0 c 1,46,47
 6 0 6 0 0 0 c 1,16,17
0 56 m 1,48,49
 0 57 0 57 0 60 c 1,50,51
 1 60 1 60 4 60 c 1,52,53
 4 61 4 61 4 64 c 1,54,55
 5 64 5 64 8 64 c 1,56,57
 8 65 8 65 8 68 c 1,58,59
 11 68 11 68 20 68 c 1,60,61
 20 67 20 67 20 64 c 1,62,63
 21 64 21 64 24 64 c 1,64,65
 24 65 24 65 24 68 c 1,66,67
 26 68 26 68 32 68 c 1,68,69
 32 66 32 66 32 60 c 1,70,71
 31 60 31 60 28 60 c 1,72,73
 28 59 28 59 28 56 c 1,74,75
 26 56 26 56 20 56 c 1,76,77
 20 57 20 57 20 60 c 1,78,79
 19 60 19 60 16 60 c 1,80,81
 16 61 16 61 16 64 c 1,82,83
 15 64 15 64 12 64 c 1,84,85
 12 63 12 63 12 60 c 1,86,87
 11 60 11 60 8 60 c 1,88,89
 8 59 8 59 8 56 c 1,90,91
 6 56 6 56 0 56 c 1,48,49
EndSplineSet
EndChar

StartChar: Adieresis
Encoding: 196 196 122
Width: 36
GlyphClass: 2
Flags: W
LayerCount: 2
Fore
SplineSet
24 24 m 1,0,1
 24 28 24 28 24 40 c 1,2,3
 23 40 23 40 20 40 c 1,4,5
 20 42 20 42 20 48 c 1,6,7
 18 48 18 48 12 48 c 1,8,9
 12 46 12 46 12 40 c 1,10,11
 11 40 11 40 8 40 c 1,12,13
 8 36 8 36 8 24 c 1,14,15
 12 24 12 24 24 24 c 1,0,1
0 0 m 1,16,17
 0 10 0 10 0 40 c 1,18,19
 1 40 1 40 4 40 c 1,20,21
 4 42 4 42 4 48 c 1,22,23
 5 48 5 48 8 48 c 1,24,25
 8 49 8 49 8 52 c 1,26,27
 12 52 12 52 24 52 c 1,28,29
 24 51 24 51 24 48 c 1,30,31
 25 48 25 48 28 48 c 1,32,33
 28 46 28 46 28 40 c 1,34,35
 29 40 29 40 32 40 c 1,36,37
 32 30 32 30 32 0 c 1,38,39
 30 0 30 0 24 0 c 1,40,41
 24 5 24 5 24 20 c 1,42,43
 20 20 20 20 8 20 c 1,44,45
 8 15 8 15 8 0 c 1,46,47
 6 0 6 0 0 0 c 1,16,17
4 56 m 1,48,49
 4 57 4 57 4 60 c 1,50,51
 6 60 6 60 12 60 c 1,52,53
 12 59 12 59 12 56 c 1,54,55
 10 56 10 56 4 56 c 1,48,49
20 56 m 1,56,57
 20 57 20 57 20 60 c 1,58,59
 22 60 22 60 28 60 c 1,60,61
 28 59 28 59 28 56 c 1,62,63
 26 56 26 56 20 56 c 1,56,57
EndSplineSet
EndChar

StartChar: Aring
Encoding: 197 197 123
Width: 36
GlyphClass: 2
Flags: W
LayerCount: 2
Fore
SplineSet
24 24 m 1,0,1
 24 28 24 28 24 40 c 1,2,3
 23 40 23 40 20 40 c 1,4,5
 20 42 20 42 20 48 c 1,6,7
 18 48 18 48 12 48 c 1,8,9
 12 46 12 46 12 40 c 1,10,11
 11 40 11 40 8 40 c 1,12,13
 8 36 8 36 8 24 c 1,14,15
 12 24 12 24 24 24 c 1,0,1
0 0 m 1,16,17
 0 10 0 10 0 40 c 1,18,19
 1 40 1 40 4 40 c 1,20,21
 4 42 4 42 4 48 c 1,22,23
 5 48 5 48 8 48 c 1,24,25
 8 49 8 49 8 52 c 1,26,27
 9 52 9 52 12 52 c 256,28,29
 15 52 15 52 24 52 c 1,30,31
 24 51 24 51 24 48 c 1,32,33
 25 48 25 48 28 48 c 1,34,35
 28 46 28 46 28 40 c 1,36,37
 29 40 29 40 32 40 c 1,38,39
 32 30 32 30 32 0 c 1,40,41
 30 0 30 0 24 0 c 1,42,43
 24 5 24 5 24 20 c 1,44,45
 20 20 20 20 8 20 c 1,46,47
 8 15 8 15 8 0 c 1,48,49
 6 0 6 0 0 0 c 1,16,17
12 56 m 1,50,51
 12 57 12 57 12 60 c 1,52,53
 11 60 11 60 8 60 c 1,54,55
 8 61 8 61 8 64 c 1,56,57
 9 64 9 64 12 64 c 1,58,59
 12 65 12 65 12 68 c 1,60,61
 14 68 14 68 20 68 c 1,62,63
 20 67 20 67 20 64 c 1,64,65
 21 64 21 64 24 64 c 1,66,67
 24 63 24 63 24 60 c 1,68,69
 23 60 23 60 20 60 c 1,70,71
 20 59 20 59 20 56 c 1,72,73
 18 56 18 56 12 56 c 1,50,51
EndSplineSet
EndChar

StartChar: AE
Encoding: 198 198 124
Width: 60
GlyphClass: 2
Flags: W
LayerCount: 2
Fore
SplineSet
24 24 m 1,0,1
 24 30 24 30 24 48 c 1,2,3
 21 48 21 48 12 48 c 1,4,5
 12 46 12 46 12 40 c 1,6,7
 11 40 11 40 8 40 c 1,8,9
 8 36 8 36 8 24 c 1,10,11
 12 24 12 24 24 24 c 1,0,1
0 0 m 1,12,13
 0 10 0 10 0 40 c 1,14,15
 1 40 1 40 4 40 c 1,16,17
 4 42 4 42 4 48 c 1,18,19
 5 48 5 48 8 48 c 1,20,21
 8 49 8 49 8 52 c 1,22,23
 20 52 20 52 56 52 c 1,24,25
 56 51 56 51 56 48 c 1,26,27
 50 48 50 48 32 48 c 1,28,29
 32 43 32 43 32 28 c 1,30,31
 36 28 36 28 48 28 c 1,32,33
 48 27 48 27 48 24 c 1,34,35
 44 24 44 24 32 24 c 1,36,37
 32 19 32 19 32 4 c 1,38,39
 38 4 38 4 56 4 c 1,40,41
 56 3 56 3 56 0 c 1,42,43
 48 0 48 0 24 0 c 1,44,45
 24 5 24 5 24 20 c 1,46,47
 20 20 20 20 8 20 c 1,48,49
 8 15 8 15 8 0 c 1,50,51
 6 0 6 0 0 0 c 1,12,13
EndSplineSet
EndChar

StartChar: Ccedilla
Encoding: 199 199 125
Width: 36
GlyphClass: 2
Flags: W
LayerCount: 2
Fore
SplineSet
8 -12 m 1,0,1
 8 -11 8 -11 8 -8 c 1,2,3
 10 -8 10 -8 16 -8 c 1,4,5
 16 -7 16 -7 16 -4 c 1,6,7
 15 -4 15 -4 12 -4 c 1,8,9
 12 -3 12 -3 12 0 c 1,10,11
 11 0 11 0 8 0 c 1,12,13
 8 1 8 1 8 4 c 1,14,15
 7 4 7 4 4 4 c 1,16,17
 4 5 4 5 4 8 c 1,18,19
 3 8 3 8 0 8 c 1,20,21
 0 17 0 17 0 44 c 1,22,23
 1 44 1 44 4 44 c 1,24,25
 4 45 4 45 4 48 c 1,26,27
 5 48 5 48 8 48 c 1,28,29
 8 49 8 49 8 52 c 1,30,31
 12 52 12 52 24 52 c 1,32,33
 24 51 24 51 24 48 c 1,34,35
 25 48 25 48 28 48 c 1,36,37
 28 47 28 47 28 44 c 1,38,39
 29 44 29 44 32 44 c 1,40,41
 32 43 32 43 32 40 c 1,42,43
 30 40 30 40 24 40 c 1,44,45
 24 41 24 41 24 44 c 1,46,47
 23 44 23 44 20 44 c 1,48,49
 20 45 20 45 20 48 c 1,50,51
 18 48 18 48 12 48 c 1,52,53
 12 47 12 47 12 44 c 1,54,55
 11 44 11 44 8 44 c 1,56,57
 8 35 8 35 8 8 c 1,58,59
 9 8 9 8 12 8 c 1,60,61
 12 7 12 7 12 4 c 1,62,63
 14 4 14 4 20 4 c 1,64,65
 20 5 20 5 20 8 c 1,66,67
 21 8 21 8 24 8 c 1,68,69
 24 9 24 9 24 12 c 1,70,71
 26 12 26 12 32 12 c 1,72,73
 32 11 32 11 32 8 c 1,74,75
 31 8 31 8 28 8 c 1,76,77
 28 7 28 7 28 4 c 1,78,79
 27 4 27 4 24 4 c 1,80,81
 24 3 24 3 24 0 c 1,82,83
 23 0 23 0 20 0 c 1,84,85
 20 -1 20 -1 20 -4 c 1,86,87
 21 -4 21 -4 24 -4 c 1,88,89
 24 -5 24 -5 24 -8 c 1,90,91
 23 -8 23 -8 20 -8 c 1,92,93
 20 -9 20 -9 20 -12 c 1,94,95
 17 -12 17 -12 8 -12 c 1,0,1
EndSplineSet
EndChar

StartChar: Egrave
Encoding: 200 200 126
Width: 36
GlyphClass: 2
Flags: W
LayerCount: 2
Fore
SplineSet
0 0 m 1,0,1
 0 13 0 13 0 52 c 1,2,3
 1 52 1 52 4 52 c 0,4,5
 11 52 11 52 32 52 c 1,6,7
 32 51 32 51 32 48 c 1,8,9
 26 48 26 48 8 48 c 1,10,11
 8 43 8 43 8 28 c 1,12,13
 11 28 11 28 20 28 c 1,14,15
 20 27 20 27 20 24 c 1,16,17
 17 24 17 24 8 24 c 1,18,19
 8 19 8 19 8 4 c 1,20,21
 14 4 14 4 32 4 c 1,22,23
 32 3 32 3 32 0 c 1,24,25
 24 0 24 0 0 0 c 1,0,1
12 56 m 1,26,27
 12 57 12 57 12 60 c 1,28,29
 11 60 11 60 8 60 c 1,30,31
 8 61 8 61 8 64 c 1,32,33
 7 64 7 64 4 64 c 1,34,35
 4 65 4 65 4 68 c 1,36,37
 6 68 6 68 12 68 c 1,38,39
 12 67 12 67 12 64 c 1,40,41
 13 64 13 64 16 64 c 1,42,43
 16 63 16 63 16 60 c 1,44,45
 17 60 17 60 20 60 c 1,46,47
 20 59 20 59 20 56 c 1,48,49
 18 56 18 56 12 56 c 1,26,27
EndSplineSet
EndChar

StartChar: Eacute
Encoding: 201 201 127
Width: 36
GlyphClass: 2
Flags: W
LayerCount: 2
Fore
SplineSet
0 0 m 1,0,1
 0 13 0 13 0 52 c 1,2,3
 5 52 5 52 20 52 c 0,4,5
 23 52 23 52 32 52 c 1,6,7
 32 51 32 51 32 48 c 1,8,9
 26 48 26 48 8 48 c 1,10,11
 8 43 8 43 8 28 c 1,12,13
 12 28 12 28 24 28 c 1,14,15
 24 27 24 27 24 24 c 1,16,17
 20 24 20 24 8 24 c 1,18,19
 8 19 8 19 8 4 c 1,20,21
 14 4 14 4 32 4 c 1,22,23
 32 3 32 3 32 0 c 1,24,25
 24 0 24 0 0 0 c 1,0,1
12 56 m 1,26,27
 12 57 12 57 12 60 c 1,28,29
 13 60 13 60 16 60 c 1,30,31
 16 61 16 61 16 64 c 1,32,33
 17 64 17 64 20 64 c 1,34,35
 20 65 20 65 20 68 c 1,36,37
 22 68 22 68 28 68 c 1,38,39
 28 67 28 67 28 64 c 1,40,41
 27 64 27 64 24 64 c 1,42,43
 24 63 24 63 24 60 c 1,44,45
 23 60 23 60 20 60 c 1,46,47
 20 59 20 59 20 56 c 1,48,49
 18 56 18 56 12 56 c 1,26,27
EndSplineSet
EndChar

StartChar: Ecircumflex
Encoding: 202 202 128
Width: 36
GlyphClass: 2
Flags: W
LayerCount: 2
Fore
SplineSet
0 0 m 1,0,1
 0 13 0 13 0 52 c 1,2,3
 3 52 3 52 12 52 c 0,4,5
 17 52 17 52 32 52 c 1,6,7
 32 51 32 51 32 48 c 1,8,9
 26 48 26 48 8 48 c 1,10,11
 8 43 8 43 8 28 c 1,12,13
 12 28 12 28 24 28 c 1,14,15
 24 27 24 27 24 24 c 1,16,17
 20 24 20 24 8 24 c 1,18,19
 8 19 8 19 8 4 c 1,20,21
 14 4 14 4 32 4 c 1,22,23
 32 3 32 3 32 0 c 1,24,25
 24 0 24 0 0 0 c 1,0,1
4 56 m 1,26,27
 4 57 4 57 4 60 c 1,28,29
 5 60 5 60 8 60 c 1,30,31
 8 61 8 61 8 64 c 1,32,33
 9 64 9 64 12 64 c 1,34,35
 12 65 12 65 12 68 c 1,36,37
 14 68 14 68 20 68 c 1,38,39
 20 67 20 67 20 64 c 1,40,41
 21 64 21 64 24 64 c 1,42,43
 24 63 24 63 24 60 c 1,44,45
 25 60 25 60 28 60 c 1,46,47
 28 59 28 59 28 56 c 1,48,49
 26 56 26 56 20 56 c 1,50,51
 20 57 20 57 20 60 c 1,52,53
 18 60 18 60 12 60 c 1,54,55
 12 59 12 59 12 56 c 1,56,57
 10 56 10 56 4 56 c 1,26,27
EndSplineSet
EndChar

StartChar: Edieresis
Encoding: 203 203 129
Width: 36
GlyphClass: 2
Flags: W
LayerCount: 2
Fore
SplineSet
0 0 m 1,0,1
 0 13 0 13 0 52 c 1,2,3
 1 52 1 52 4 52 c 0,4,5
 11 52 11 52 32 52 c 1,6,7
 32 51 32 51 32 48 c 1,8,9
 26 48 26 48 8 48 c 1,10,11
 8 43 8 43 8 28 c 1,12,13
 12 28 12 28 24 28 c 1,14,15
 24 27 24 27 24 24 c 1,16,17
 20 24 20 24 8 24 c 1,18,19
 8 19 8 19 8 4 c 1,20,21
 14 4 14 4 32 4 c 1,22,23
 32 3 32 3 32 0 c 1,24,25
 24 0 24 0 0 0 c 1,0,1
4 56 m 1,26,27
 4 57 4 57 4 60 c 1,28,29
 6 60 6 60 12 60 c 1,30,31
 12 59 12 59 12 56 c 1,32,33
 10 56 10 56 4 56 c 1,26,27
20 56 m 1,34,35
 20 57 20 57 20 60 c 1,36,37
 22 60 22 60 28 60 c 1,38,39
 28 59 28 59 28 56 c 1,40,41
 26 56 26 56 20 56 c 1,34,35
EndSplineSet
EndChar

StartChar: Igrave
Encoding: 204 204 130
Width: 12
GlyphClass: 2
Flags: W
LayerCount: 2
Fore
SplineSet
0 0 m 1,0,1
 0 13 0 13 0 52 c 1,2,3
 2 52 2 52 8 52 c 1,4,5
 8 39 8 39 8 0 c 1,6,7
 6 0 6 0 0 0 c 1,0,1
0 56 m 1,8,9
 0 57 0 57 0 60 c 1,10,11
 -1 60 -1 60 -4 60 c 1,12,13
 -4 61 -4 61 -4 64 c 1,14,15
 -5 64 -5 64 -8 64 c 1,16,17
 -8 65 -8 65 -8 68 c 1,18,19
 -6 68 -6 68 0 68 c 1,20,21
 0 67 0 67 0 64 c 1,22,23
 1 64 1 64 4 64 c 1,24,25
 4 63 4 63 4 60 c 1,26,27
 5 60 5 60 8 60 c 1,28,29
 8 59 8 59 8 56 c 1,30,31
 6 56 6 56 0 56 c 1,8,9
EndSplineSet
EndChar

StartChar: Iacute
Encoding: 205 205 131
Width: 12
GlyphClass: 2
Flags: W
LayerCount: 2
Fore
SplineSet
0 0 m 1,0,1
 0 13 0 13 0 52 c 1,2,3
 2 52 2 52 8 52 c 1,4,5
 8 39 8 39 8 0 c 1,6,7
 6 0 6 0 0 0 c 1,0,1
0 56 m 1,8,9
 0 57 0 57 0 60 c 1,10,11
 1 60 1 60 4 60 c 1,12,13
 4 61 4 61 4 64 c 1,14,15
 5 64 5 64 8 64 c 1,16,17
 8 65 8 65 8 68 c 1,18,19
 10 68 10 68 16 68 c 1,20,21
 16 67 16 67 16 64 c 1,22,23
 15 64 15 64 12 64 c 1,24,25
 12 63 12 63 12 60 c 1,26,27
 11 60 11 60 8 60 c 1,28,29
 8 59 8 59 8 56 c 1,30,31
 6 56 6 56 0 56 c 1,8,9
EndSplineSet
EndChar

StartChar: Icircumflex
Encoding: 206 206 132
Width: 12
GlyphClass: 2
Flags: W
LayerCount: 2
Fore
SplineSet
0 0 m 1,0,1
 0 13 0 13 0 52 c 1,2,3
 2 52 2 52 8 52 c 1,4,5
 8 39 8 39 8 0 c 1,6,7
 6 0 6 0 0 0 c 1,0,1
-8 56 m 1,8,9
 -8 57 -8 57 -8 60 c 1,10,11
 -7 60 -7 60 -4 60 c 1,12,13
 -4 61 -4 61 -4 64 c 1,14,15
 -3 64 -3 64 0 64 c 1,16,17
 0 65 0 65 0 68 c 1,18,19
 2 68 2 68 8 68 c 1,20,21
 8 67 8 67 8 64 c 1,22,23
 9 64 9 64 12 64 c 1,24,25
 12 63 12 63 12 60 c 1,26,27
 13 60 13 60 16 60 c 1,28,29
 16 59 16 59 16 56 c 1,30,31
 14 56 14 56 8 56 c 1,32,33
 8 57 8 57 8 60 c 1,34,35
 6 60 6 60 0 60 c 1,36,37
 0 59 0 59 0 56 c 1,38,39
 -2 56 -2 56 -8 56 c 1,8,9
EndSplineSet
EndChar

StartChar: Idieresis
Encoding: 207 207 133
Width: 12
GlyphClass: 2
Flags: W
LayerCount: 2
Fore
SplineSet
0 0 m 1,0,1
 0 13 0 13 0 52 c 1,2,3
 2 52 2 52 8 52 c 1,4,5
 8 39 8 39 8 0 c 1,6,7
 6 0 6 0 0 0 c 1,0,1
-8 56 m 1,8,9
 -8 57 -8 57 -8 60 c 1,10,11
 -6 60 -6 60 0 60 c 1,12,13
 0 59 0 59 0 56 c 1,14,15
 -2 56 -2 56 -8 56 c 1,8,9
8 56 m 1,16,17
 8 57 8 57 8 60 c 1,18,19
 10 60 10 60 16 60 c 1,20,21
 16 59 16 59 16 56 c 1,22,23
 14 56 14 56 8 56 c 1,16,17
EndSplineSet
EndChar

StartChar: Eth
Encoding: 208 208 134
Width: 36
GlyphClass: 2
Flags: W
LayerCount: 2
Fore
SplineSet
20 4 m 1,0,1
 20 5 20 5 20 8 c 1,2,3
 21 8 21 8 24 8 c 1,4,5
 24 17 24 17 24 44 c 1,6,7
 23 44 23 44 20 44 c 1,8,9
 20 45 20 45 20 48 c 1,10,11
 17 48 17 48 8 48 c 1,12,13
 8 43 8 43 8 28 c 1,14,15
 10 28 10 28 16 28 c 1,16,17
 16 27 16 27 16 24 c 1,18,19
 14 24 14 24 8 24 c 1,20,21
 8 19 8 19 8 4 c 1,22,23
 11 4 11 4 20 4 c 1,0,1
0 0 m 1,24,25
 0 6 0 6 0 24 c 1,26,27
 -1 24 -1 24 -4 24 c 1,28,29
 -4 25 -4 25 -4 28 c 1,30,31
 -3 28 -3 28 0 28 c 1,32,33
 0 34 0 34 0 52 c 1,34,35
 6 52 6 52 24 52 c 1,36,37
 24 51 24 51 24 48 c 1,38,39
 25 48 25 48 28 48 c 1,40,41
 28 47 28 47 28 44 c 1,42,43
 29 44 29 44 32 44 c 1,44,45
 32 35 32 35 32 8 c 1,46,47
 31 8 31 8 28 8 c 1,48,49
 28 7 28 7 28 4 c 1,50,51
 27 4 27 4 24 4 c 1,52,53
 24 3 24 3 24 0 c 1,54,55
 18 0 18 0 0 0 c 1,24,25
EndSplineSet
EndChar

StartChar: Ntilde
Encoding: 209 209 135
Width: 36
GlyphClass: 2
Flags: W
LayerCount: 2
Fore
SplineSet
0 0 m 1,0,1
 0 13 0 13 0 52 c 1,2,3
 2 52 2 52 8 52 c 1,4,5
 8 49 8 49 8 40 c 1,6,7
 9 40 9 40 12 40 c 1,8,9
 12 39 12 39 12 36 c 1,10,11
 13 36 13 36 16 36 c 1,12,13
 16 35 16 35 16 32 c 1,14,15
 17 32 17 32 20 32 c 1,16,17
 20 31 20 31 20 28 c 1,18,19
 21 28 21 28 24 28 c 1,20,21
 24 34 24 34 24 52 c 1,22,23
 26 52 26 52 32 52 c 1,24,25
 32 39 32 39 32 0 c 1,26,27
 30 0 30 0 24 0 c 1,28,29
 24 5 24 5 24 20 c 1,30,31
 23 20 23 20 20 20 c 1,32,33
 20 21 20 21 20 24 c 1,34,35
 19 24 19 24 16 24 c 1,36,37
 16 25 16 25 16 28 c 1,38,39
 15 28 15 28 12 28 c 1,40,41
 12 29 12 29 12 32 c 1,42,43
 11 32 11 32 8 32 c 1,44,45
 8 24 8 24 8 0 c 1,46,47
 6 0 6 0 0 0 c 1,0,1
0 56 m 1,48,49
 0 57 0 57 0 60 c 1,50,51
 1 60 1 60 4 60 c 1,52,53
 4 61 4 61 4 64 c 1,54,55
 5 64 5 64 8 64 c 1,56,57
 8 65 8 65 8 68 c 1,58,59
 11 68 11 68 20 68 c 1,60,61
 20 67 20 67 20 64 c 1,62,63
 21 64 21 64 24 64 c 1,64,65
 24 65 24 65 24 68 c 1,66,67
 26 68 26 68 32 68 c 1,68,69
 32 66 32 66 32 60 c 1,70,71
 31 60 31 60 28 60 c 1,72,73
 28 59 28 59 28 56 c 1,74,75
 26 56 26 56 20 56 c 1,76,77
 20 57 20 57 20 60 c 1,78,79
 19 60 19 60 16 60 c 1,80,81
 16 61 16 61 16 64 c 1,82,83
 15 64 15 64 12 64 c 1,84,85
 12 63 12 63 12 60 c 1,86,87
 11 60 11 60 8 60 c 1,88,89
 8 59 8 59 8 56 c 1,90,91
 6 56 6 56 0 56 c 1,48,49
EndSplineSet
EndChar

StartChar: Ograve
Encoding: 210 210 136
Width: 36
GlyphClass: 2
Flags: W
LayerCount: 2
Fore
SplineSet
20 4 m 1,0,1
 20 5 20 5 20 8 c 1,2,3
 21 8 21 8 24 8 c 1,4,5
 24 17 24 17 24 44 c 1,6,7
 23 44 23 44 20 44 c 1,8,9
 20 45 20 45 20 48 c 1,10,11
 18 48 18 48 12 48 c 1,12,13
 12 47 12 47 12 44 c 1,14,15
 11 44 11 44 8 44 c 1,16,17
 8 35 8 35 8 8 c 1,18,19
 9 8 9 8 12 8 c 1,20,21
 12 7 12 7 12 4 c 1,22,23
 14 4 14 4 20 4 c 1,0,1
8 0 m 1,24,25
 8 1 8 1 8 4 c 1,26,27
 7 4 7 4 4 4 c 1,28,29
 4 5 4 5 4 8 c 1,30,31
 3 8 3 8 0 8 c 1,32,33
 0 17 0 17 0 44 c 1,34,35
 1 44 1 44 4 44 c 1,36,37
 4 45 4 45 4 48 c 1,38,39
 5 48 5 48 8 48 c 1,40,41
 8 49 8 49 8 52 c 1,42,43
 12 52 12 52 24 52 c 1,44,45
 24 51 24 51 24 48 c 1,46,47
 25 48 25 48 28 48 c 1,48,49
 28 47 28 47 28 44 c 1,50,51
 29 44 29 44 32 44 c 1,52,53
 32 35 32 35 32 8 c 1,54,55
 31 8 31 8 28 8 c 1,56,57
 28 7 28 7 28 4 c 1,58,59
 27 4 27 4 24 4 c 1,60,61
 24 3 24 3 24 0 c 1,62,63
 20 0 20 0 8 0 c 1,24,25
12 56 m 1,64,65
 12 57 12 57 12 60 c 1,66,67
 11 60 11 60 8 60 c 1,68,69
 8 61 8 61 8 64 c 1,70,71
 7 64 7 64 4 64 c 1,72,73
 4 65 4 65 4 68 c 1,74,75
 6 68 6 68 12 68 c 1,76,77
 12 67 12 67 12 64 c 1,78,79
 13 64 13 64 16 64 c 1,80,81
 16 63 16 63 16 60 c 1,82,83
 17 60 17 60 20 60 c 1,84,85
 20 59 20 59 20 56 c 1,86,87
 18 56 18 56 12 56 c 1,64,65
EndSplineSet
EndChar

StartChar: Oacute
Encoding: 211 211 137
Width: 36
GlyphClass: 2
Flags: W
LayerCount: 2
Fore
SplineSet
20 4 m 1,0,1
 20 5 20 5 20 8 c 1,2,3
 21 8 21 8 24 8 c 1,4,5
 24 17 24 17 24 44 c 1,6,7
 23 44 23 44 20 44 c 1,8,9
 20 45 20 45 20 48 c 1,10,11
 18 48 18 48 12 48 c 1,12,13
 12 47 12 47 12 44 c 1,14,15
 11 44 11 44 8 44 c 1,16,17
 8 35 8 35 8 8 c 1,18,19
 9 8 9 8 12 8 c 1,20,21
 12 7 12 7 12 4 c 1,22,23
 14 4 14 4 20 4 c 1,0,1
8 0 m 1,24,25
 8 1 8 1 8 4 c 1,26,27
 7 4 7 4 4 4 c 1,28,29
 4 5 4 5 4 8 c 1,30,31
 3 8 3 8 0 8 c 1,32,33
 0 17 0 17 0 44 c 1,34,35
 1 44 1 44 4 44 c 1,36,37
 4 45 4 45 4 48 c 1,38,39
 5 48 5 48 8 48 c 1,40,41
 8 49 8 49 8 52 c 1,42,43
 11 52 11 52 20 52 c 0,44,45
 21 52 21 52 24 52 c 1,46,47
 24 51 24 51 24 48 c 1,48,49
 25 48 25 48 28 48 c 1,50,51
 28 47 28 47 28 44 c 1,52,53
 29 44 29 44 32 44 c 1,54,55
 32 35 32 35 32 8 c 1,56,57
 31 8 31 8 28 8 c 1,58,59
 28 7 28 7 28 4 c 1,60,61
 27 4 27 4 24 4 c 1,62,63
 24 3 24 3 24 0 c 1,64,65
 20 0 20 0 8 0 c 1,24,25
12 56 m 1,66,67
 12 57 12 57 12 60 c 1,68,69
 13 60 13 60 16 60 c 1,70,71
 16 61 16 61 16 64 c 1,72,73
 17 64 17 64 20 64 c 1,74,75
 20 65 20 65 20 68 c 1,76,77
 22 68 22 68 28 68 c 1,78,79
 28 67 28 67 28 64 c 1,80,81
 27 64 27 64 24 64 c 1,82,83
 24 63 24 63 24 60 c 1,84,85
 23 60 23 60 20 60 c 1,86,87
 20 59 20 59 20 56 c 1,88,89
 18 56 18 56 12 56 c 1,66,67
EndSplineSet
EndChar

StartChar: Ocircumflex
Encoding: 212 212 138
Width: 36
GlyphClass: 2
Flags: W
LayerCount: 2
Fore
SplineSet
20 4 m 1,0,1
 20 5 20 5 20 8 c 1,2,3
 21 8 21 8 24 8 c 1,4,5
 24 17 24 17 24 44 c 1,6,7
 23 44 23 44 20 44 c 1,8,9
 20 45 20 45 20 48 c 1,10,11
 18 48 18 48 12 48 c 1,12,13
 12 47 12 47 12 44 c 1,14,15
 11 44 11 44 8 44 c 1,16,17
 8 35 8 35 8 8 c 1,18,19
 9 8 9 8 12 8 c 1,20,21
 12 7 12 7 12 4 c 1,22,23
 14 4 14 4 20 4 c 1,0,1
8 0 m 1,24,25
 8 1 8 1 8 4 c 1,26,27
 7 4 7 4 4 4 c 1,28,29
 4 5 4 5 4 8 c 1,30,31
 3 8 3 8 0 8 c 1,32,33
 0 17 0 17 0 44 c 1,34,35
 1 44 1 44 4 44 c 1,36,37
 4 45 4 45 4 48 c 1,38,39
 5 48 5 48 8 48 c 1,40,41
 8 49 8 49 8 52 c 1,42,43
 9 52 9 52 12 52 c 256,44,45
 15 52 15 52 24 52 c 1,46,47
 24 51 24 51 24 48 c 1,48,49
 25 48 25 48 28 48 c 1,50,51
 28 47 28 47 28 44 c 1,52,53
 29 44 29 44 32 44 c 1,54,55
 32 35 32 35 32 8 c 1,56,57
 31 8 31 8 28 8 c 1,58,59
 28 7 28 7 28 4 c 1,60,61
 27 4 27 4 24 4 c 1,62,63
 24 3 24 3 24 0 c 1,64,65
 20 0 20 0 8 0 c 1,24,25
4 56 m 1,66,67
 4 57 4 57 4 60 c 1,68,69
 5 60 5 60 8 60 c 1,70,71
 8 61 8 61 8 64 c 1,72,73
 9 64 9 64 12 64 c 1,74,75
 12 65 12 65 12 68 c 1,76,77
 14 68 14 68 20 68 c 1,78,79
 20 67 20 67 20 64 c 1,80,81
 21 64 21 64 24 64 c 1,82,83
 24 63 24 63 24 60 c 1,84,85
 25 60 25 60 28 60 c 1,86,87
 28 59 28 59 28 56 c 1,88,89
 26 56 26 56 20 56 c 1,90,91
 20 57 20 57 20 60 c 1,92,93
 18 60 18 60 12 60 c 1,94,95
 12 59 12 59 12 56 c 1,96,97
 11 56 11 56 8 56 c 0,98,99
 7 56 7 56 4 56 c 1,66,67
EndSplineSet
EndChar

StartChar: Otilde
Encoding: 213 213 139
Width: 36
GlyphClass: 2
Flags: W
LayerCount: 2
Fore
SplineSet
20 4 m 1,0,1
 20 5 20 5 20 8 c 1,2,3
 21 8 21 8 24 8 c 1,4,5
 24 17 24 17 24 44 c 1,6,7
 23 44 23 44 20 44 c 1,8,9
 20 45 20 45 20 48 c 1,10,11
 18 48 18 48 12 48 c 1,12,13
 12 47 12 47 12 44 c 1,14,15
 11 44 11 44 8 44 c 1,16,17
 8 35 8 35 8 8 c 1,18,19
 9 8 9 8 12 8 c 1,20,21
 12 7 12 7 12 4 c 1,22,23
 14 4 14 4 20 4 c 1,0,1
8 0 m 1,24,25
 8 1 8 1 8 4 c 1,26,27
 7 4 7 4 4 4 c 1,28,29
 4 5 4 5 4 8 c 1,30,31
 3 8 3 8 0 8 c 1,32,33
 0 17 0 17 0 44 c 1,34,35
 1 44 1 44 4 44 c 1,36,37
 4 45 4 45 4 48 c 1,38,39
 5 48 5 48 8 48 c 1,40,41
 8 49 8 49 8 52 c 1,42,43
 12 52 12 52 24 52 c 1,44,45
 24 51 24 51 24 48 c 1,46,47
 25 48 25 48 28 48 c 1,48,49
 28 47 28 47 28 44 c 1,50,51
 29 44 29 44 32 44 c 1,52,53
 32 35 32 35 32 8 c 1,54,55
 31 8 31 8 28 8 c 1,56,57
 28 7 28 7 28 4 c 1,58,59
 27 4 27 4 24 4 c 1,60,61
 24 3 24 3 24 0 c 1,62,63
 20 0 20 0 8 0 c 1,24,25
0 56 m 1,64,65
 0 57 0 57 0 60 c 1,66,67
 1 60 1 60 4 60 c 1,68,69
 4 61 4 61 4 64 c 1,70,71
 5 64 5 64 8 64 c 1,72,73
 8 65 8 65 8 68 c 1,74,75
 11 68 11 68 20 68 c 1,76,77
 20 67 20 67 20 64 c 1,78,79
 21 64 21 64 24 64 c 1,80,81
 24 65 24 65 24 68 c 1,82,83
 26 68 26 68 32 68 c 1,84,85
 32 66 32 66 32 60 c 1,86,87
 31 60 31 60 28 60 c 1,88,89
 28 59 28 59 28 56 c 1,90,91
 26 56 26 56 20 56 c 1,92,93
 20 57 20 57 20 60 c 1,94,95
 19 60 19 60 16 60 c 1,96,97
 16 61 16 61 16 64 c 1,98,99
 15 64 15 64 12 64 c 1,100,101
 12 63 12 63 12 60 c 1,102,103
 11 60 11 60 8 60 c 1,104,105
 8 59 8 59 8 56 c 1,106,107
 6 56 6 56 0 56 c 1,64,65
EndSplineSet
EndChar

StartChar: Odieresis
Encoding: 214 214 140
Width: 36
GlyphClass: 2
Flags: W
LayerCount: 2
Fore
SplineSet
20 4 m 1,0,1
 20 5 20 5 20 8 c 1,2,3
 21 8 21 8 24 8 c 1,4,5
 24 17 24 17 24 44 c 1,6,7
 23 44 23 44 20 44 c 1,8,9
 20 45 20 45 20 48 c 1,10,11
 18 48 18 48 12 48 c 1,12,13
 12 47 12 47 12 44 c 1,14,15
 11 44 11 44 8 44 c 1,16,17
 8 35 8 35 8 8 c 1,18,19
 9 8 9 8 12 8 c 1,20,21
 12 7 12 7 12 4 c 1,22,23
 14 4 14 4 20 4 c 1,0,1
8 0 m 1,24,25
 8 1 8 1 8 4 c 1,26,27
 7 4 7 4 4 4 c 1,28,29
 4 5 4 5 4 8 c 1,30,31
 3 8 3 8 0 8 c 1,32,33
 0 17 0 17 0 44 c 1,34,35
 1 44 1 44 4 44 c 1,36,37
 4 45 4 45 4 48 c 1,38,39
 5 48 5 48 8 48 c 1,40,41
 8 49 8 49 8 52 c 1,42,43
 12 52 12 52 24 52 c 1,44,45
 24 51 24 51 24 48 c 1,46,47
 25 48 25 48 28 48 c 1,48,49
 28 47 28 47 28 44 c 1,50,51
 29 44 29 44 32 44 c 1,52,53
 32 35 32 35 32 8 c 1,54,55
 31 8 31 8 28 8 c 1,56,57
 28 7 28 7 28 4 c 1,58,59
 27 4 27 4 24 4 c 1,60,61
 24 3 24 3 24 0 c 1,62,63
 20 0 20 0 8 0 c 1,24,25
4 56 m 1,64,65
 4 57 4 57 4 60 c 1,66,67
 6 60 6 60 12 60 c 1,68,69
 12 59 12 59 12 56 c 1,70,71
 11 56 11 56 8 56 c 0,72,73
 7 56 7 56 4 56 c 1,64,65
20 56 m 1,74,75
 20 57 20 57 20 60 c 1,76,77
 22 60 22 60 28 60 c 1,78,79
 28 59 28 59 28 56 c 1,80,81
 26 56 26 56 20 56 c 1,74,75
EndSplineSet
EndChar

StartChar: multiply
Encoding: 215 215 141
Width: 28
GlyphClass: 2
Flags: W
LayerCount: 2
Fore
SplineSet
0 12 m 1,0,1
 0 13 0 13 0 16 c 1,2,3
 1 16 1 16 4 16 c 1,4,5
 4 17 4 17 4 20 c 1,6,7
 5 20 5 20 8 20 c 1,8,9
 8 21 8 21 8 24 c 1,10,11
 7 24 7 24 4 24 c 1,12,13
 4 25 4 25 4 28 c 1,14,15
 3 28 3 28 0 28 c 1,16,17
 0 29 0 29 0 32 c 1,18,19
 2 32 2 32 8 32 c 1,20,21
 8 31 8 31 8 28 c 1,22,23
 10 28 10 28 16 28 c 1,24,25
 16 29 16 29 16 32 c 1,26,27
 18 32 18 32 24 32 c 1,28,29
 24 31 24 31 24 28 c 1,30,31
 23 28 23 28 20 28 c 1,32,33
 20 27 20 27 20 24 c 1,34,35
 19 24 19 24 16 24 c 1,36,37
 16 23 16 23 16 20 c 1,38,39
 17 20 17 20 20 20 c 1,40,41
 20 19 20 19 20 16 c 1,42,43
 21 16 21 16 24 16 c 1,44,45
 24 15 24 15 24 12 c 1,46,47
 22 12 22 12 16 12 c 1,48,49
 16 13 16 13 16 16 c 1,50,51
 14 16 14 16 8 16 c 1,52,53
 8 15 8 15 8 12 c 1,54,55
 6 12 6 12 0 12 c 1,0,1
EndSplineSet
EndChar

StartChar: Oslash
Encoding: 216 216 142
Width: 44
GlyphClass: 2
Flags: W
LayerCount: 2
Fore
SplineSet
20 4 m 1,0,1
 20 5 20 5 20 8 c 1,2,3
 21 8 21 8 24 8 c 1,4,5
 24 13 24 13 24 28 c 1,6,7
 23 28 23 28 20 28 c 1,8,9
 20 27 20 27 20 24 c 1,10,11
 19 24 19 24 16 24 c 1,12,13
 16 23 16 23 16 20 c 1,14,15
 15 20 15 20 12 20 c 1,16,17
 12 19 12 19 12 16 c 1,18,19
 11 16 11 16 8 16 c 1,20,21
 8 14 8 14 8 8 c 1,22,23
 9 8 9 8 12 8 c 1,24,25
 12 7 12 7 12 4 c 1,26,27
 14 4 14 4 20 4 c 1,0,1
12 24 m 1,28,29
 12 25 12 25 12 28 c 1,30,31
 13 28 13 28 16 28 c 1,32,33
 16 29 16 29 16 32 c 1,34,35
 17 32 17 32 20 32 c 1,36,37
 20 33 20 33 20 36 c 1,38,39
 21 36 21 36 24 36 c 1,40,41
 24 38 24 38 24 44 c 1,42,43
 23 44 23 44 20 44 c 1,44,45
 20 45 20 45 20 48 c 1,46,47
 18 48 18 48 12 48 c 1,48,49
 12 47 12 47 12 44 c 1,50,51
 11 44 11 44 8 44 c 1,52,53
 8 39 8 39 8 24 c 1,54,55
 9 24 9 24 12 24 c 1,28,29
-8 0 m 1,56,57
 -8 1 -8 1 -8 4 c 1,58,59
 -7 4 -7 4 -4 4 c 1,60,61
 -4 5 -4 5 -4 8 c 1,62,63
 -3 8 -3 8 0 8 c 1,64,65
 0 17 0 17 0 44 c 1,66,67
 1 44 1 44 4 44 c 1,68,69
 4 45 4 45 4 48 c 1,70,71
 5 48 5 48 8 48 c 1,72,73
 8 49 8 49 8 52 c 1,74,75
 12 52 12 52 24 52 c 1,76,77
 24 51 24 51 24 48 c 1,78,79
 26 48 26 48 32 48 c 1,80,81
 32 49 32 49 32 52 c 1,82,83
 34 52 34 52 40 52 c 1,84,85
 40 51 40 51 40 48 c 1,86,87
 39 48 39 48 36 48 c 1,88,89
 36 47 36 47 36 44 c 1,90,91
 35 44 35 44 32 44 c 1,92,93
 32 35 32 35 32 8 c 1,94,95
 31 8 31 8 28 8 c 1,96,97
 28 7 28 7 28 4 c 1,98,99
 27 4 27 4 24 4 c 1,100,101
 24 3 24 3 24 0 c 1,102,103
 20 0 20 0 8 0 c 1,104,105
 8 1 8 1 8 4 c 1,106,107
 6 4 6 4 0 4 c 1,108,109
 0 3 0 3 0 0 c 1,110,111
 -2 0 -2 0 -8 0 c 1,56,57
EndSplineSet
EndChar

StartChar: Ugrave
Encoding: 217 217 143
Width: 36
GlyphClass: 2
Flags: W
LayerCount: 2
Fore
SplineSet
8 0 m 1,0,1
 8 1 8 1 8 4 c 1,2,3
 7 4 7 4 4 4 c 1,4,5
 4 5 4 5 4 8 c 1,6,7
 3 8 3 8 0 8 c 1,8,9
 0 19 0 19 0 52 c 1,10,11
 1 52 1 52 4 52 c 0,12,13
 5 52 5 52 8 52 c 1,14,15
 8 41 8 41 8 8 c 1,16,17
 9 8 9 8 12 8 c 1,18,19
 12 7 12 7 12 4 c 1,20,21
 14 4 14 4 20 4 c 1,22,23
 20 5 20 5 20 8 c 1,24,25
 21 8 21 8 24 8 c 1,26,27
 24 19 24 19 24 52 c 1,28,29
 26 52 26 52 32 52 c 1,30,31
 32 41 32 41 32 8 c 1,32,33
 31 8 31 8 28 8 c 1,34,35
 28 7 28 7 28 4 c 1,36,37
 27 4 27 4 24 4 c 1,38,39
 24 3 24 3 24 0 c 1,40,41
 20 0 20 0 8 0 c 1,0,1
12 56 m 1,42,43
 12 57 12 57 12 60 c 1,44,45
 11 60 11 60 8 60 c 1,46,47
 8 61 8 61 8 64 c 1,48,49
 7 64 7 64 4 64 c 1,50,51
 4 65 4 65 4 68 c 1,52,53
 6 68 6 68 12 68 c 1,54,55
 12 67 12 67 12 64 c 1,56,57
 13 64 13 64 16 64 c 1,58,59
 16 63 16 63 16 60 c 1,60,61
 17 60 17 60 20 60 c 1,62,63
 20 59 20 59 20 56 c 1,64,65
 18 56 18 56 12 56 c 1,42,43
EndSplineSet
EndChar

StartChar: Uacute
Encoding: 218 218 144
Width: 36
GlyphClass: 2
Flags: W
LayerCount: 2
Fore
SplineSet
8 0 m 1,0,1
 8 1 8 1 8 4 c 1,2,3
 7 4 7 4 4 4 c 1,4,5
 4 5 4 5 4 8 c 1,6,7
 3 8 3 8 0 8 c 1,8,9
 0 19 0 19 0 52 c 1,10,11
 2 52 2 52 8 52 c 1,12,13
 8 41 8 41 8 8 c 1,14,15
 9 8 9 8 12 8 c 1,16,17
 12 7 12 7 12 4 c 1,18,19
 14 4 14 4 20 4 c 1,20,21
 20 5 20 5 20 8 c 1,22,23
 21 8 21 8 24 8 c 1,24,25
 24 19 24 19 24 52 c 1,26,27
 26 52 26 52 32 52 c 1,28,29
 32 41 32 41 32 8 c 1,30,31
 31 8 31 8 28 8 c 1,32,33
 28 7 28 7 28 4 c 1,34,35
 27 4 27 4 24 4 c 1,36,37
 24 3 24 3 24 0 c 1,38,39
 20 0 20 0 8 0 c 1,0,1
12 56 m 1,40,41
 12 57 12 57 12 60 c 1,42,43
 13 60 13 60 16 60 c 1,44,45
 16 61 16 61 16 64 c 1,46,47
 17 64 17 64 20 64 c 1,48,49
 20 65 20 65 20 68 c 1,50,51
 22 68 22 68 28 68 c 1,52,53
 28 67 28 67 28 64 c 1,54,55
 27 64 27 64 24 64 c 1,56,57
 24 63 24 63 24 60 c 1,58,59
 23 60 23 60 20 60 c 1,60,61
 20 59 20 59 20 56 c 1,62,63
 18 56 18 56 12 56 c 1,40,41
EndSplineSet
EndChar

StartChar: Ucircumflex
Encoding: 219 219 145
Width: 36
GlyphClass: 2
Flags: W
LayerCount: 2
Fore
SplineSet
8 0 m 1,0,1
 8 1 8 1 8 4 c 1,2,3
 7 4 7 4 4 4 c 1,4,5
 4 5 4 5 4 8 c 1,6,7
 3 8 3 8 0 8 c 1,8,9
 0 19 0 19 0 52 c 1,10,11
 2 52 2 52 8 52 c 1,12,13
 8 41 8 41 8 8 c 1,14,15
 9 8 9 8 12 8 c 1,16,17
 12 7 12 7 12 4 c 1,18,19
 14 4 14 4 20 4 c 1,20,21
 20 5 20 5 20 8 c 1,22,23
 21 8 21 8 24 8 c 1,24,25
 24 19 24 19 24 52 c 1,26,27
 26 52 26 52 32 52 c 1,28,29
 32 41 32 41 32 8 c 1,30,31
 31 8 31 8 28 8 c 1,32,33
 28 7 28 7 28 4 c 1,34,35
 27 4 27 4 24 4 c 1,36,37
 24 3 24 3 24 0 c 1,38,39
 20 0 20 0 8 0 c 1,0,1
4 56 m 1,40,41
 4 57 4 57 4 60 c 1,42,43
 5 60 5 60 8 60 c 1,44,45
 8 61 8 61 8 64 c 1,46,47
 9 64 9 64 12 64 c 1,48,49
 12 65 12 65 12 68 c 1,50,51
 14 68 14 68 20 68 c 1,52,53
 20 67 20 67 20 64 c 1,54,55
 21 64 21 64 24 64 c 1,56,57
 24 63 24 63 24 60 c 1,58,59
 25 60 25 60 28 60 c 1,60,61
 28 59 28 59 28 56 c 1,62,63
 26 56 26 56 20 56 c 1,64,65
 20 57 20 57 20 60 c 1,66,67
 18 60 18 60 12 60 c 1,68,69
 12 59 12 59 12 56 c 1,70,71
 11 56 11 56 8 56 c 0,72,73
 7 56 7 56 4 56 c 1,40,41
EndSplineSet
EndChar

StartChar: Udieresis
Encoding: 220 220 146
Width: 36
GlyphClass: 2
Flags: W
LayerCount: 2
Fore
SplineSet
8 0 m 1,0,1
 8 1 8 1 8 4 c 1,2,3
 7 4 7 4 4 4 c 1,4,5
 4 5 4 5 4 8 c 1,6,7
 3 8 3 8 0 8 c 1,8,9
 0 19 0 19 0 52 c 1,10,11
 1 52 1 52 4 52 c 0,12,13
 5 52 5 52 8 52 c 1,14,15
 8 41 8 41 8 8 c 1,16,17
 9 8 9 8 12 8 c 1,18,19
 12 7 12 7 12 4 c 1,20,21
 14 4 14 4 20 4 c 1,22,23
 20 5 20 5 20 8 c 1,24,25
 21 8 21 8 24 8 c 1,26,27
 24 19 24 19 24 52 c 1,28,29
 26 52 26 52 32 52 c 1,30,31
 32 41 32 41 32 8 c 1,32,33
 31 8 31 8 28 8 c 1,34,35
 28 7 28 7 28 4 c 1,36,37
 27 4 27 4 24 4 c 1,38,39
 24 3 24 3 24 0 c 1,40,41
 20 0 20 0 8 0 c 1,0,1
4 56 m 1,42,43
 4 57 4 57 4 60 c 1,44,45
 6 60 6 60 12 60 c 1,46,47
 12 59 12 59 12 56 c 1,48,49
 11 56 11 56 8 56 c 0,50,51
 7 56 7 56 4 56 c 1,42,43
20 56 m 1,52,53
 20 57 20 57 20 60 c 1,54,55
 22 60 22 60 28 60 c 1,56,57
 28 59 28 59 28 56 c 1,58,59
 26 56 26 56 20 56 c 1,52,53
EndSplineSet
EndChar

StartChar: Yacute
Encoding: 221 221 147
Width: 36
GlyphClass: 2
Flags: W
LayerCount: 2
Fore
SplineSet
12 0 m 1,0,1
 12 6 12 6 12 24 c 1,2,3
 11 24 11 24 8 24 c 1,4,5
 8 25 8 25 8 28 c 1,6,7
 7 28 7 28 4 28 c 1,8,9
 4 30 4 30 4 36 c 1,10,11
 3 36 3 36 0 36 c 1,12,13
 0 40 0 40 0 52 c 1,14,15
 2 52 2 52 8 52 c 1,16,17
 8 48 8 48 8 36 c 1,18,19
 9 36 9 36 12 36 c 1,20,21
 12 34 12 34 12 28 c 1,22,23
 14 28 14 28 20 28 c 1,24,25
 20 30 20 30 20 36 c 1,26,27
 21 36 21 36 24 36 c 1,28,29
 24 40 24 40 24 52 c 1,30,31
 26 52 26 52 32 52 c 1,32,33
 32 48 32 48 32 36 c 1,34,35
 31 36 31 36 28 36 c 1,36,37
 28 34 28 34 28 28 c 1,38,39
 27 28 27 28 24 28 c 1,40,41
 24 27 24 27 24 24 c 1,42,43
 23 24 23 24 20 24 c 1,44,45
 20 18 20 18 20 0 c 1,46,47
 18 0 18 0 12 0 c 1,0,1
12 56 m 1,48,49
 12 57 12 57 12 60 c 1,50,51
 13 60 13 60 16 60 c 1,52,53
 16 61 16 61 16 64 c 1,54,55
 17 64 17 64 20 64 c 1,56,57
 20 65 20 65 20 68 c 1,58,59
 22 68 22 68 28 68 c 1,60,61
 28 67 28 67 28 64 c 1,62,63
 27 64 27 64 24 64 c 1,64,65
 24 63 24 63 24 60 c 1,66,67
 23 60 23 60 20 60 c 1,68,69
 20 59 20 59 20 56 c 1,70,71
 18 56 18 56 12 56 c 1,48,49
EndSplineSet
EndChar

StartChar: Thorn
Encoding: 222 222 148
Width: 36
GlyphClass: 2
Flags: W
LayerCount: 2
Fore
SplineSet
20 12 m 1,0,1
 20 13 20 13 20 16 c 1,2,3
 21 16 21 16 24 16 c 1,4,5
 24 21 24 21 24 36 c 1,6,7
 23 36 23 36 20 36 c 1,8,9
 20 37 20 37 20 40 c 1,10,11
 18 40 18 40 12 40 c 1,12,13
 12 39 12 39 12 36 c 1,14,15
 11 36 11 36 8 36 c 1,16,17
 8 31 8 31 8 16 c 1,18,19
 9 16 9 16 12 16 c 1,20,21
 12 15 12 15 12 12 c 1,22,23
 14 12 14 12 20 12 c 1,0,1
0 0 m 1,24,25
 0 13 0 13 0 52 c 1,26,27
 2 52 2 52 8 52 c 1,28,29
 8 50 8 50 8 44 c 1,30,31
 12 44 12 44 24 44 c 1,32,33
 24 43 24 43 24 40 c 1,34,35
 25 40 25 40 28 40 c 1,36,37
 28 39 28 39 28 36 c 1,38,39
 29 36 29 36 32 36 c 1,40,41
 32 31 32 31 32 16 c 1,42,43
 31 16 31 16 28 16 c 1,44,45
 28 15 28 15 28 12 c 1,46,47
 27 12 27 12 24 12 c 1,48,49
 24 11 24 11 24 8 c 1,50,51
 20 8 20 8 8 8 c 1,52,53
 8 6 8 6 8 0 c 1,54,55
 6 0 6 0 0 0 c 1,24,25
EndSplineSet
EndChar

StartChar: germandbls
Encoding: 223 223 149
Width: 36
GlyphClass: 2
Flags: W
LayerCount: 2
Fore
SplineSet
20 4 m 1,0,1
 20 5 20 5 20 8 c 1,2,3
 21 8 21 8 24 8 c 1,4,5
 24 10 24 10 24 16 c 1,6,7
 23 16 23 16 20 16 c 1,8,9
 20 17 20 17 20 20 c 1,10,11
 19 20 19 20 16 20 c 1,12,13
 16 21 16 21 16 24 c 1,14,15
 15 24 15 24 12 24 c 1,16,17
 12 25 12 25 12 28 c 1,18,19
 13 28 13 28 16 28 c 1,20,21
 16 29 16 29 16 32 c 1,22,23
 17 32 17 32 20 32 c 1,24,25
 20 33 20 33 20 36 c 1,26,27
 21 36 21 36 24 36 c 1,28,29
 24 38 24 38 24 44 c 1,30,31
 23 44 23 44 20 44 c 1,32,33
 20 45 20 45 20 48 c 1,34,35
 18 48 18 48 12 48 c 1,36,37
 12 47 12 47 12 44 c 1,38,39
 11 44 11 44 8 44 c 1,40,41
 8 34 8 34 8 4 c 1,42,43
 11 4 11 4 20 4 c 1,0,1
0 0 m 1,44,45
 0 11 0 11 0 44 c 1,46,47
 1 44 1 44 4 44 c 1,48,49
 4 45 4 45 4 48 c 1,50,51
 5 48 5 48 8 48 c 1,52,53
 8 49 8 49 8 52 c 1,54,55
 12 52 12 52 24 52 c 1,56,57
 24 51 24 51 24 48 c 1,58,59
 25 48 25 48 28 48 c 1,60,61
 28 47 28 47 28 44 c 1,62,63
 29 44 29 44 32 44 c 1,64,65
 32 42 32 42 32 36 c 1,66,67
 31 36 31 36 28 36 c 1,68,69
 28 35 28 35 28 32 c 1,70,71
 27 32 27 32 24 32 c 1,72,73
 24 31 24 31 24 28 c 1,74,75
 23 28 23 28 20 28 c 1,76,77
 20 27 20 27 20 24 c 1,78,79
 21 24 21 24 24 24 c 1,80,81
 24 23 24 23 24 20 c 1,82,83
 25 20 25 20 28 20 c 1,84,85
 28 19 28 19 28 16 c 1,86,87
 29 16 29 16 32 16 c 1,88,89
 32 14 32 14 32 8 c 1,90,91
 31 8 31 8 28 8 c 1,92,93
 28 7 28 7 28 4 c 1,94,95
 27 4 27 4 24 4 c 1,96,97
 24 3 24 3 24 0 c 1,98,99
 18 0 18 0 0 0 c 1,44,45
EndSplineSet
EndChar

StartChar: agrave
Encoding: 224 224 150
Width: 36
GlyphClass: 2
Flags: W
LayerCount: 2
Fore
SplineSet
20 4 m 1,0,1
 20 5 20 5 20 8 c 1,2,3
 21 8 21 8 24 8 c 1,4,5
 24 11 24 11 24 20 c 1,6,7
 21 20 21 20 12 20 c 1,8,9
 12 19 12 19 12 16 c 1,10,11
 11 16 11 16 8 16 c 1,12,13
 8 13 8 13 8 4 c 1,14,15
 11 4 11 4 20 4 c 1,0,1
4 0 m 1,16,17
 4 1 4 1 4 4 c 1,18,19
 3 4 3 4 0 4 c 1,20,21
 0 7 0 7 0 16 c 1,22,23
 1 16 1 16 4 16 c 1,24,25
 4 17 4 17 4 20 c 1,26,27
 5 20 5 20 8 20 c 1,28,29
 8 21 8 21 8 24 c 1,30,31
 12 24 12 24 24 24 c 1,32,33
 24 27 24 27 24 36 c 1,34,35
 21 36 21 36 12 36 c 1,36,37
 12 35 12 35 12 32 c 1,38,39
 11 32 11 32 8 32 c 1,40,41
 8 31 8 31 8 28 c 1,42,43
 6 28 6 28 0 28 c 1,44,45
 0 29 0 29 0 32 c 1,46,47
 1 32 1 32 4 32 c 1,48,49
 4 33 4 33 4 36 c 1,50,51
 5 36 5 36 8 36 c 1,52,53
 8 37 8 37 8 40 c 1,54,55
 13 40 13 40 28 40 c 1,56,57
 28 39 28 39 28 36 c 1,58,59
 29 36 29 36 32 36 c 1,60,61
 32 27 32 27 32 0 c 1,62,63
 25 0 25 0 4 0 c 1,16,17
12 44 m 1,64,65
 12 45 12 45 12 48 c 1,66,67
 11 48 11 48 8 48 c 1,68,69
 8 49 8 49 8 52 c 1,70,71
 7 52 7 52 4 52 c 1,72,73
 4 53 4 53 4 56 c 1,74,75
 6 56 6 56 12 56 c 1,76,77
 12 55 12 55 12 52 c 1,78,79
 13 52 13 52 16 52 c 1,80,81
 16 51 16 51 16 48 c 1,82,83
 17 48 17 48 20 48 c 1,84,85
 20 47 20 47 20 44 c 1,86,87
 18 44 18 44 12 44 c 1,64,65
EndSplineSet
EndChar

StartChar: aacute
Encoding: 225 225 151
Width: 36
GlyphClass: 2
Flags: W
LayerCount: 2
Fore
SplineSet
20 4 m 1,0,1
 20 5 20 5 20 8 c 1,2,3
 21 8 21 8 24 8 c 1,4,5
 24 11 24 11 24 20 c 1,6,7
 21 20 21 20 12 20 c 1,8,9
 12 19 12 19 12 16 c 1,10,11
 11 16 11 16 8 16 c 1,12,13
 8 13 8 13 8 4 c 1,14,15
 11 4 11 4 20 4 c 1,0,1
4 0 m 1,16,17
 4 1 4 1 4 4 c 1,18,19
 3 4 3 4 0 4 c 1,20,21
 0 7 0 7 0 16 c 1,22,23
 1 16 1 16 4 16 c 1,24,25
 4 17 4 17 4 20 c 1,26,27
 5 20 5 20 8 20 c 1,28,29
 8 21 8 21 8 24 c 1,30,31
 12 24 12 24 24 24 c 1,32,33
 24 27 24 27 24 36 c 1,34,35
 21 36 21 36 12 36 c 1,36,37
 12 35 12 35 12 32 c 1,38,39
 11 32 11 32 8 32 c 1,40,41
 8 31 8 31 8 28 c 1,42,43
 6 28 6 28 0 28 c 1,44,45
 0 29 0 29 0 32 c 1,46,47
 1 32 1 32 4 32 c 1,48,49
 4 33 4 33 4 36 c 1,50,51
 5 36 5 36 8 36 c 1,52,53
 8 37 8 37 8 40 c 1,54,55
 11 40 11 40 20 40 c 0,56,57
 22 40 22 40 28 40 c 1,58,59
 28 39 28 39 28 36 c 1,60,61
 29 36 29 36 32 36 c 1,62,63
 32 27 32 27 32 0 c 1,64,65
 25 0 25 0 4 0 c 1,16,17
12 44 m 1,66,67
 12 45 12 45 12 48 c 1,68,69
 13 48 13 48 16 48 c 1,70,71
 16 49 16 49 16 52 c 1,72,73
 17 52 17 52 20 52 c 1,74,75
 20 53 20 53 20 56 c 1,76,77
 22 56 22 56 28 56 c 1,78,79
 28 55 28 55 28 52 c 1,80,81
 27 52 27 52 24 52 c 1,82,83
 24 51 24 51 24 48 c 1,84,85
 23 48 23 48 20 48 c 1,86,87
 20 47 20 47 20 44 c 1,88,89
 18 44 18 44 12 44 c 1,66,67
EndSplineSet
EndChar

StartChar: acircumflex
Encoding: 226 226 152
Width: 36
GlyphClass: 2
Flags: W
LayerCount: 2
Fore
SplineSet
20 4 m 1,0,1
 20 5 20 5 20 8 c 1,2,3
 21 8 21 8 24 8 c 1,4,5
 24 11 24 11 24 20 c 1,6,7
 21 20 21 20 12 20 c 1,8,9
 12 19 12 19 12 16 c 1,10,11
 11 16 11 16 8 16 c 1,12,13
 8 13 8 13 8 4 c 1,14,15
 11 4 11 4 20 4 c 1,0,1
4 0 m 1,16,17
 4 1 4 1 4 4 c 1,18,19
 3 4 3 4 0 4 c 1,20,21
 0 7 0 7 0 16 c 1,22,23
 1 16 1 16 4 16 c 1,24,25
 4 17 4 17 4 20 c 1,26,27
 5 20 5 20 8 20 c 1,28,29
 8 21 8 21 8 24 c 1,30,31
 12 24 12 24 24 24 c 1,32,33
 24 27 24 27 24 36 c 1,34,35
 21 36 21 36 12 36 c 1,36,37
 12 35 12 35 12 32 c 1,38,39
 11 32 11 32 8 32 c 1,40,41
 8 31 8 31 8 28 c 1,42,43
 6 28 6 28 0 28 c 1,44,45
 0 29 0 29 0 32 c 1,46,47
 1 32 1 32 4 32 c 1,48,49
 4 33 4 33 4 36 c 1,50,51
 5 36 5 36 8 36 c 1,52,53
 8 37 8 37 8 40 c 1,54,55
 9 40 9 40 12 40 c 0,56,57
 16 40 16 40 28 40 c 1,58,59
 28 39 28 39 28 36 c 1,60,61
 29 36 29 36 32 36 c 1,62,63
 32 27 32 27 32 0 c 1,64,65
 25 0 25 0 4 0 c 1,16,17
4 44 m 1,66,67
 4 45 4 45 4 48 c 1,68,69
 5 48 5 48 8 48 c 1,70,71
 8 49 8 49 8 52 c 1,72,73
 9 52 9 52 12 52 c 1,74,75
 12 53 12 53 12 56 c 1,76,77
 14 56 14 56 20 56 c 1,78,79
 20 55 20 55 20 52 c 1,80,81
 21 52 21 52 24 52 c 1,82,83
 24 51 24 51 24 48 c 1,84,85
 25 48 25 48 28 48 c 1,86,87
 28 47 28 47 28 44 c 1,88,89
 26 44 26 44 20 44 c 1,90,91
 20 45 20 45 20 48 c 1,92,93
 18 48 18 48 12 48 c 1,94,95
 12 47 12 47 12 44 c 1,96,97
 10 44 10 44 4 44 c 1,66,67
EndSplineSet
EndChar

StartChar: atilde
Encoding: 227 227 153
Width: 36
GlyphClass: 2
Flags: W
LayerCount: 2
Fore
SplineSet
20 4 m 1,0,1
 20 5 20 5 20 8 c 1,2,3
 21 8 21 8 24 8 c 1,4,5
 24 11 24 11 24 20 c 1,6,7
 21 20 21 20 12 20 c 1,8,9
 12 19 12 19 12 16 c 1,10,11
 11 16 11 16 8 16 c 1,12,13
 8 13 8 13 8 4 c 1,14,15
 11 4 11 4 20 4 c 1,0,1
4 0 m 1,16,17
 4 1 4 1 4 4 c 1,18,19
 3 4 3 4 0 4 c 1,20,21
 0 7 0 7 0 16 c 1,22,23
 1 16 1 16 4 16 c 1,24,25
 4 17 4 17 4 20 c 1,26,27
 5 20 5 20 8 20 c 1,28,29
 8 21 8 21 8 24 c 1,30,31
 12 24 12 24 24 24 c 1,32,33
 24 27 24 27 24 36 c 1,34,35
 21 36 21 36 12 36 c 1,36,37
 12 35 12 35 12 32 c 1,38,39
 11 32 11 32 8 32 c 1,40,41
 8 31 8 31 8 28 c 1,42,43
 6 28 6 28 0 28 c 1,44,45
 0 29 0 29 0 32 c 1,46,47
 1 32 1 32 4 32 c 1,48,49
 4 33 4 33 4 36 c 1,50,51
 5 36 5 36 8 36 c 1,52,53
 8 37 8 37 8 40 c 1,54,55
 13 40 13 40 28 40 c 1,56,57
 28 39 28 39 28 36 c 1,58,59
 29 36 29 36 32 36 c 1,60,61
 32 27 32 27 32 0 c 1,62,63
 25 0 25 0 4 0 c 1,16,17
0 44 m 1,64,65
 0 45 0 45 0 48 c 1,66,67
 1 48 1 48 4 48 c 1,68,69
 4 49 4 49 4 52 c 1,70,71
 5 52 5 52 8 52 c 1,72,73
 8 53 8 53 8 56 c 1,74,75
 11 56 11 56 20 56 c 1,76,77
 20 55 20 55 20 52 c 1,78,79
 21 52 21 52 24 52 c 1,80,81
 24 53 24 53 24 56 c 1,82,83
 26 56 26 56 32 56 c 1,84,85
 32 54 32 54 32 48 c 1,86,87
 31 48 31 48 28 48 c 1,88,89
 28 47 28 47 28 44 c 1,90,91
 26 44 26 44 20 44 c 1,92,93
 20 45 20 45 20 48 c 1,94,95
 19 48 19 48 16 48 c 1,96,97
 16 49 16 49 16 52 c 1,98,99
 15 52 15 52 12 52 c 1,100,101
 12 51 12 51 12 48 c 1,102,103
 11 48 11 48 8 48 c 1,104,105
 8 47 8 47 8 44 c 1,106,107
 7 44 7 44 4 44 c 0,108,109
 3 44 3 44 0 44 c 1,64,65
EndSplineSet
EndChar

StartChar: adieresis
Encoding: 228 228 154
Width: 36
GlyphClass: 2
Flags: W
LayerCount: 2
Fore
SplineSet
20 4 m 1,0,1
 20 5 20 5 20 8 c 1,2,3
 21 8 21 8 24 8 c 1,4,5
 24 11 24 11 24 20 c 1,6,7
 21 20 21 20 12 20 c 1,8,9
 12 19 12 19 12 16 c 1,10,11
 11 16 11 16 8 16 c 1,12,13
 8 13 8 13 8 4 c 1,14,15
 11 4 11 4 20 4 c 1,0,1
4 0 m 1,16,17
 4 1 4 1 4 4 c 1,18,19
 3 4 3 4 0 4 c 1,20,21
 0 7 0 7 0 16 c 1,22,23
 1 16 1 16 4 16 c 1,24,25
 4 17 4 17 4 20 c 1,26,27
 5 20 5 20 8 20 c 1,28,29
 8 21 8 21 8 24 c 1,30,31
 12 24 12 24 24 24 c 1,32,33
 24 27 24 27 24 36 c 1,34,35
 21 36 21 36 12 36 c 1,36,37
 12 35 12 35 12 32 c 1,38,39
 11 32 11 32 8 32 c 1,40,41
 8 31 8 31 8 28 c 1,42,43
 6 28 6 28 0 28 c 1,44,45
 0 29 0 29 0 32 c 1,46,47
 1 32 1 32 4 32 c 1,48,49
 4 33 4 33 4 36 c 1,50,51
 5 36 5 36 8 36 c 1,52,53
 8 37 8 37 8 40 c 1,54,55
 13 40 13 40 28 40 c 1,56,57
 28 39 28 39 28 36 c 1,58,59
 29 36 29 36 32 36 c 1,60,61
 32 27 32 27 32 0 c 1,62,63
 25 0 25 0 4 0 c 1,16,17
4 44 m 1,64,65
 4 45 4 45 4 48 c 1,66,67
 6 48 6 48 12 48 c 1,68,69
 12 47 12 47 12 44 c 1,70,71
 10 44 10 44 4 44 c 1,64,65
20 44 m 1,72,73
 20 45 20 45 20 48 c 1,74,75
 22 48 22 48 28 48 c 1,76,77
 28 47 28 47 28 44 c 1,78,79
 26 44 26 44 20 44 c 1,72,73
EndSplineSet
EndChar

StartChar: aring
Encoding: 229 229 155
Width: 36
GlyphClass: 2
Flags: W
LayerCount: 2
Fore
SplineSet
20 4 m 1,0,1
 20 5 20 5 20 8 c 1,2,3
 21 8 21 8 24 8 c 1,4,5
 24 11 24 11 24 20 c 1,6,7
 21 20 21 20 12 20 c 1,8,9
 12 19 12 19 12 16 c 1,10,11
 11 16 11 16 8 16 c 1,12,13
 8 13 8 13 8 4 c 1,14,15
 11 4 11 4 20 4 c 1,0,1
4 0 m 1,16,17
 4 1 4 1 4 4 c 1,18,19
 3 4 3 4 0 4 c 1,20,21
 0 7 0 7 0 16 c 1,22,23
 1 16 1 16 4 16 c 1,24,25
 4 17 4 17 4 20 c 1,26,27
 5 20 5 20 8 20 c 1,28,29
 8 21 8 21 8 24 c 1,30,31
 12 24 12 24 24 24 c 1,32,33
 24 27 24 27 24 36 c 1,34,35
 21 36 21 36 12 36 c 1,36,37
 12 35 12 35 12 32 c 1,38,39
 11 32 11 32 8 32 c 1,40,41
 8 31 8 31 8 28 c 1,42,43
 6 28 6 28 0 28 c 1,44,45
 0 29 0 29 0 32 c 1,46,47
 1 32 1 32 4 32 c 1,48,49
 4 33 4 33 4 36 c 1,50,51
 5 36 5 36 8 36 c 1,52,53
 8 37 8 37 8 40 c 1,54,55
 9 40 9 40 12 40 c 0,56,57
 16 40 16 40 28 40 c 1,58,59
 28 39 28 39 28 36 c 1,60,61
 29 36 29 36 32 36 c 1,62,63
 32 27 32 27 32 0 c 1,64,65
 25 0 25 0 4 0 c 1,16,17
12 44 m 1,66,67
 12 45 12 45 12 48 c 1,68,69
 11 48 11 48 8 48 c 1,70,71
 8 49 8 49 8 52 c 1,72,73
 9 52 9 52 12 52 c 1,74,75
 12 53 12 53 12 56 c 1,76,77
 14 56 14 56 20 56 c 1,78,79
 20 55 20 55 20 52 c 1,80,81
 21 52 21 52 24 52 c 1,82,83
 24 51 24 51 24 48 c 1,84,85
 23 48 23 48 20 48 c 1,86,87
 20 47 20 47 20 44 c 1,88,89
 18 44 18 44 12 44 c 1,66,67
EndSplineSet
EndChar

StartChar: ae
Encoding: 230 230 156
Width: 60
GlyphClass: 2
Flags: W
LayerCount: 2
Fore
SplineSet
20 4 m 1,0,1
 20 5 20 5 20 8 c 1,2,3
 21 8 21 8 24 8 c 1,4,5
 24 11 24 11 24 20 c 1,6,7
 21 20 21 20 12 20 c 1,8,9
 12 19 12 19 12 16 c 1,10,11
 11 16 11 16 8 16 c 1,12,13
 8 13 8 13 8 4 c 1,14,15
 11 4 11 4 20 4 c 1,0,1
48 24 m 1,16,17
 48 26 48 26 48 32 c 1,18,19
 47 32 47 32 44 32 c 1,20,21
 44 33 44 33 44 36 c 1,22,23
 42 36 42 36 36 36 c 1,24,25
 36 35 36 35 36 32 c 1,26,27
 35 32 35 32 32 32 c 1,28,29
 32 30 32 30 32 24 c 1,30,31
 36 24 36 24 48 24 c 1,16,17
4 0 m 1,32,33
 4 1 4 1 4 4 c 1,34,35
 3 4 3 4 0 4 c 1,36,37
 0 7 0 7 0 16 c 1,38,39
 1 16 1 16 4 16 c 1,40,41
 4 17 4 17 4 20 c 1,42,43
 5 20 5 20 8 20 c 1,44,45
 8 21 8 21 8 24 c 1,46,47
 12 24 12 24 24 24 c 1,48,49
 24 27 24 27 24 36 c 1,50,51
 21 36 21 36 12 36 c 1,52,53
 12 35 12 35 12 32 c 1,54,55
 11 32 11 32 8 32 c 1,56,57
 8 31 8 31 8 28 c 1,58,59
 6 28 6 28 0 28 c 1,60,61
 0 29 0 29 0 32 c 1,62,63
 1 32 1 32 4 32 c 1,64,65
 4 33 4 33 4 36 c 1,66,67
 5 36 5 36 8 36 c 1,68,69
 8 37 8 37 8 40 c 1,70,71
 13 40 13 40 28 40 c 1,72,73
 28 39 28 39 28 36 c 1,74,75
 29 36 29 36 32 36 c 1,76,77
 32 37 32 37 32 40 c 1,78,79
 36 40 36 40 48 40 c 1,80,81
 48 39 48 39 48 36 c 1,82,83
 49 36 49 36 52 36 c 1,84,85
 52 35 52 35 52 32 c 1,86,87
 53 32 53 32 56 32 c 1,88,89
 56 29 56 29 56 20 c 1,90,91
 50 20 50 20 32 20 c 1,92,93
 32 17 32 17 32 8 c 1,94,95
 33 8 33 8 36 8 c 1,96,97
 36 7 36 7 36 4 c 1,98,99
 38 4 38 4 44 4 c 1,100,101
 44 5 44 5 44 8 c 1,102,103
 45 8 45 8 48 8 c 1,104,105
 48 9 48 9 48 12 c 1,106,107
 50 12 50 12 56 12 c 1,108,109
 56 11 56 11 56 8 c 1,110,111
 55 8 55 8 52 8 c 1,112,113
 52 7 52 7 52 4 c 1,114,115
 51 4 51 4 48 4 c 1,116,117
 48 3 48 3 48 0 c 1,118,119
 37 0 37 0 4 0 c 1,32,33
EndSplineSet
EndChar

StartChar: ccedilla
Encoding: 231 231 157
Width: 36
GlyphClass: 2
Flags: W
LayerCount: 2
Fore
SplineSet
8 -12 m 1,0,1
 8 -11 8 -11 8 -8 c 1,2,3
 10 -8 10 -8 16 -8 c 1,4,5
 16 -7 16 -7 16 -4 c 1,6,7
 15 -4 15 -4 12 -4 c 1,8,9
 12 -3 12 -3 12 0 c 1,10,11
 11 0 11 0 8 0 c 1,12,13
 8 1 8 1 8 4 c 1,14,15
 7 4 7 4 4 4 c 1,16,17
 4 5 4 5 4 8 c 1,18,19
 3 8 3 8 0 8 c 1,20,21
 0 14 0 14 0 32 c 1,22,23
 1 32 1 32 4 32 c 1,24,25
 4 33 4 33 4 36 c 1,26,27
 5 36 5 36 8 36 c 1,28,29
 8 37 8 37 8 40 c 1,30,31
 12 40 12 40 24 40 c 1,32,33
 24 39 24 39 24 36 c 1,34,35
 25 36 25 36 28 36 c 1,36,37
 28 35 28 35 28 32 c 1,38,39
 29 32 29 32 32 32 c 1,40,41
 32 31 32 31 32 28 c 1,42,43
 30 28 30 28 24 28 c 1,44,45
 24 29 24 29 24 32 c 1,46,47
 23 32 23 32 20 32 c 1,48,49
 20 33 20 33 20 36 c 1,50,51
 18 36 18 36 12 36 c 1,52,53
 12 35 12 35 12 32 c 1,54,55
 11 32 11 32 8 32 c 1,56,57
 8 26 8 26 8 8 c 1,58,59
 9 8 9 8 12 8 c 1,60,61
 12 7 12 7 12 4 c 1,62,63
 14 4 14 4 20 4 c 1,64,65
 20 5 20 5 20 8 c 1,66,67
 21 8 21 8 24 8 c 1,68,69
 24 9 24 9 24 12 c 1,70,71
 26 12 26 12 32 12 c 1,72,73
 32 11 32 11 32 8 c 1,74,75
 31 8 31 8 28 8 c 1,76,77
 28 7 28 7 28 4 c 1,78,79
 27 4 27 4 24 4 c 1,80,81
 24 3 24 3 24 0 c 1,82,83
 23 0 23 0 20 0 c 1,84,85
 20 -1 20 -1 20 -4 c 1,86,87
 21 -4 21 -4 24 -4 c 1,88,89
 24 -5 24 -5 24 -8 c 1,90,91
 23 -8 23 -8 20 -8 c 1,92,93
 20 -9 20 -9 20 -12 c 1,94,95
 17 -12 17 -12 8 -12 c 1,0,1
EndSplineSet
EndChar

StartChar: egrave
Encoding: 232 232 158
Width: 36
GlyphClass: 2
Flags: W
LayerCount: 2
Fore
SplineSet
24 24 m 1,0,1
 24 26 24 26 24 32 c 1,2,3
 23 32 23 32 20 32 c 1,4,5
 20 33 20 33 20 36 c 1,6,7
 18 36 18 36 12 36 c 1,8,9
 12 35 12 35 12 32 c 1,10,11
 11 32 11 32 8 32 c 1,12,13
 8 30 8 30 8 24 c 1,14,15
 12 24 12 24 24 24 c 1,0,1
8 0 m 1,16,17
 8 1 8 1 8 4 c 1,18,19
 7 4 7 4 4 4 c 1,20,21
 4 5 4 5 4 8 c 1,22,23
 3 8 3 8 0 8 c 1,24,25
 0 14 0 14 0 32 c 1,26,27
 1 32 1 32 4 32 c 1,28,29
 4 33 4 33 4 36 c 1,30,31
 5 36 5 36 8 36 c 1,32,33
 8 37 8 37 8 40 c 1,34,35
 12 40 12 40 24 40 c 1,36,37
 24 39 24 39 24 36 c 1,38,39
 25 36 25 36 28 36 c 1,40,41
 28 35 28 35 28 32 c 1,42,43
 29 32 29 32 32 32 c 1,44,45
 32 29 32 29 32 20 c 1,46,47
 26 20 26 20 8 20 c 1,48,49
 8 17 8 17 8 8 c 1,50,51
 9 8 9 8 12 8 c 1,52,53
 12 7 12 7 12 4 c 1,54,55
 14 4 14 4 20 4 c 1,56,57
 20 5 20 5 20 8 c 1,58,59
 21 8 21 8 24 8 c 1,60,61
 24 9 24 9 24 12 c 1,62,63
 26 12 26 12 32 12 c 1,64,65
 32 11 32 11 32 8 c 1,66,67
 31 8 31 8 28 8 c 1,68,69
 28 7 28 7 28 4 c 1,70,71
 27 4 27 4 24 4 c 1,72,73
 24 3 24 3 24 0 c 1,74,75
 20 0 20 0 8 0 c 1,16,17
12 44 m 1,76,77
 12 45 12 45 12 48 c 1,78,79
 11 48 11 48 8 48 c 1,80,81
 8 49 8 49 8 52 c 1,82,83
 7 52 7 52 4 52 c 1,84,85
 4 53 4 53 4 56 c 1,86,87
 6 56 6 56 12 56 c 1,88,89
 12 55 12 55 12 52 c 1,90,91
 13 52 13 52 16 52 c 1,92,93
 16 51 16 51 16 48 c 1,94,95
 17 48 17 48 20 48 c 1,96,97
 20 47 20 47 20 44 c 1,98,99
 18 44 18 44 12 44 c 1,76,77
EndSplineSet
EndChar

StartChar: eacute
Encoding: 233 233 159
Width: 36
GlyphClass: 2
Flags: W
LayerCount: 2
Fore
SplineSet
24 24 m 1,0,1
 24 26 24 26 24 32 c 1,2,3
 23 32 23 32 20 32 c 1,4,5
 20 33 20 33 20 36 c 1,6,7
 18 36 18 36 12 36 c 1,8,9
 12 35 12 35 12 32 c 1,10,11
 11 32 11 32 8 32 c 1,12,13
 8 30 8 30 8 24 c 1,14,15
 12 24 12 24 24 24 c 1,0,1
8 0 m 1,16,17
 8 1 8 1 8 4 c 1,18,19
 7 4 7 4 4 4 c 1,20,21
 4 5 4 5 4 8 c 1,22,23
 3 8 3 8 0 8 c 1,24,25
 0 14 0 14 0 32 c 1,26,27
 1 32 1 32 4 32 c 1,28,29
 4 33 4 33 4 36 c 1,30,31
 5 36 5 36 8 36 c 1,32,33
 8 37 8 37 8 40 c 1,34,35
 11 40 11 40 20 40 c 0,36,37
 21 40 21 40 24 40 c 1,38,39
 24 39 24 39 24 36 c 1,40,41
 25 36 25 36 28 36 c 1,42,43
 28 35 28 35 28 32 c 1,44,45
 29 32 29 32 32 32 c 1,46,47
 32 29 32 29 32 20 c 1,48,49
 26 20 26 20 8 20 c 1,50,51
 8 17 8 17 8 8 c 1,52,53
 9 8 9 8 12 8 c 1,54,55
 12 7 12 7 12 4 c 1,56,57
 14 4 14 4 20 4 c 1,58,59
 20 5 20 5 20 8 c 1,60,61
 21 8 21 8 24 8 c 1,62,63
 24 9 24 9 24 12 c 1,64,65
 26 12 26 12 32 12 c 1,66,67
 32 11 32 11 32 8 c 1,68,69
 31 8 31 8 28 8 c 1,70,71
 28 7 28 7 28 4 c 1,72,73
 27 4 27 4 24 4 c 1,74,75
 24 3 24 3 24 0 c 1,76,77
 20 0 20 0 8 0 c 1,16,17
12 44 m 1,78,79
 12 45 12 45 12 48 c 1,80,81
 13 48 13 48 16 48 c 1,82,83
 16 49 16 49 16 52 c 1,84,85
 17 52 17 52 20 52 c 1,86,87
 20 53 20 53 20 56 c 1,88,89
 22 56 22 56 28 56 c 1,90,91
 28 55 28 55 28 52 c 1,92,93
 27 52 27 52 24 52 c 1,94,95
 24 51 24 51 24 48 c 1,96,97
 23 48 23 48 20 48 c 1,98,99
 20 47 20 47 20 44 c 1,100,101
 18 44 18 44 12 44 c 1,78,79
EndSplineSet
EndChar

StartChar: ecircumflex
Encoding: 234 234 160
Width: 36
GlyphClass: 2
Flags: W
LayerCount: 2
Fore
SplineSet
24 24 m 1,0,1
 24 26 24 26 24 32 c 1,2,3
 23 32 23 32 20 32 c 1,4,5
 20 33 20 33 20 36 c 1,6,7
 18 36 18 36 12 36 c 1,8,9
 12 35 12 35 12 32 c 1,10,11
 11 32 11 32 8 32 c 1,12,13
 8 30 8 30 8 24 c 1,14,15
 12 24 12 24 24 24 c 1,0,1
8 0 m 1,16,17
 8 1 8 1 8 4 c 1,18,19
 7 4 7 4 4 4 c 1,20,21
 4 5 4 5 4 8 c 1,22,23
 3 8 3 8 0 8 c 1,24,25
 0 14 0 14 0 32 c 1,26,27
 1 32 1 32 4 32 c 1,28,29
 4 33 4 33 4 36 c 1,30,31
 5 36 5 36 8 36 c 1,32,33
 8 37 8 37 8 40 c 1,34,35
 9 40 9 40 12 40 c 256,36,37
 15 40 15 40 24 40 c 1,38,39
 24 39 24 39 24 36 c 1,40,41
 25 36 25 36 28 36 c 1,42,43
 28 35 28 35 28 32 c 1,44,45
 29 32 29 32 32 32 c 1,46,47
 32 29 32 29 32 20 c 1,48,49
 26 20 26 20 8 20 c 1,50,51
 8 17 8 17 8 8 c 1,52,53
 9 8 9 8 12 8 c 1,54,55
 12 7 12 7 12 4 c 1,56,57
 14 4 14 4 20 4 c 1,58,59
 20 5 20 5 20 8 c 1,60,61
 21 8 21 8 24 8 c 1,62,63
 24 9 24 9 24 12 c 1,64,65
 26 12 26 12 32 12 c 1,66,67
 32 11 32 11 32 8 c 1,68,69
 31 8 31 8 28 8 c 1,70,71
 28 7 28 7 28 4 c 1,72,73
 27 4 27 4 24 4 c 1,74,75
 24 3 24 3 24 0 c 1,76,77
 20 0 20 0 8 0 c 1,16,17
4 44 m 1,78,79
 4 45 4 45 4 48 c 1,80,81
 5 48 5 48 8 48 c 1,82,83
 8 49 8 49 8 52 c 1,84,85
 9 52 9 52 12 52 c 1,86,87
 12 53 12 53 12 56 c 1,88,89
 14 56 14 56 20 56 c 1,90,91
 20 55 20 55 20 52 c 1,92,93
 21 52 21 52 24 52 c 1,94,95
 24 51 24 51 24 48 c 1,96,97
 25 48 25 48 28 48 c 1,98,99
 28 47 28 47 28 44 c 1,100,101
 26 44 26 44 20 44 c 1,102,103
 20 45 20 45 20 48 c 1,104,105
 18 48 18 48 12 48 c 1,106,107
 12 47 12 47 12 44 c 1,108,109
 11 44 11 44 8 44 c 0,110,111
 7 44 7 44 4 44 c 1,78,79
EndSplineSet
EndChar

StartChar: edieresis
Encoding: 235 235 161
Width: 36
GlyphClass: 2
Flags: W
LayerCount: 2
Fore
SplineSet
24 24 m 1,0,1
 24 26 24 26 24 32 c 1,2,3
 23 32 23 32 20 32 c 1,4,5
 20 33 20 33 20 36 c 1,6,7
 18 36 18 36 12 36 c 1,8,9
 12 35 12 35 12 32 c 1,10,11
 11 32 11 32 8 32 c 1,12,13
 8 30 8 30 8 24 c 1,14,15
 12 24 12 24 24 24 c 1,0,1
8 0 m 1,16,17
 8 1 8 1 8 4 c 1,18,19
 7 4 7 4 4 4 c 1,20,21
 4 5 4 5 4 8 c 1,22,23
 3 8 3 8 0 8 c 1,24,25
 0 14 0 14 0 32 c 1,26,27
 1 32 1 32 4 32 c 1,28,29
 4 33 4 33 4 36 c 1,30,31
 5 36 5 36 8 36 c 1,32,33
 8 37 8 37 8 40 c 1,34,35
 12 40 12 40 24 40 c 1,36,37
 24 39 24 39 24 36 c 1,38,39
 25 36 25 36 28 36 c 1,40,41
 28 35 28 35 28 32 c 1,42,43
 29 32 29 32 32 32 c 1,44,45
 32 29 32 29 32 20 c 1,46,47
 26 20 26 20 8 20 c 1,48,49
 8 17 8 17 8 8 c 1,50,51
 9 8 9 8 12 8 c 1,52,53
 12 7 12 7 12 4 c 1,54,55
 14 4 14 4 20 4 c 1,56,57
 20 5 20 5 20 8 c 1,58,59
 21 8 21 8 24 8 c 1,60,61
 24 9 24 9 24 12 c 1,62,63
 26 12 26 12 32 12 c 1,64,65
 32 11 32 11 32 8 c 1,66,67
 31 8 31 8 28 8 c 1,68,69
 28 7 28 7 28 4 c 1,70,71
 27 4 27 4 24 4 c 1,72,73
 24 3 24 3 24 0 c 1,74,75
 20 0 20 0 8 0 c 1,16,17
4 44 m 1,76,77
 4 45 4 45 4 48 c 1,78,79
 6 48 6 48 12 48 c 1,80,81
 12 47 12 47 12 44 c 1,82,83
 11 44 11 44 8 44 c 0,84,85
 7 44 7 44 4 44 c 1,76,77
20 44 m 1,86,87
 20 45 20 45 20 48 c 1,88,89
 22 48 22 48 28 48 c 1,90,91
 28 47 28 47 28 44 c 1,92,93
 26 44 26 44 20 44 c 1,86,87
EndSplineSet
EndChar

StartChar: igrave
Encoding: 236 236 162
Width: 12
GlyphClass: 2
Flags: W
LayerCount: 2
Fore
SplineSet
0 0 m 1,0,1
 0 10 0 10 0 40 c 1,2,3
 2 40 2 40 8 40 c 1,4,5
 8 30 8 30 8 0 c 1,6,7
 6 0 6 0 0 0 c 1,0,1
0 44 m 1,8,9
 0 45 0 45 0 48 c 1,10,11
 -1 48 -1 48 -4 48 c 1,12,13
 -4 49 -4 49 -4 52 c 1,14,15
 -5 52 -5 52 -8 52 c 1,16,17
 -8 53 -8 53 -8 56 c 1,18,19
 -6 56 -6 56 0 56 c 1,20,21
 0 55 0 55 0 52 c 1,22,23
 1 52 1 52 4 52 c 1,24,25
 4 51 4 51 4 48 c 1,26,27
 5 48 5 48 8 48 c 1,28,29
 8 47 8 47 8 44 c 1,30,31
 6 44 6 44 0 44 c 1,8,9
EndSplineSet
EndChar

StartChar: iacute
Encoding: 237 237 163
Width: 12
GlyphClass: 2
Flags: W
LayerCount: 2
Fore
SplineSet
0 0 m 1,0,1
 0 10 0 10 0 40 c 1,2,3
 2 40 2 40 8 40 c 1,4,5
 8 30 8 30 8 0 c 1,6,7
 6 0 6 0 0 0 c 1,0,1
0 44 m 1,8,9
 0 45 0 45 0 48 c 1,10,11
 1 48 1 48 4 48 c 1,12,13
 4 49 4 49 4 52 c 1,14,15
 5 52 5 52 8 52 c 1,16,17
 8 53 8 53 8 56 c 1,18,19
 10 56 10 56 16 56 c 1,20,21
 16 55 16 55 16 52 c 1,22,23
 15 52 15 52 12 52 c 1,24,25
 12 51 12 51 12 48 c 1,26,27
 11 48 11 48 8 48 c 1,28,29
 8 47 8 47 8 44 c 1,30,31
 6 44 6 44 0 44 c 1,8,9
EndSplineSet
EndChar

StartChar: icircumflex
Encoding: 238 238 164
Width: 12
GlyphClass: 2
Flags: W
LayerCount: 2
Fore
SplineSet
0 0 m 1,0,1
 0 10 0 10 0 40 c 1,2,3
 2 40 2 40 8 40 c 1,4,5
 8 30 8 30 8 0 c 1,6,7
 6 0 6 0 0 0 c 1,0,1
-8 44 m 1,8,9
 -8 45 -8 45 -8 48 c 1,10,11
 -7 48 -7 48 -4 48 c 1,12,13
 -4 49 -4 49 -4 52 c 1,14,15
 -3 52 -3 52 0 52 c 1,16,17
 0 53 0 53 0 56 c 1,18,19
 2 56 2 56 8 56 c 1,20,21
 8 55 8 55 8 52 c 1,22,23
 9 52 9 52 12 52 c 1,24,25
 12 51 12 51 12 48 c 1,26,27
 13 48 13 48 16 48 c 1,28,29
 16 47 16 47 16 44 c 1,30,31
 14 44 14 44 8 44 c 1,32,33
 8 45 8 45 8 48 c 1,34,35
 6 48 6 48 0 48 c 1,36,37
 0 47 0 47 0 44 c 1,38,39
 -2 44 -2 44 -8 44 c 1,8,9
EndSplineSet
EndChar

StartChar: idieresis
Encoding: 239 239 165
Width: 12
GlyphClass: 2
Flags: W
LayerCount: 2
Fore
SplineSet
0 0 m 1,0,1
 0 10 0 10 0 40 c 1,2,3
 2 40 2 40 8 40 c 1,4,5
 8 30 8 30 8 0 c 1,6,7
 6 0 6 0 0 0 c 1,0,1
-8 44 m 1,8,9
 -8 45 -8 45 -8 48 c 1,10,11
 -6 48 -6 48 0 48 c 1,12,13
 0 47 0 47 0 44 c 1,14,15
 -2 44 -2 44 -8 44 c 1,8,9
8 44 m 1,16,17
 8 45 8 45 8 48 c 1,18,19
 10 48 10 48 16 48 c 1,20,21
 16 47 16 47 16 44 c 1,22,23
 14 44 14 44 8 44 c 1,16,17
EndSplineSet
EndChar

StartChar: eth
Encoding: 240 240 166
Width: 40
GlyphClass: 2
Flags: W
LayerCount: 2
Fore
SplineSet
20 4 m 1,0,1
 20 5 20 5 20 8 c 1,2,3
 21 8 21 8 24 8 c 1,4,5
 24 14 24 14 24 32 c 1,6,7
 23 32 23 32 20 32 c 1,8,9
 20 33 20 33 20 36 c 1,10,11
 18 36 18 36 12 36 c 1,12,13
 12 35 12 35 12 32 c 1,14,15
 11 32 11 32 8 32 c 1,16,17
 8 26 8 26 8 8 c 1,18,19
 9 8 9 8 12 8 c 1,20,21
 12 7 12 7 12 4 c 1,22,23
 14 4 14 4 20 4 c 1,0,1
8 0 m 1,24,25
 8 1 8 1 8 4 c 1,26,27
 7 4 7 4 4 4 c 1,28,29
 4 5 4 5 4 8 c 1,30,31
 3 8 3 8 0 8 c 1,32,33
 0 14 0 14 0 32 c 1,34,35
 1 32 1 32 4 32 c 1,36,37
 4 33 4 33 4 36 c 1,38,39
 5 36 5 36 8 36 c 1,40,41
 8 37 8 37 8 40 c 1,42,43
 12 40 12 40 24 40 c 1,44,45
 24 41 24 41 24 44 c 1,46,47
 22 44 22 44 16 44 c 1,48,49
 16 45 16 45 16 48 c 1,50,51
 18 48 18 48 24 48 c 1,52,53
 24 50 24 50 24 56 c 1,54,55
 26 56 26 56 32 56 c 1,56,57
 32 54 32 54 32 48 c 1,58,59
 33 48 33 48 36 48 c 1,60,61
 36 47 36 47 36 44 c 1,62,63
 35 44 35 44 32 44 c 1,64,65
 32 35 32 35 32 8 c 1,66,67
 31 8 31 8 28 8 c 1,68,69
 28 7 28 7 28 4 c 1,70,71
 27 4 27 4 24 4 c 1,72,73
 24 3 24 3 24 0 c 1,74,75
 20 0 20 0 8 0 c 1,24,25
EndSplineSet
EndChar

StartChar: ntilde
Encoding: 241 241 167
Width: 36
GlyphClass: 2
Flags: W
LayerCount: 2
Fore
SplineSet
0 0 m 1,0,1
 0 10 0 10 0 40 c 1,2,3
 2 40 2 40 8 40 c 0,4,5
 12 40 12 40 24 40 c 1,6,7
 24 39 24 39 24 36 c 1,8,9
 25 36 25 36 28 36 c 1,10,11
 28 35 28 35 28 32 c 1,12,13
 29 32 29 32 32 32 c 1,14,15
 32 24 32 24 32 0 c 1,16,17
 30 0 30 0 24 0 c 1,18,19
 24 8 24 8 24 32 c 1,20,21
 23 32 23 32 20 32 c 1,22,23
 20 33 20 33 20 36 c 1,24,25
 18 36 18 36 12 36 c 1,26,27
 12 35 12 35 12 32 c 1,28,29
 11 32 11 32 8 32 c 1,30,31
 8 24 8 24 8 0 c 1,32,33
 6 0 6 0 0 0 c 1,0,1
0 44 m 1,34,35
 0 45 0 45 0 48 c 1,36,37
 1 48 1 48 4 48 c 1,38,39
 4 49 4 49 4 52 c 1,40,41
 5 52 5 52 8 52 c 1,42,43
 8 53 8 53 8 56 c 1,44,45
 11 56 11 56 20 56 c 1,46,47
 20 55 20 55 20 52 c 1,48,49
 21 52 21 52 24 52 c 1,50,51
 24 53 24 53 24 56 c 1,52,53
 26 56 26 56 32 56 c 1,54,55
 32 54 32 54 32 48 c 1,56,57
 31 48 31 48 28 48 c 1,58,59
 28 47 28 47 28 44 c 1,60,61
 26 44 26 44 20 44 c 1,62,63
 20 45 20 45 20 48 c 1,64,65
 19 48 19 48 16 48 c 1,66,67
 16 49 16 49 16 52 c 1,68,69
 15 52 15 52 12 52 c 1,70,71
 12 51 12 51 12 48 c 1,72,73
 11 48 11 48 8 48 c 1,74,75
 8 47 8 47 8 44 c 1,76,77
 6 44 6 44 0 44 c 1,34,35
EndSplineSet
EndChar

StartChar: ograve
Encoding: 242 242 168
Width: 36
GlyphClass: 2
Flags: W
LayerCount: 2
Fore
SplineSet
20 4 m 1,0,1
 20 5 20 5 20 8 c 1,2,3
 21 8 21 8 24 8 c 1,4,5
 24 14 24 14 24 32 c 1,6,7
 23 32 23 32 20 32 c 1,8,9
 20 33 20 33 20 36 c 1,10,11
 18 36 18 36 12 36 c 1,12,13
 12 35 12 35 12 32 c 1,14,15
 11 32 11 32 8 32 c 1,16,17
 8 26 8 26 8 8 c 1,18,19
 9 8 9 8 12 8 c 1,20,21
 12 7 12 7 12 4 c 1,22,23
 14 4 14 4 20 4 c 1,0,1
8 0 m 1,24,25
 8 1 8 1 8 4 c 1,26,27
 7 4 7 4 4 4 c 1,28,29
 4 5 4 5 4 8 c 1,30,31
 3 8 3 8 0 8 c 1,32,33
 0 14 0 14 0 32 c 1,34,35
 1 32 1 32 4 32 c 1,36,37
 4 33 4 33 4 36 c 1,38,39
 5 36 5 36 8 36 c 1,40,41
 8 37 8 37 8 40 c 1,42,43
 12 40 12 40 24 40 c 1,44,45
 24 39 24 39 24 36 c 1,46,47
 25 36 25 36 28 36 c 1,48,49
 28 35 28 35 28 32 c 1,50,51
 29 32 29 32 32 32 c 1,52,53
 32 26 32 26 32 8 c 1,54,55
 31 8 31 8 28 8 c 1,56,57
 28 7 28 7 28 4 c 1,58,59
 27 4 27 4 24 4 c 1,60,61
 24 3 24 3 24 0 c 1,62,63
 20 0 20 0 8 0 c 1,24,25
12 44 m 1,64,65
 12 45 12 45 12 48 c 1,66,67
 11 48 11 48 8 48 c 1,68,69
 8 49 8 49 8 52 c 1,70,71
 7 52 7 52 4 52 c 1,72,73
 4 53 4 53 4 56 c 1,74,75
 6 56 6 56 12 56 c 1,76,77
 12 55 12 55 12 52 c 1,78,79
 13 52 13 52 16 52 c 1,80,81
 16 51 16 51 16 48 c 1,82,83
 17 48 17 48 20 48 c 1,84,85
 20 47 20 47 20 44 c 1,86,87
 18 44 18 44 12 44 c 1,64,65
EndSplineSet
EndChar

StartChar: oacute
Encoding: 243 243 169
Width: 36
GlyphClass: 2
Flags: W
LayerCount: 2
Fore
SplineSet
20 4 m 1,0,1
 20 5 20 5 20 8 c 1,2,3
 21 8 21 8 24 8 c 1,4,5
 24 14 24 14 24 32 c 1,6,7
 23 32 23 32 20 32 c 1,8,9
 20 33 20 33 20 36 c 1,10,11
 18 36 18 36 12 36 c 1,12,13
 12 35 12 35 12 32 c 1,14,15
 11 32 11 32 8 32 c 1,16,17
 8 26 8 26 8 8 c 1,18,19
 9 8 9 8 12 8 c 1,20,21
 12 7 12 7 12 4 c 1,22,23
 14 4 14 4 20 4 c 1,0,1
8 0 m 1,24,25
 8 1 8 1 8 4 c 1,26,27
 7 4 7 4 4 4 c 1,28,29
 4 5 4 5 4 8 c 1,30,31
 3 8 3 8 0 8 c 1,32,33
 0 14 0 14 0 32 c 1,34,35
 1 32 1 32 4 32 c 1,36,37
 4 33 4 33 4 36 c 1,38,39
 5 36 5 36 8 36 c 1,40,41
 8 37 8 37 8 40 c 1,42,43
 11 40 11 40 20 40 c 0,44,45
 21 40 21 40 24 40 c 1,46,47
 24 39 24 39 24 36 c 1,48,49
 25 36 25 36 28 36 c 1,50,51
 28 35 28 35 28 32 c 1,52,53
 29 32 29 32 32 32 c 1,54,55
 32 26 32 26 32 8 c 1,56,57
 31 8 31 8 28 8 c 1,58,59
 28 7 28 7 28 4 c 1,60,61
 27 4 27 4 24 4 c 1,62,63
 24 3 24 3 24 0 c 1,64,65
 20 0 20 0 8 0 c 1,24,25
12 44 m 1,66,67
 12 45 12 45 12 48 c 1,68,69
 13 48 13 48 16 48 c 1,70,71
 16 49 16 49 16 52 c 1,72,73
 17 52 17 52 20 52 c 1,74,75
 20 53 20 53 20 56 c 1,76,77
 22 56 22 56 28 56 c 1,78,79
 28 55 28 55 28 52 c 1,80,81
 27 52 27 52 24 52 c 1,82,83
 24 51 24 51 24 48 c 1,84,85
 23 48 23 48 20 48 c 1,86,87
 20 47 20 47 20 44 c 1,88,89
 18 44 18 44 12 44 c 1,66,67
EndSplineSet
EndChar

StartChar: ocircumflex
Encoding: 244 244 170
Width: 36
GlyphClass: 2
Flags: W
LayerCount: 2
Fore
SplineSet
20 4 m 1,0,1
 20 5 20 5 20 8 c 1,2,3
 21 8 21 8 24 8 c 1,4,5
 24 14 24 14 24 32 c 1,6,7
 23 32 23 32 20 32 c 1,8,9
 20 33 20 33 20 36 c 1,10,11
 18 36 18 36 12 36 c 1,12,13
 12 35 12 35 12 32 c 1,14,15
 11 32 11 32 8 32 c 1,16,17
 8 26 8 26 8 8 c 1,18,19
 9 8 9 8 12 8 c 1,20,21
 12 7 12 7 12 4 c 1,22,23
 14 4 14 4 20 4 c 1,0,1
8 0 m 1,24,25
 8 1 8 1 8 4 c 1,26,27
 7 4 7 4 4 4 c 1,28,29
 4 5 4 5 4 8 c 1,30,31
 3 8 3 8 0 8 c 1,32,33
 0 14 0 14 0 32 c 1,34,35
 1 32 1 32 4 32 c 1,36,37
 4 33 4 33 4 36 c 1,38,39
 5 36 5 36 8 36 c 1,40,41
 8 37 8 37 8 40 c 1,42,43
 9 40 9 40 12 40 c 256,44,45
 15 40 15 40 24 40 c 1,46,47
 24 39 24 39 24 36 c 1,48,49
 25 36 25 36 28 36 c 1,50,51
 28 35 28 35 28 32 c 1,52,53
 29 32 29 32 32 32 c 1,54,55
 32 26 32 26 32 8 c 1,56,57
 31 8 31 8 28 8 c 1,58,59
 28 7 28 7 28 4 c 1,60,61
 27 4 27 4 24 4 c 1,62,63
 24 3 24 3 24 0 c 1,64,65
 20 0 20 0 8 0 c 1,24,25
4 44 m 1,66,67
 4 45 4 45 4 48 c 1,68,69
 5 48 5 48 8 48 c 1,70,71
 8 49 8 49 8 52 c 1,72,73
 9 52 9 52 12 52 c 1,74,75
 12 53 12 53 12 56 c 1,76,77
 14 56 14 56 20 56 c 1,78,79
 20 55 20 55 20 52 c 1,80,81
 21 52 21 52 24 52 c 1,82,83
 24 51 24 51 24 48 c 1,84,85
 25 48 25 48 28 48 c 1,86,87
 28 47 28 47 28 44 c 1,88,89
 26 44 26 44 20 44 c 1,90,91
 20 45 20 45 20 48 c 1,92,93
 18 48 18 48 12 48 c 1,94,95
 12 47 12 47 12 44 c 1,96,97
 11 44 11 44 8 44 c 0,98,99
 7 44 7 44 4 44 c 1,66,67
EndSplineSet
EndChar

StartChar: otilde
Encoding: 245 245 171
Width: 36
GlyphClass: 2
Flags: W
LayerCount: 2
Fore
SplineSet
20 4 m 1,0,1
 20 5 20 5 20 8 c 1,2,3
 21 8 21 8 24 8 c 1,4,5
 24 14 24 14 24 32 c 1,6,7
 23 32 23 32 20 32 c 1,8,9
 20 33 20 33 20 36 c 1,10,11
 18 36 18 36 12 36 c 1,12,13
 12 35 12 35 12 32 c 1,14,15
 11 32 11 32 8 32 c 1,16,17
 8 26 8 26 8 8 c 1,18,19
 9 8 9 8 12 8 c 1,20,21
 12 7 12 7 12 4 c 1,22,23
 14 4 14 4 20 4 c 1,0,1
8 0 m 1,24,25
 8 1 8 1 8 4 c 1,26,27
 7 4 7 4 4 4 c 1,28,29
 4 5 4 5 4 8 c 1,30,31
 3 8 3 8 0 8 c 1,32,33
 0 14 0 14 0 32 c 1,34,35
 1 32 1 32 4 32 c 1,36,37
 4 33 4 33 4 36 c 1,38,39
 5 36 5 36 8 36 c 1,40,41
 8 37 8 37 8 40 c 1,42,43
 12 40 12 40 24 40 c 1,44,45
 24 39 24 39 24 36 c 1,46,47
 25 36 25 36 28 36 c 1,48,49
 28 35 28 35 28 32 c 1,50,51
 29 32 29 32 32 32 c 1,52,53
 32 26 32 26 32 8 c 1,54,55
 31 8 31 8 28 8 c 1,56,57
 28 7 28 7 28 4 c 1,58,59
 27 4 27 4 24 4 c 1,60,61
 24 3 24 3 24 0 c 1,62,63
 20 0 20 0 8 0 c 1,24,25
0 44 m 1,64,65
 0 45 0 45 0 48 c 1,66,67
 1 48 1 48 4 48 c 1,68,69
 4 49 4 49 4 52 c 1,70,71
 5 52 5 52 8 52 c 1,72,73
 8 53 8 53 8 56 c 1,74,75
 11 56 11 56 20 56 c 1,76,77
 20 55 20 55 20 52 c 1,78,79
 21 52 21 52 24 52 c 1,80,81
 24 53 24 53 24 56 c 1,82,83
 26 56 26 56 32 56 c 1,84,85
 32 54 32 54 32 48 c 1,86,87
 31 48 31 48 28 48 c 1,88,89
 28 47 28 47 28 44 c 1,90,91
 26 44 26 44 20 44 c 1,92,93
 20 45 20 45 20 48 c 1,94,95
 19 48 19 48 16 48 c 1,96,97
 16 49 16 49 16 52 c 1,98,99
 15 52 15 52 12 52 c 1,100,101
 12 51 12 51 12 48 c 1,102,103
 11 48 11 48 8 48 c 1,104,105
 8 47 8 47 8 44 c 1,106,107
 6 44 6 44 0 44 c 1,64,65
EndSplineSet
EndChar

StartChar: odieresis
Encoding: 246 246 172
Width: 36
GlyphClass: 2
Flags: W
LayerCount: 2
Fore
SplineSet
20 4 m 1,0,1
 20 5 20 5 20 8 c 1,2,3
 21 8 21 8 24 8 c 1,4,5
 24 14 24 14 24 32 c 1,6,7
 23 32 23 32 20 32 c 1,8,9
 20 33 20 33 20 36 c 1,10,11
 18 36 18 36 12 36 c 1,12,13
 12 35 12 35 12 32 c 1,14,15
 11 32 11 32 8 32 c 1,16,17
 8 26 8 26 8 8 c 1,18,19
 9 8 9 8 12 8 c 1,20,21
 12 7 12 7 12 4 c 1,22,23
 14 4 14 4 20 4 c 1,0,1
8 0 m 1,24,25
 8 1 8 1 8 4 c 1,26,27
 7 4 7 4 4 4 c 1,28,29
 4 5 4 5 4 8 c 1,30,31
 3 8 3 8 0 8 c 1,32,33
 0 14 0 14 0 32 c 1,34,35
 1 32 1 32 4 32 c 1,36,37
 4 33 4 33 4 36 c 1,38,39
 5 36 5 36 8 36 c 1,40,41
 8 37 8 37 8 40 c 1,42,43
 12 40 12 40 24 40 c 1,44,45
 24 39 24 39 24 36 c 1,46,47
 25 36 25 36 28 36 c 1,48,49
 28 35 28 35 28 32 c 1,50,51
 29 32 29 32 32 32 c 1,52,53
 32 26 32 26 32 8 c 1,54,55
 31 8 31 8 28 8 c 1,56,57
 28 7 28 7 28 4 c 1,58,59
 27 4 27 4 24 4 c 1,60,61
 24 3 24 3 24 0 c 1,62,63
 20 0 20 0 8 0 c 1,24,25
4 44 m 1,64,65
 4 45 4 45 4 48 c 1,66,67
 6 48 6 48 12 48 c 1,68,69
 12 47 12 47 12 44 c 1,70,71
 11 44 11 44 8 44 c 0,72,73
 7 44 7 44 4 44 c 1,64,65
20 44 m 1,74,75
 20 45 20 45 20 48 c 1,76,77
 22 48 22 48 28 48 c 1,78,79
 28 47 28 47 28 44 c 1,80,81
 26 44 26 44 20 44 c 1,74,75
EndSplineSet
EndChar

StartChar: divide
Encoding: 247 247 173
Width: 28
GlyphClass: 2
Flags: W
LayerCount: 2
Fore
SplineSet
8 12 m 1,0,1
 8 13 8 13 8 16 c 1,2,3
 10 16 10 16 16 16 c 1,4,5
 16 15 16 15 16 12 c 1,6,7
 14 12 14 12 8 12 c 1,0,1
0 20 m 1,8,9
 0 21 0 21 0 24 c 1,10,11
 6 24 6 24 24 24 c 1,12,13
 24 23 24 23 24 20 c 1,14,15
 18 20 18 20 0 20 c 1,8,9
8 28 m 1,16,17
 8 29 8 29 8 32 c 1,18,19
 10 32 10 32 16 32 c 1,20,21
 16 31 16 31 16 28 c 1,22,23
 14 28 14 28 8 28 c 1,16,17
EndSplineSet
EndChar

StartChar: oslash
Encoding: 248 248 174
Width: 36
GlyphClass: 2
Flags: W
LayerCount: 2
Fore
SplineSet
20 4 m 1,0,1
 20 5 20 5 20 8 c 1,2,3
 21 8 21 8 24 8 c 1,4,5
 24 12 24 12 24 24 c 1,6,7
 23 24 23 24 20 24 c 1,8,9
 20 22 20 22 20 16 c 1,10,11
 19 16 19 16 16 16 c 1,12,13
 16 15 16 15 16 12 c 1,14,15
 15 12 15 12 12 12 c 1,16,17
 12 10 12 10 12 4 c 1,18,19
 14 4 14 4 20 4 c 1,0,1
12 16 m 1,20,21
 12 18 12 18 12 24 c 1,22,23
 13 24 13 24 16 24 c 1,24,25
 16 25 16 25 16 28 c 1,26,27
 17 28 17 28 20 28 c 1,28,29
 20 30 20 30 20 36 c 1,30,31
 18 36 18 36 12 36 c 1,32,33
 12 35 12 35 12 32 c 1,34,35
 11 32 11 32 8 32 c 1,36,37
 8 28 8 28 8 16 c 1,38,39
 9 16 9 16 12 16 c 1,20,21
0 0 m 1,40,41
 0 1 0 1 0 4 c 1,42,43
 1 4 1 4 4 4 c 1,44,45
 4 5 4 5 4 8 c 1,46,47
 3 8 3 8 0 8 c 1,48,49
 0 14 0 14 0 32 c 1,50,51
 1 32 1 32 4 32 c 1,52,53
 4 33 4 33 4 36 c 1,54,55
 5 36 5 36 8 36 c 1,56,57
 8 37 8 37 8 40 c 1,58,59
 14 40 14 40 32 40 c 1,60,61
 32 39 32 39 32 36 c 1,62,63
 31 36 31 36 28 36 c 1,64,65
 28 35 28 35 28 32 c 1,66,67
 29 32 29 32 32 32 c 1,68,69
 32 26 32 26 32 8 c 1,70,71
 31 8 31 8 28 8 c 1,72,73
 28 7 28 7 28 4 c 1,74,75
 27 4 27 4 24 4 c 1,76,77
 24 3 24 3 24 0 c 1,78,79
 18 0 18 0 0 0 c 1,40,41
EndSplineSet
EndChar

StartChar: ugrave
Encoding: 249 249 175
Width: 36
GlyphClass: 2
Flags: W
LayerCount: 2
Fore
SplineSet
8 0 m 1,0,1
 8 1 8 1 8 4 c 1,2,3
 7 4 7 4 4 4 c 1,4,5
 4 5 4 5 4 8 c 1,6,7
 3 8 3 8 0 8 c 1,8,9
 0 16 0 16 0 40 c 1,10,11
 1 40 1 40 4 40 c 0,12,13
 5 40 5 40 8 40 c 1,14,15
 8 32 8 32 8 8 c 1,16,17
 9 8 9 8 12 8 c 1,18,19
 12 7 12 7 12 4 c 1,20,21
 14 4 14 4 20 4 c 1,22,23
 20 5 20 5 20 8 c 1,24,25
 21 8 21 8 24 8 c 1,26,27
 24 16 24 16 24 40 c 1,28,29
 26 40 26 40 32 40 c 1,30,31
 32 32 32 32 32 8 c 1,32,33
 31 8 31 8 28 8 c 1,34,35
 28 7 28 7 28 4 c 1,36,37
 27 4 27 4 24 4 c 1,38,39
 24 3 24 3 24 0 c 1,40,41
 20 0 20 0 8 0 c 1,0,1
12 44 m 1,42,43
 12 45 12 45 12 48 c 1,44,45
 11 48 11 48 8 48 c 1,46,47
 8 49 8 49 8 52 c 1,48,49
 7 52 7 52 4 52 c 1,50,51
 4 53 4 53 4 56 c 1,52,53
 6 56 6 56 12 56 c 1,54,55
 12 55 12 55 12 52 c 1,56,57
 13 52 13 52 16 52 c 1,58,59
 16 51 16 51 16 48 c 1,60,61
 17 48 17 48 20 48 c 1,62,63
 20 47 20 47 20 44 c 1,64,65
 18 44 18 44 12 44 c 1,42,43
EndSplineSet
EndChar

StartChar: uacute
Encoding: 250 250 176
Width: 36
GlyphClass: 2
Flags: W
LayerCount: 2
Fore
SplineSet
8 0 m 1,0,1
 8 1 8 1 8 4 c 1,2,3
 7 4 7 4 4 4 c 1,4,5
 4 5 4 5 4 8 c 1,6,7
 3 8 3 8 0 8 c 1,8,9
 0 16 0 16 0 40 c 1,10,11
 2 40 2 40 8 40 c 1,12,13
 8 32 8 32 8 8 c 1,14,15
 9 8 9 8 12 8 c 1,16,17
 12 7 12 7 12 4 c 1,18,19
 14 4 14 4 20 4 c 1,20,21
 20 5 20 5 20 8 c 1,22,23
 21 8 21 8 24 8 c 1,24,25
 24 16 24 16 24 40 c 1,26,27
 26 40 26 40 32 40 c 1,28,29
 32 32 32 32 32 8 c 1,30,31
 31 8 31 8 28 8 c 1,32,33
 28 7 28 7 28 4 c 1,34,35
 27 4 27 4 24 4 c 1,36,37
 24 3 24 3 24 0 c 1,38,39
 20 0 20 0 8 0 c 1,0,1
12 44 m 1,40,41
 12 45 12 45 12 48 c 1,42,43
 13 48 13 48 16 48 c 1,44,45
 16 49 16 49 16 52 c 1,46,47
 17 52 17 52 20 52 c 1,48,49
 20 53 20 53 20 56 c 1,50,51
 22 56 22 56 28 56 c 1,52,53
 28 55 28 55 28 52 c 1,54,55
 27 52 27 52 24 52 c 1,56,57
 24 51 24 51 24 48 c 1,58,59
 23 48 23 48 20 48 c 1,60,61
 20 47 20 47 20 44 c 1,62,63
 18 44 18 44 12 44 c 1,40,41
EndSplineSet
EndChar

StartChar: ucircumflex
Encoding: 251 251 177
Width: 36
GlyphClass: 2
Flags: W
LayerCount: 2
Fore
SplineSet
8 0 m 1,0,1
 8 1 8 1 8 4 c 1,2,3
 7 4 7 4 4 4 c 1,4,5
 4 5 4 5 4 8 c 1,6,7
 3 8 3 8 0 8 c 1,8,9
 0 16 0 16 0 40 c 1,10,11
 2 40 2 40 8 40 c 1,12,13
 8 32 8 32 8 8 c 1,14,15
 9 8 9 8 12 8 c 1,16,17
 12 7 12 7 12 4 c 1,18,19
 14 4 14 4 20 4 c 1,20,21
 20 5 20 5 20 8 c 1,22,23
 21 8 21 8 24 8 c 1,24,25
 24 16 24 16 24 40 c 1,26,27
 26 40 26 40 32 40 c 1,28,29
 32 32 32 32 32 8 c 1,30,31
 31 8 31 8 28 8 c 1,32,33
 28 7 28 7 28 4 c 1,34,35
 27 4 27 4 24 4 c 1,36,37
 24 3 24 3 24 0 c 1,38,39
 20 0 20 0 8 0 c 1,0,1
4 44 m 1,40,41
 4 45 4 45 4 48 c 1,42,43
 5 48 5 48 8 48 c 1,44,45
 8 49 8 49 8 52 c 1,46,47
 9 52 9 52 12 52 c 1,48,49
 12 53 12 53 12 56 c 1,50,51
 14 56 14 56 20 56 c 1,52,53
 20 55 20 55 20 52 c 1,54,55
 21 52 21 52 24 52 c 1,56,57
 24 51 24 51 24 48 c 1,58,59
 25 48 25 48 28 48 c 1,60,61
 28 47 28 47 28 44 c 1,62,63
 26 44 26 44 20 44 c 1,64,65
 20 45 20 45 20 48 c 1,66,67
 18 48 18 48 12 48 c 1,68,69
 12 47 12 47 12 44 c 1,70,71
 11 44 11 44 8 44 c 0,72,73
 7 44 7 44 4 44 c 1,40,41
EndSplineSet
EndChar

StartChar: udieresis
Encoding: 252 252 178
Width: 36
GlyphClass: 2
Flags: W
LayerCount: 2
Fore
SplineSet
8 0 m 1,0,1
 8 1 8 1 8 4 c 1,2,3
 7 4 7 4 4 4 c 1,4,5
 4 5 4 5 4 8 c 1,6,7
 3 8 3 8 0 8 c 1,8,9
 0 16 0 16 0 40 c 1,10,11
 1 40 1 40 4 40 c 0,12,13
 5 40 5 40 8 40 c 1,14,15
 8 32 8 32 8 8 c 1,16,17
 9 8 9 8 12 8 c 1,18,19
 12 7 12 7 12 4 c 1,20,21
 14 4 14 4 20 4 c 1,22,23
 20 5 20 5 20 8 c 1,24,25
 21 8 21 8 24 8 c 1,26,27
 24 16 24 16 24 40 c 1,28,29
 26 40 26 40 32 40 c 1,30,31
 32 32 32 32 32 8 c 1,32,33
 31 8 31 8 28 8 c 1,34,35
 28 7 28 7 28 4 c 1,36,37
 27 4 27 4 24 4 c 1,38,39
 24 3 24 3 24 0 c 1,40,41
 20 0 20 0 8 0 c 1,0,1
4 44 m 1,42,43
 4 45 4 45 4 48 c 1,44,45
 6 48 6 48 12 48 c 1,46,47
 12 47 12 47 12 44 c 1,48,49
 11 44 11 44 8 44 c 0,50,51
 7 44 7 44 4 44 c 1,42,43
20 44 m 1,52,53
 20 45 20 45 20 48 c 1,54,55
 22 48 22 48 28 48 c 1,56,57
 28 47 28 47 28 44 c 1,58,59
 26 44 26 44 20 44 c 1,52,53
EndSplineSet
EndChar

StartChar: yacute
Encoding: 253 253 179
Width: 36
GlyphClass: 2
Flags: W
LayerCount: 2
Fore
SplineSet
8 -12 m 1,0,1
 8 -11 8 -11 8 -8 c 1,2,3
 7 -8 7 -8 4 -8 c 1,4,5
 4 -7 4 -7 4 -4 c 1,6,7
 3 -4 3 -4 0 -4 c 1,8,9
 0 -3 0 -3 0 0 c 1,10,11
 2 0 2 0 8 0 c 1,12,13
 8 -1 8 -1 8 -4 c 1,14,15
 9 -4 9 -4 12 -4 c 1,16,17
 12 -5 12 -5 12 -8 c 1,18,19
 14 -8 14 -8 20 -8 c 1,20,21
 20 -7 20 -7 20 -4 c 1,22,23
 21 -4 21 -4 24 -4 c 1,24,25
 24 -1 24 -1 24 8 c 1,26,27
 20 8 20 8 8 8 c 1,28,29
 8 9 8 9 8 12 c 1,30,31
 7 12 7 12 4 12 c 1,32,33
 4 13 4 13 4 16 c 1,34,35
 3 16 3 16 0 16 c 1,36,37
 0 22 0 22 0 40 c 1,38,39
 2 40 2 40 8 40 c 1,40,41
 8 34 8 34 8 16 c 1,42,43
 9 16 9 16 12 16 c 1,44,45
 12 15 12 15 12 12 c 1,46,47
 14 12 14 12 20 12 c 1,48,49
 20 13 20 13 20 16 c 1,50,51
 21 16 21 16 24 16 c 1,52,53
 24 22 24 22 24 40 c 1,54,55
 26 40 26 40 32 40 c 1,56,57
 32 29 32 29 32 -4 c 1,58,59
 31 -4 31 -4 28 -4 c 1,60,61
 28 -5 28 -5 28 -8 c 1,62,63
 27 -8 27 -8 24 -8 c 1,64,65
 24 -9 24 -9 24 -12 c 1,66,67
 20 -12 20 -12 8 -12 c 1,0,1
12 44 m 1,68,69
 12 45 12 45 12 48 c 1,70,71
 13 48 13 48 16 48 c 1,72,73
 16 49 16 49 16 52 c 1,74,75
 17 52 17 52 20 52 c 1,76,77
 20 53 20 53 20 56 c 1,78,79
 22 56 22 56 28 56 c 1,80,81
 28 55 28 55 28 52 c 1,82,83
 27 52 27 52 24 52 c 1,84,85
 24 51 24 51 24 48 c 1,86,87
 23 48 23 48 20 48 c 1,88,89
 20 47 20 47 20 44 c 1,90,91
 18 44 18 44 12 44 c 1,68,69
EndSplineSet
EndChar

StartChar: thorn
Encoding: 254 254 180
Width: 36
GlyphClass: 2
Flags: W
LayerCount: 2
Fore
SplineSet
20 8 m 1,0,1
 20 9 20 9 20 12 c 1,2,3
 21 12 21 12 24 12 c 1,4,5
 24 16 24 16 24 28 c 1,6,7
 23 28 23 28 20 28 c 1,8,9
 20 29 20 29 20 32 c 1,10,11
 18 32 18 32 12 32 c 1,12,13
 12 31 12 31 12 28 c 1,14,15
 11 28 11 28 8 28 c 1,16,17
 8 24 8 24 8 12 c 1,18,19
 9 12 9 12 12 12 c 1,20,21
 12 11 12 11 12 8 c 1,22,23
 14 8 14 8 20 8 c 1,0,1
0 0 m 1,24,25
 0 10 0 10 0 40 c 1,26,27
 2 40 2 40 8 40 c 1,28,29
 8 39 8 39 8 36 c 1,30,31
 12 36 12 36 24 36 c 1,32,33
 24 35 24 35 24 32 c 1,34,35
 25 32 25 32 28 32 c 1,36,37
 28 31 28 31 28 28 c 1,38,39
 29 28 29 28 32 28 c 1,40,41
 32 24 32 24 32 12 c 1,42,43
 31 12 31 12 28 12 c 1,44,45
 28 11 28 11 28 8 c 1,46,47
 27 8 27 8 24 8 c 1,48,49
 24 7 24 7 24 4 c 1,50,51
 20 4 20 4 8 4 c 1,52,53
 8 3 8 3 8 0 c 1,54,55
 6 0 6 0 0 0 c 1,24,25
EndSplineSet
EndChar

StartChar: ydieresis
Encoding: 255 255 181
Width: 36
GlyphClass: 2
Flags: W
LayerCount: 2
Fore
SplineSet
8 -12 m 1,0,1
 8 -11 8 -11 8 -8 c 1,2,3
 7 -8 7 -8 4 -8 c 1,4,5
 4 -7 4 -7 4 -4 c 1,6,7
 3 -4 3 -4 0 -4 c 1,8,9
 0 -3 0 -3 0 0 c 1,10,11
 2 0 2 0 8 0 c 1,12,13
 8 -1 8 -1 8 -4 c 1,14,15
 9 -4 9 -4 12 -4 c 1,16,17
 12 -5 12 -5 12 -8 c 1,18,19
 14 -8 14 -8 20 -8 c 1,20,21
 20 -7 20 -7 20 -4 c 1,22,23
 21 -4 21 -4 24 -4 c 1,24,25
 24 -1 24 -1 24 8 c 1,26,27
 20 8 20 8 8 8 c 1,28,29
 8 9 8 9 8 12 c 1,30,31
 7 12 7 12 4 12 c 1,32,33
 4 13 4 13 4 16 c 1,34,35
 3 16 3 16 0 16 c 1,36,37
 0 22 0 22 0 40 c 1,38,39
 1 40 1 40 4 40 c 0,40,41
 5 40 5 40 8 40 c 1,42,43
 8 34 8 34 8 16 c 1,44,45
 9 16 9 16 12 16 c 1,46,47
 12 15 12 15 12 12 c 1,48,49
 14 12 14 12 20 12 c 1,50,51
 20 13 20 13 20 16 c 1,52,53
 21 16 21 16 24 16 c 1,54,55
 24 22 24 22 24 40 c 1,56,57
 26 40 26 40 32 40 c 1,58,59
 32 29 32 29 32 -4 c 1,60,61
 31 -4 31 -4 28 -4 c 1,62,63
 28 -5 28 -5 28 -8 c 1,64,65
 27 -8 27 -8 24 -8 c 1,66,67
 24 -9 24 -9 24 -12 c 1,68,69
 20 -12 20 -12 8 -12 c 1,0,1
4 44 m 1,70,71
 4 45 4 45 4 48 c 1,72,73
 6 48 6 48 12 48 c 1,74,75
 12 47 12 47 12 44 c 1,76,77
 11 44 11 44 8 44 c 0,78,79
 7 44 7 44 4 44 c 1,70,71
20 44 m 1,80,81
 20 45 20 45 20 48 c 1,82,83
 22 48 22 48 28 48 c 1,84,85
 28 47 28 47 28 44 c 1,86,87
 26 44 26 44 20 44 c 1,80,81
EndSplineSet
EndChar

StartChar: uni0108
Encoding: 264 264 182
Width: 36
GlyphClass: 2
Flags: W
LayerCount: 2
Fore
SplineSet
8 0 m 1,0,1
 8 1 8 1 8 4 c 1,2,3
 7 4 7 4 4 4 c 1,4,5
 4 5 4 5 4 8 c 1,6,7
 3 8 3 8 0 8 c 1,8,9
 0 17 0 17 0 44 c 1,10,11
 1 44 1 44 4 44 c 1,12,13
 4 45 4 45 4 48 c 1,14,15
 5 48 5 48 8 48 c 1,16,17
 8 49 8 49 8 52 c 1,18,19
 9 52 9 52 12 52 c 256,20,21
 15 52 15 52 24 52 c 1,22,23
 24 51 24 51 24 48 c 1,24,25
 25 48 25 48 28 48 c 1,26,27
 28 47 28 47 28 44 c 1,28,29
 29 44 29 44 32 44 c 1,30,31
 32 43 32 43 32 40 c 1,32,33
 30 40 30 40 24 40 c 1,34,35
 24 41 24 41 24 44 c 1,36,37
 23 44 23 44 20 44 c 1,38,39
 20 45 20 45 20 48 c 1,40,41
 18 48 18 48 12 48 c 1,42,43
 12 47 12 47 12 44 c 1,44,45
 11 44 11 44 8 44 c 1,46,47
 8 35 8 35 8 8 c 1,48,49
 9 8 9 8 12 8 c 1,50,51
 12 7 12 7 12 4 c 1,52,53
 14 4 14 4 20 4 c 1,54,55
 20 5 20 5 20 8 c 1,56,57
 21 8 21 8 24 8 c 1,58,59
 24 9 24 9 24 12 c 1,60,61
 26 12 26 12 32 12 c 1,62,63
 32 11 32 11 32 8 c 1,64,65
 31 8 31 8 28 8 c 1,66,67
 28 7 28 7 28 4 c 1,68,69
 27 4 27 4 24 4 c 1,70,71
 24 3 24 3 24 0 c 1,72,73
 20 0 20 0 8 0 c 1,0,1
4 56 m 1,74,75
 4 57 4 57 4 60 c 1,76,77
 5 60 5 60 8 60 c 1,78,79
 8 61 8 61 8 64 c 1,80,81
 9 64 9 64 12 64 c 1,82,83
 12 65 12 65 12 68 c 1,84,85
 14 68 14 68 20 68 c 1,86,87
 20 67 20 67 20 64 c 1,88,89
 21 64 21 64 24 64 c 1,90,91
 24 63 24 63 24 60 c 1,92,93
 25 60 25 60 28 60 c 1,94,95
 28 59 28 59 28 56 c 1,96,97
 26 56 26 56 20 56 c 1,98,99
 20 57 20 57 20 60 c 1,100,101
 18 60 18 60 12 60 c 1,102,103
 12 59 12 59 12 56 c 1,104,105
 11 56 11 56 8 56 c 0,106,107
 7 56 7 56 4 56 c 1,74,75
EndSplineSet
EndChar

StartChar: uni0109
Encoding: 265 265 183
Width: 36
GlyphClass: 2
Flags: W
LayerCount: 2
Fore
SplineSet
8 0 m 1,0,1
 8 1 8 1 8 4 c 1,2,3
 7 4 7 4 4 4 c 1,4,5
 4 5 4 5 4 8 c 1,6,7
 3 8 3 8 0 8 c 1,8,9
 0 14 0 14 0 32 c 1,10,11
 1 32 1 32 4 32 c 1,12,13
 4 33 4 33 4 36 c 1,14,15
 5 36 5 36 8 36 c 1,16,17
 8 37 8 37 8 40 c 1,18,19
 9 40 9 40 12 40 c 256,20,21
 15 40 15 40 24 40 c 1,22,23
 24 39 24 39 24 36 c 1,24,25
 25 36 25 36 28 36 c 1,26,27
 28 35 28 35 28 32 c 1,28,29
 29 32 29 32 32 32 c 1,30,31
 32 31 32 31 32 28 c 1,32,33
 30 28 30 28 24 28 c 1,34,35
 24 29 24 29 24 32 c 1,36,37
 23 32 23 32 20 32 c 1,38,39
 20 33 20 33 20 36 c 1,40,41
 18 36 18 36 12 36 c 1,42,43
 12 35 12 35 12 32 c 1,44,45
 11 32 11 32 8 32 c 1,46,47
 8 26 8 26 8 8 c 1,48,49
 9 8 9 8 12 8 c 1,50,51
 12 7 12 7 12 4 c 1,52,53
 14 4 14 4 20 4 c 1,54,55
 20 5 20 5 20 8 c 1,56,57
 21 8 21 8 24 8 c 1,58,59
 24 9 24 9 24 12 c 1,60,61
 26 12 26 12 32 12 c 1,62,63
 32 11 32 11 32 8 c 1,64,65
 31 8 31 8 28 8 c 1,66,67
 28 7 28 7 28 4 c 1,68,69
 27 4 27 4 24 4 c 1,70,71
 24 3 24 3 24 0 c 1,72,73
 20 0 20 0 8 0 c 1,0,1
4 44 m 1,74,75
 4 45 4 45 4 48 c 1,76,77
 5 48 5 48 8 48 c 1,78,79
 8 49 8 49 8 52 c 1,80,81
 9 52 9 52 12 52 c 1,82,83
 12 53 12 53 12 56 c 1,84,85
 14 56 14 56 20 56 c 1,86,87
 20 55 20 55 20 52 c 1,88,89
 21 52 21 52 24 52 c 1,90,91
 24 51 24 51 24 48 c 1,92,93
 25 48 25 48 28 48 c 1,94,95
 28 47 28 47 28 44 c 1,96,97
 26 44 26 44 20 44 c 1,98,99
 20 45 20 45 20 48 c 1,100,101
 18 48 18 48 12 48 c 1,102,103
 12 47 12 47 12 44 c 1,104,105
 11 44 11 44 8 44 c 0,106,107
 7 44 7 44 4 44 c 1,74,75
EndSplineSet
EndChar

StartChar: Ccaron
Encoding: 268 268 184
Width: 36
GlyphClass: 2
Flags: W
LayerCount: 2
Fore
SplineSet
8 0 m 1,0,1
 8 1 8 1 8 4 c 1,2,3
 7 4 7 4 4 4 c 1,4,5
 4 5 4 5 4 8 c 1,6,7
 3 8 3 8 0 8 c 1,8,9
 0 17 0 17 0 44 c 1,10,11
 1 44 1 44 4 44 c 1,12,13
 4 45 4 45 4 48 c 1,14,15
 5 48 5 48 8 48 c 1,16,17
 8 49 8 49 8 52 c 1,18,19
 12 52 12 52 24 52 c 1,20,21
 24 51 24 51 24 48 c 1,22,23
 25 48 25 48 28 48 c 1,24,25
 28 47 28 47 28 44 c 1,26,27
 29 44 29 44 32 44 c 1,28,29
 32 43 32 43 32 40 c 1,30,31
 30 40 30 40 24 40 c 1,32,33
 24 41 24 41 24 44 c 1,34,35
 23 44 23 44 20 44 c 1,36,37
 20 45 20 45 20 48 c 1,38,39
 18 48 18 48 12 48 c 1,40,41
 12 47 12 47 12 44 c 1,42,43
 11 44 11 44 8 44 c 1,44,45
 8 35 8 35 8 8 c 1,46,47
 9 8 9 8 12 8 c 1,48,49
 12 7 12 7 12 4 c 1,50,51
 14 4 14 4 20 4 c 1,52,53
 20 5 20 5 20 8 c 1,54,55
 21 8 21 8 24 8 c 1,56,57
 24 9 24 9 24 12 c 1,58,59
 26 12 26 12 32 12 c 1,60,61
 32 11 32 11 32 8 c 1,62,63
 31 8 31 8 28 8 c 1,64,65
 28 7 28 7 28 4 c 1,66,67
 27 4 27 4 24 4 c 1,68,69
 24 3 24 3 24 0 c 1,70,71
 20 0 20 0 8 0 c 1,0,1
12 56 m 1,72,73
 12 57 12 57 12 60 c 1,74,75
 11 60 11 60 8 60 c 1,76,77
 8 61 8 61 8 64 c 1,78,79
 7 64 7 64 4 64 c 1,80,81
 4 65 4 65 4 68 c 1,82,83
 6 68 6 68 12 68 c 1,84,85
 12 67 12 67 12 64 c 1,86,87
 14 64 14 64 20 64 c 1,88,89
 20 65 20 65 20 68 c 1,90,91
 22 68 22 68 28 68 c 1,92,93
 28 67 28 67 28 64 c 1,94,95
 27 64 27 64 24 64 c 1,96,97
 24 63 24 63 24 60 c 1,98,99
 23 60 23 60 20 60 c 1,100,101
 20 59 20 59 20 56 c 1,102,103
 18 56 18 56 12 56 c 1,72,73
EndSplineSet
EndChar

StartChar: ccaron
Encoding: 269 269 185
Width: 36
GlyphClass: 2
Flags: W
LayerCount: 2
Fore
SplineSet
8 0 m 1,0,1
 8 1 8 1 8 4 c 1,2,3
 7 4 7 4 4 4 c 1,4,5
 4 5 4 5 4 8 c 1,6,7
 3 8 3 8 0 8 c 1,8,9
 0 14 0 14 0 32 c 1,10,11
 1 32 1 32 4 32 c 1,12,13
 4 33 4 33 4 36 c 1,14,15
 5 36 5 36 8 36 c 1,16,17
 8 37 8 37 8 40 c 1,18,19
 12 40 12 40 24 40 c 1,20,21
 24 39 24 39 24 36 c 1,22,23
 25 36 25 36 28 36 c 1,24,25
 28 35 28 35 28 32 c 1,26,27
 29 32 29 32 32 32 c 1,28,29
 32 31 32 31 32 28 c 1,30,31
 30 28 30 28 24 28 c 1,32,33
 24 29 24 29 24 32 c 1,34,35
 23 32 23 32 20 32 c 1,36,37
 20 33 20 33 20 36 c 1,38,39
 18 36 18 36 12 36 c 1,40,41
 12 35 12 35 12 32 c 1,42,43
 11 32 11 32 8 32 c 1,44,45
 8 26 8 26 8 8 c 1,46,47
 9 8 9 8 12 8 c 1,48,49
 12 7 12 7 12 4 c 1,50,51
 14 4 14 4 20 4 c 1,52,53
 20 5 20 5 20 8 c 1,54,55
 21 8 21 8 24 8 c 1,56,57
 24 9 24 9 24 12 c 1,58,59
 26 12 26 12 32 12 c 1,60,61
 32 11 32 11 32 8 c 1,62,63
 31 8 31 8 28 8 c 1,64,65
 28 7 28 7 28 4 c 1,66,67
 27 4 27 4 24 4 c 1,68,69
 24 3 24 3 24 0 c 1,70,71
 20 0 20 0 8 0 c 1,0,1
12 44 m 1,72,73
 12 45 12 45 12 48 c 1,74,75
 11 48 11 48 8 48 c 1,76,77
 8 49 8 49 8 52 c 1,78,79
 7 52 7 52 4 52 c 1,80,81
 4 53 4 53 4 56 c 1,82,83
 6 56 6 56 12 56 c 1,84,85
 12 55 12 55 12 52 c 1,86,87
 14 52 14 52 20 52 c 1,88,89
 20 53 20 53 20 56 c 1,90,91
 22 56 22 56 28 56 c 1,92,93
 28 55 28 55 28 52 c 1,94,95
 27 52 27 52 24 52 c 1,96,97
 24 51 24 51 24 48 c 1,98,99
 23 48 23 48 20 48 c 1,100,101
 20 47 20 47 20 44 c 1,102,103
 18 44 18 44 12 44 c 1,72,73
EndSplineSet
EndChar

StartChar: uni010e
Encoding: 270 270 186
Width: 36
GlyphClass: 2
Flags: W
LayerCount: 2
Fore
SplineSet
20 4 m 1,0,1
 20 5 20 5 20 8 c 1,2,3
 21 8 21 8 24 8 c 1,4,5
 24 17 24 17 24 44 c 1,6,7
 23 44 23 44 20 44 c 1,8,9
 20 45 20 45 20 48 c 1,10,11
 17 48 17 48 8 48 c 1,12,13
 8 37 8 37 8 4 c 1,14,15
 11 4 11 4 20 4 c 1,0,1
0 0 m 1,16,17
 0 13 0 13 0 52 c 1,18,19
 1 52 1 52 4 52 c 0,20,21
 9 52 9 52 24 52 c 1,22,23
 24 51 24 51 24 48 c 1,24,25
 25 48 25 48 28 48 c 1,26,27
 28 47 28 47 28 44 c 1,28,29
 29 44 29 44 32 44 c 1,30,31
 32 35 32 35 32 8 c 1,32,33
 31 8 31 8 28 8 c 1,34,35
 28 7 28 7 28 4 c 1,36,37
 27 4 27 4 24 4 c 1,38,39
 24 3 24 3 24 0 c 1,40,41
 18 0 18 0 0 0 c 1,16,17
12 56 m 1,42,43
 12 57 12 57 12 60 c 1,44,45
 11 60 11 60 8 60 c 1,46,47
 8 61 8 61 8 64 c 1,48,49
 7 64 7 64 4 64 c 1,50,51
 4 65 4 65 4 68 c 1,52,53
 6 68 6 68 12 68 c 1,54,55
 12 67 12 67 12 64 c 1,56,57
 14 64 14 64 20 64 c 1,58,59
 20 65 20 65 20 68 c 1,60,61
 22 68 22 68 28 68 c 1,62,63
 28 67 28 67 28 64 c 1,64,65
 27 64 27 64 24 64 c 1,66,67
 24 63 24 63 24 60 c 1,68,69
 23 60 23 60 20 60 c 1,70,71
 20 59 20 59 20 56 c 1,72,73
 18 56 18 56 12 56 c 1,42,43
EndSplineSet
EndChar

StartChar: uni010f
Encoding: 271 271 187
Width: 48
GlyphClass: 2
Flags: W
LayerCount: 2
Fore
SplineSet
20 4 m 1,0,1
 20 5 20 5 20 8 c 1,2,3
 21 8 21 8 24 8 c 1,4,5
 24 14 24 14 24 32 c 1,6,7
 23 32 23 32 20 32 c 1,8,9
 20 33 20 33 20 36 c 1,10,11
 18 36 18 36 12 36 c 1,12,13
 12 35 12 35 12 32 c 1,14,15
 11 32 11 32 8 32 c 1,16,17
 8 26 8 26 8 8 c 1,18,19
 9 8 9 8 12 8 c 1,20,21
 12 7 12 7 12 4 c 1,22,23
 14 4 14 4 20 4 c 1,0,1
36 40 m 1,24,25
 36 42 36 42 36 48 c 1,26,27
 35 48 35 48 32 48 c 1,28,29
 32 46 32 46 32 40 c 1,30,31
 33 40 33 40 36 40 c 1,24,25
8 0 m 1,32,33
 8 1 8 1 8 4 c 1,34,35
 7 4 7 4 4 4 c 1,36,37
 4 5 4 5 4 8 c 1,38,39
 3 8 3 8 0 8 c 1,40,41
 0 14 0 14 0 32 c 1,42,43
 1 32 1 32 4 32 c 1,44,45
 4 33 4 33 4 36 c 1,46,47
 5 36 5 36 8 36 c 1,48,49
 8 37 8 37 8 40 c 1,50,51
 12 40 12 40 24 40 c 1,52,53
 24 43 24 43 24 52 c 1,54,55
 29 52 29 52 44 52 c 1,56,57
 44 49 44 49 44 40 c 1,58,59
 43 40 43 40 40 40 c 1,60,61
 40 39 40 39 40 36 c 1,62,63
 38 36 38 36 32 36 c 1,64,65
 32 27 32 27 32 0 c 1,66,67
 26 0 26 0 8 0 c 1,32,33
EndSplineSet
EndChar

StartChar: uni011a
Encoding: 282 282 188
Width: 36
GlyphClass: 2
Flags: W
LayerCount: 2
Fore
SplineSet
0 0 m 1,0,1
 0 13 0 13 0 52 c 1,2,3
 1 52 1 52 4 52 c 0,4,5
 11 52 11 52 32 52 c 1,6,7
 32 51 32 51 32 48 c 1,8,9
 26 48 26 48 8 48 c 1,10,11
 8 43 8 43 8 28 c 1,12,13
 12 28 12 28 24 28 c 1,14,15
 24 27 24 27 24 24 c 1,16,17
 20 24 20 24 8 24 c 1,18,19
 8 19 8 19 8 4 c 1,20,21
 14 4 14 4 32 4 c 1,22,23
 32 3 32 3 32 0 c 1,24,25
 24 0 24 0 0 0 c 1,0,1
12 56 m 1,26,27
 12 57 12 57 12 60 c 1,28,29
 11 60 11 60 8 60 c 1,30,31
 8 61 8 61 8 64 c 1,32,33
 7 64 7 64 4 64 c 1,34,35
 4 65 4 65 4 68 c 1,36,37
 6 68 6 68 12 68 c 1,38,39
 12 67 12 67 12 64 c 1,40,41
 14 64 14 64 20 64 c 1,42,43
 20 65 20 65 20 68 c 1,44,45
 22 68 22 68 28 68 c 1,46,47
 28 67 28 67 28 64 c 1,48,49
 27 64 27 64 24 64 c 1,50,51
 24 63 24 63 24 60 c 1,52,53
 23 60 23 60 20 60 c 1,54,55
 20 59 20 59 20 56 c 1,56,57
 18 56 18 56 12 56 c 1,26,27
EndSplineSet
EndChar

StartChar: uni011b
Encoding: 283 283 189
Width: 36
GlyphClass: 2
Flags: W
LayerCount: 2
Fore
SplineSet
24 24 m 1,0,1
 24 26 24 26 24 32 c 1,2,3
 23 32 23 32 20 32 c 1,4,5
 20 33 20 33 20 36 c 1,6,7
 18 36 18 36 12 36 c 1,8,9
 12 35 12 35 12 32 c 1,10,11
 11 32 11 32 8 32 c 1,12,13
 8 30 8 30 8 24 c 1,14,15
 12 24 12 24 24 24 c 1,0,1
8 0 m 1,16,17
 8 1 8 1 8 4 c 1,18,19
 7 4 7 4 4 4 c 1,20,21
 4 5 4 5 4 8 c 1,22,23
 3 8 3 8 0 8 c 1,24,25
 0 14 0 14 0 32 c 1,26,27
 1 32 1 32 4 32 c 1,28,29
 4 33 4 33 4 36 c 1,30,31
 5 36 5 36 8 36 c 1,32,33
 8 37 8 37 8 40 c 1,34,35
 12 40 12 40 24 40 c 1,36,37
 24 39 24 39 24 36 c 1,38,39
 25 36 25 36 28 36 c 1,40,41
 28 35 28 35 28 32 c 1,42,43
 29 32 29 32 32 32 c 1,44,45
 32 29 32 29 32 20 c 1,46,47
 26 20 26 20 8 20 c 1,48,49
 8 17 8 17 8 8 c 1,50,51
 9 8 9 8 12 8 c 1,52,53
 12 7 12 7 12 4 c 1,54,55
 14 4 14 4 20 4 c 1,56,57
 20 5 20 5 20 8 c 1,58,59
 21 8 21 8 24 8 c 1,60,61
 24 9 24 9 24 12 c 1,62,63
 26 12 26 12 32 12 c 1,64,65
 32 11 32 11 32 8 c 1,66,67
 31 8 31 8 28 8 c 1,68,69
 28 7 28 7 28 4 c 1,70,71
 27 4 27 4 24 4 c 1,72,73
 24 3 24 3 24 0 c 1,74,75
 20 0 20 0 8 0 c 1,16,17
12 44 m 1,76,77
 12 45 12 45 12 48 c 1,78,79
 11 48 11 48 8 48 c 1,80,81
 8 49 8 49 8 52 c 1,82,83
 7 52 7 52 4 52 c 1,84,85
 4 53 4 53 4 56 c 1,86,87
 6 56 6 56 12 56 c 1,88,89
 12 55 12 55 12 52 c 1,90,91
 14 52 14 52 20 52 c 1,92,93
 20 53 20 53 20 56 c 1,94,95
 22 56 22 56 28 56 c 1,96,97
 28 55 28 55 28 52 c 1,98,99
 27 52 27 52 24 52 c 1,100,101
 24 51 24 51 24 48 c 1,102,103
 23 48 23 48 20 48 c 1,104,105
 20 47 20 47 20 44 c 1,106,107
 18 44 18 44 12 44 c 1,76,77
EndSplineSet
EndChar

StartChar: uni011c
Encoding: 284 284 190
Width: 36
GlyphClass: 2
Flags: W
LayerCount: 2
Fore
SplineSet
8 0 m 1,0,1
 8 1 8 1 8 4 c 1,2,3
 7 4 7 4 4 4 c 1,4,5
 4 5 4 5 4 8 c 1,6,7
 3 8 3 8 0 8 c 1,8,9
 0 17 0 17 0 44 c 1,10,11
 1 44 1 44 4 44 c 1,12,13
 4 45 4 45 4 48 c 1,14,15
 5 48 5 48 8 48 c 1,16,17
 8 49 8 49 8 52 c 1,18,19
 9 52 9 52 12 52 c 0,20,21
 16 52 16 52 28 52 c 1,22,23
 28 51 28 51 28 48 c 1,24,25
 29 48 29 48 32 48 c 1,26,27
 32 47 32 47 32 44 c 1,28,29
 30 44 30 44 24 44 c 1,30,31
 24 45 24 45 24 48 c 1,32,33
 21 48 21 48 12 48 c 1,34,35
 12 47 12 47 12 44 c 1,36,37
 11 44 11 44 8 44 c 1,38,39
 8 35 8 35 8 8 c 1,40,41
 9 8 9 8 12 8 c 1,42,43
 12 7 12 7 12 4 c 1,44,45
 15 4 15 4 24 4 c 1,46,47
 24 9 24 9 24 24 c 1,48,49
 22 24 22 24 16 24 c 1,50,51
 16 25 16 25 16 28 c 1,52,53
 20 28 20 28 32 28 c 1,54,55
 32 21 32 21 32 0 c 1,56,57
 26 0 26 0 8 0 c 1,0,1
4 56 m 1,58,59
 4 57 4 57 4 60 c 1,60,61
 5 60 5 60 8 60 c 1,62,63
 8 61 8 61 8 64 c 1,64,65
 9 64 9 64 12 64 c 1,66,67
 12 65 12 65 12 68 c 1,68,69
 14 68 14 68 20 68 c 1,70,71
 20 67 20 67 20 64 c 1,72,73
 21 64 21 64 24 64 c 1,74,75
 24 63 24 63 24 60 c 1,76,77
 25 60 25 60 28 60 c 1,78,79
 28 59 28 59 28 56 c 1,80,81
 26 56 26 56 20 56 c 1,82,83
 20 57 20 57 20 60 c 1,84,85
 18 60 18 60 12 60 c 1,86,87
 12 59 12 59 12 56 c 1,88,89
 11 56 11 56 8 56 c 0,90,91
 7 56 7 56 4 56 c 1,58,59
EndSplineSet
EndChar

StartChar: uni011d
Encoding: 285 285 191
Width: 36
GlyphClass: 2
Flags: W
LayerCount: 2
Fore
SplineSet
20 12 m 1,0,1
 20 13 20 13 20 16 c 1,2,3
 21 16 21 16 24 16 c 1,4,5
 24 20 24 20 24 32 c 1,6,7
 23 32 23 32 20 32 c 1,8,9
 20 33 20 33 20 36 c 1,10,11
 18 36 18 36 12 36 c 1,12,13
 12 35 12 35 12 32 c 1,14,15
 11 32 11 32 8 32 c 1,16,17
 8 28 8 28 8 16 c 1,18,19
 9 16 9 16 12 16 c 1,20,21
 12 15 12 15 12 12 c 1,22,23
 14 12 14 12 20 12 c 1,0,1
8 -12 m 1,24,25
 8 -11 8 -11 8 -8 c 1,26,27
 7 -8 7 -8 4 -8 c 1,28,29
 4 -7 4 -7 4 -4 c 1,30,31
 3 -4 3 -4 0 -4 c 1,32,33
 0 -3 0 -3 0 0 c 1,34,35
 2 0 2 0 8 0 c 1,36,37
 8 -1 8 -1 8 -4 c 1,38,39
 9 -4 9 -4 12 -4 c 1,40,41
 12 -5 12 -5 12 -8 c 1,42,43
 14 -8 14 -8 20 -8 c 1,44,45
 20 -7 20 -7 20 -4 c 1,46,47
 21 -4 21 -4 24 -4 c 1,48,49
 24 -1 24 -1 24 8 c 1,50,51
 20 8 20 8 8 8 c 1,52,53
 8 9 8 9 8 12 c 1,54,55
 7 12 7 12 4 12 c 1,56,57
 4 13 4 13 4 16 c 1,58,59
 3 16 3 16 0 16 c 1,60,61
 0 20 0 20 0 32 c 1,62,63
 1 32 1 32 4 32 c 1,64,65
 4 33 4 33 4 36 c 1,66,67
 5 36 5 36 8 36 c 1,68,69
 8 37 8 37 8 40 c 1,70,71
 9 40 9 40 12 40 c 0,72,73
 17 40 17 40 32 40 c 1,74,75
 32 29 32 29 32 -4 c 1,76,77
 31 -4 31 -4 28 -4 c 1,78,79
 28 -5 28 -5 28 -8 c 1,80,81
 27 -8 27 -8 24 -8 c 1,82,83
 24 -9 24 -9 24 -12 c 1,84,85
 20 -12 20 -12 8 -12 c 1,24,25
4 44 m 1,86,87
 4 45 4 45 4 48 c 1,88,89
 5 48 5 48 8 48 c 1,90,91
 8 49 8 49 8 52 c 1,92,93
 9 52 9 52 12 52 c 1,94,95
 12 53 12 53 12 56 c 1,96,97
 14 56 14 56 20 56 c 1,98,99
 20 55 20 55 20 52 c 1,100,101
 21 52 21 52 24 52 c 1,102,103
 24 51 24 51 24 48 c 1,104,105
 25 48 25 48 28 48 c 1,106,107
 28 47 28 47 28 44 c 1,108,109
 26 44 26 44 20 44 c 1,110,111
 20 45 20 45 20 48 c 1,112,113
 18 48 18 48 12 48 c 1,114,115
 12 47 12 47 12 44 c 1,116,117
 11 44 11 44 8 44 c 0,118,119
 7 44 7 44 4 44 c 1,86,87
EndSplineSet
EndChar

StartChar: uni0124
Encoding: 292 292 192
Width: 36
GlyphClass: 2
Flags: W
LayerCount: 2
Fore
SplineSet
0 0 m 1,0,1
 0 13 0 13 0 52 c 1,2,3
 2 52 2 52 8 52 c 1,4,5
 8 46 8 46 8 28 c 1,6,7
 12 28 12 28 24 28 c 1,8,9
 24 34 24 34 24 52 c 1,10,11
 26 52 26 52 32 52 c 1,12,13
 32 39 32 39 32 0 c 1,14,15
 30 0 30 0 24 0 c 1,16,17
 24 6 24 6 24 24 c 1,18,19
 20 24 20 24 8 24 c 1,20,21
 8 18 8 18 8 0 c 1,22,23
 6 0 6 0 0 0 c 1,0,1
4 56 m 1,24,25
 4 57 4 57 4 60 c 1,26,27
 5 60 5 60 8 60 c 1,28,29
 8 61 8 61 8 64 c 1,30,31
 9 64 9 64 12 64 c 1,32,33
 12 65 12 65 12 68 c 1,34,35
 14 68 14 68 20 68 c 1,36,37
 20 67 20 67 20 64 c 1,38,39
 21 64 21 64 24 64 c 1,40,41
 24 63 24 63 24 60 c 1,42,43
 25 60 25 60 28 60 c 1,44,45
 28 59 28 59 28 56 c 1,46,47
 26 56 26 56 20 56 c 1,48,49
 20 57 20 57 20 60 c 1,50,51
 18 60 18 60 12 60 c 1,52,53
 12 59 12 59 12 56 c 1,54,55
 10 56 10 56 4 56 c 1,24,25
EndSplineSet
EndChar

StartChar: uni0125
Encoding: 293 293 193
Width: 36
GlyphClass: 2
Flags: W
LayerCount: 2
Fore
SplineSet
0 0 m 1,0,1
 0 13 0 13 0 52 c 1,2,3
 2 52 2 52 8 52 c 1,4,5
 8 49 8 49 8 40 c 1,6,7
 12 40 12 40 24 40 c 1,8,9
 24 39 24 39 24 36 c 1,10,11
 25 36 25 36 28 36 c 1,12,13
 28 35 28 35 28 32 c 1,14,15
 29 32 29 32 32 32 c 1,16,17
 32 24 32 24 32 0 c 1,18,19
 30 0 30 0 24 0 c 1,20,21
 24 8 24 8 24 32 c 1,22,23
 23 32 23 32 20 32 c 1,24,25
 20 33 20 33 20 36 c 1,26,27
 18 36 18 36 12 36 c 1,28,29
 12 35 12 35 12 32 c 1,30,31
 11 32 11 32 8 32 c 1,32,33
 8 24 8 24 8 0 c 1,34,35
 6 0 6 0 0 0 c 1,0,1
-8 56 m 1,36,37
 -8 57 -8 57 -8 60 c 1,38,39
 -7 60 -7 60 -4 60 c 1,40,41
 -4 61 -4 61 -4 64 c 1,42,43
 -3 64 -3 64 0 64 c 1,44,45
 0 65 0 65 0 68 c 1,46,47
 2 68 2 68 8 68 c 1,48,49
 8 67 8 67 8 64 c 1,50,51
 9 64 9 64 12 64 c 1,52,53
 12 63 12 63 12 60 c 1,54,55
 13 60 13 60 16 60 c 1,56,57
 16 59 16 59 16 56 c 1,58,59
 14 56 14 56 8 56 c 1,60,61
 8 57 8 57 8 60 c 1,62,63
 6 60 6 60 0 60 c 1,64,65
 0 59 0 59 0 56 c 1,66,67
 -2 56 -2 56 -8 56 c 1,36,37
EndSplineSet
EndChar

StartChar: dotlessi
Encoding: 305 305 194
Width: 12
GlyphClass: 2
Flags: W
LayerCount: 2
Fore
SplineSet
0 0 m 1,0,1
 0 10 0 10 0 40 c 1,2,3
 2 40 2 40 8 40 c 1,4,5
 8 30 8 30 8 0 c 1,6,7
 6 0 6 0 0 0 c 1,0,1
EndSplineSet
EndChar

StartChar: uni0134
Encoding: 308 308 195
Width: 36
GlyphClass: 2
Flags: W
LayerCount: 2
Fore
SplineSet
8 0 m 1,0,1
 8 1 8 1 8 4 c 1,2,3
 7 4 7 4 4 4 c 1,4,5
 4 5 4 5 4 8 c 1,6,7
 3 8 3 8 0 8 c 1,8,9
 0 9 0 9 0 12 c 1,10,11
 2 12 2 12 8 12 c 1,12,13
 8 11 8 11 8 8 c 1,14,15
 9 8 9 8 12 8 c 1,16,17
 12 7 12 7 12 4 c 1,18,19
 14 4 14 4 20 4 c 1,20,21
 20 5 20 5 20 8 c 1,22,23
 21 8 21 8 24 8 c 1,24,25
 24 19 24 19 24 52 c 1,26,27
 26 52 26 52 32 52 c 1,28,29
 32 41 32 41 32 8 c 1,30,31
 31 8 31 8 28 8 c 1,32,33
 28 7 28 7 28 4 c 1,34,35
 27 4 27 4 24 4 c 1,36,37
 24 3 24 3 24 0 c 1,38,39
 20 0 20 0 8 0 c 1,0,1
16 56 m 1,40,41
 16 57 16 57 16 60 c 1,42,43
 17 60 17 60 20 60 c 1,44,45
 20 61 20 61 20 64 c 1,46,47
 21 64 21 64 24 64 c 1,48,49
 24 65 24 65 24 68 c 1,50,51
 26 68 26 68 32 68 c 1,52,53
 32 67 32 67 32 64 c 1,54,55
 33 64 33 64 36 64 c 1,56,57
 36 63 36 63 36 60 c 1,58,59
 37 60 37 60 40 60 c 1,60,61
 40 59 40 59 40 56 c 1,62,63
 38 56 38 56 32 56 c 1,64,65
 32 57 32 57 32 60 c 1,66,67
 30 60 30 60 24 60 c 1,68,69
 24 59 24 59 24 56 c 1,70,71
 22 56 22 56 16 56 c 1,40,41
EndSplineSet
EndChar

StartChar: uni0135
Encoding: 309 309 196
Width: 16
GlyphClass: 2
Flags: W
LayerCount: 2
Fore
SplineSet
-4 -12 m 1,0,1
 -4 -11 -4 -11 -4 -8 c 1,2,3
 -5 -8 -5 -8 -8 -8 c 1,4,5
 -8 -7 -8 -7 -8 -4 c 1,6,7
 -6 -4 -6 -4 0 -4 c 1,8,9
 0 -5 0 -5 0 -8 c 1,10,11
 1 -8 1 -8 4 -8 c 1,12,13
 4 5 4 5 4 44 c 1,14,15
 6 44 6 44 12 44 c 1,16,17
 12 31 12 31 12 -8 c 1,18,19
 11 -8 11 -8 8 -8 c 1,20,21
 8 -9 8 -9 8 -12 c 1,22,23
 5 -12 5 -12 -4 -12 c 1,0,1
-4 48 m 1,24,25
 -4 49 -4 49 -4 52 c 1,26,27
 -3 52 -3 52 0 52 c 1,28,29
 0 53 0 53 0 56 c 1,30,31
 1 56 1 56 4 56 c 1,32,33
 4 57 4 57 4 60 c 1,34,35
 6 60 6 60 12 60 c 1,36,37
 12 59 12 59 12 56 c 1,38,39
 13 56 13 56 16 56 c 1,40,41
 16 55 16 55 16 52 c 1,42,43
 17 52 17 52 20 52 c 1,44,45
 20 51 20 51 20 48 c 1,46,47
 18 48 18 48 12 48 c 1,48,49
 12 49 12 49 12 52 c 1,50,51
 10 52 10 52 4 52 c 1,52,53
 4 51 4 51 4 48 c 1,54,55
 2 48 2 48 -4 48 c 1,24,25
EndSplineSet
EndChar

StartChar: uni0147
Encoding: 327 327 197
Width: 36
GlyphClass: 2
Flags: W
LayerCount: 2
Fore
SplineSet
0 0 m 1,0,1
 0 13 0 13 0 52 c 1,2,3
 1 52 1 52 4 52 c 0,4,5
 5 52 5 52 8 52 c 1,6,7
 8 49 8 49 8 40 c 1,8,9
 9 40 9 40 12 40 c 1,10,11
 12 39 12 39 12 36 c 1,12,13
 13 36 13 36 16 36 c 1,14,15
 16 35 16 35 16 32 c 1,16,17
 17 32 17 32 20 32 c 1,18,19
 20 31 20 31 20 28 c 1,20,21
 21 28 21 28 24 28 c 1,22,23
 24 34 24 34 24 52 c 1,24,25
 26 52 26 52 32 52 c 1,26,27
 32 39 32 39 32 0 c 1,28,29
 30 0 30 0 24 0 c 1,30,31
 24 5 24 5 24 20 c 1,32,33
 23 20 23 20 20 20 c 1,34,35
 20 21 20 21 20 24 c 1,36,37
 19 24 19 24 16 24 c 1,38,39
 16 25 16 25 16 28 c 1,40,41
 15 28 15 28 12 28 c 1,42,43
 12 29 12 29 12 32 c 1,44,45
 11 32 11 32 8 32 c 1,46,47
 8 24 8 24 8 0 c 1,48,49
 6 0 6 0 0 0 c 1,0,1
12 52 m 1,50,51
 12 53 12 53 12 56 c 1,52,53
 11 56 11 56 8 56 c 1,54,55
 8 57 8 57 8 60 c 1,56,57
 7 60 7 60 4 60 c 1,58,59
 4 61 4 61 4 64 c 1,60,61
 6 64 6 64 12 64 c 1,62,63
 12 63 12 63 12 60 c 1,64,65
 14 60 14 60 20 60 c 1,66,67
 20 61 20 61 20 64 c 1,68,69
 22 64 22 64 28 64 c 1,70,71
 28 63 28 63 28 60 c 1,72,73
 27 60 27 60 24 60 c 1,74,75
 24 59 24 59 24 56 c 1,76,77
 23 56 23 56 20 56 c 1,78,79
 20 55 20 55 20 52 c 1,80,81
 18 52 18 52 12 52 c 1,50,51
EndSplineSet
EndChar

StartChar: uni0148
Encoding: 328 328 198
Width: 36
GlyphClass: 2
Flags: W
LayerCount: 2
Fore
SplineSet
0 0 m 1,0,1
 0 10 0 10 0 40 c 1,2,3
 1 40 1 40 4 40 c 0,4,5
 9 40 9 40 24 40 c 1,6,7
 24 39 24 39 24 36 c 1,8,9
 25 36 25 36 28 36 c 1,10,11
 28 35 28 35 28 32 c 1,12,13
 29 32 29 32 32 32 c 1,14,15
 32 24 32 24 32 0 c 1,16,17
 30 0 30 0 24 0 c 1,18,19
 24 8 24 8 24 32 c 1,20,21
 23 32 23 32 20 32 c 1,22,23
 20 33 20 33 20 36 c 1,24,25
 18 36 18 36 12 36 c 1,26,27
 12 35 12 35 12 32 c 1,28,29
 11 32 11 32 8 32 c 1,30,31
 8 24 8 24 8 0 c 1,32,33
 6 0 6 0 0 0 c 1,0,1
12 44 m 1,34,35
 12 45 12 45 12 48 c 1,36,37
 11 48 11 48 8 48 c 1,38,39
 8 49 8 49 8 52 c 1,40,41
 7 52 7 52 4 52 c 1,42,43
 4 53 4 53 4 56 c 1,44,45
 6 56 6 56 12 56 c 1,46,47
 12 55 12 55 12 52 c 1,48,49
 14 52 14 52 20 52 c 1,50,51
 20 53 20 53 20 56 c 1,52,53
 22 56 22 56 28 56 c 1,54,55
 28 55 28 55 28 52 c 1,56,57
 27 52 27 52 24 52 c 1,58,59
 24 51 24 51 24 48 c 1,60,61
 23 48 23 48 20 48 c 1,62,63
 20 47 20 47 20 44 c 1,64,65
 18 44 18 44 12 44 c 1,34,35
EndSplineSet
EndChar

StartChar: OE
Encoding: 338 338 199
Width: 60
GlyphClass: 2
Flags: W
LayerCount: 2
Fore
SplineSet
20 4 m 1,0,1
 20 5 20 5 20 8 c 1,2,3
 21 8 21 8 24 8 c 1,4,5
 24 17 24 17 24 44 c 1,6,7
 23 44 23 44 20 44 c 1,8,9
 20 45 20 45 20 48 c 1,10,11
 18 48 18 48 12 48 c 1,12,13
 12 47 12 47 12 44 c 1,14,15
 11 44 11 44 8 44 c 1,16,17
 8 35 8 35 8 8 c 1,18,19
 9 8 9 8 12 8 c 1,20,21
 12 7 12 7 12 4 c 1,22,23
 14 4 14 4 20 4 c 1,0,1
8 0 m 1,24,25
 8 1 8 1 8 4 c 1,26,27
 7 4 7 4 4 4 c 1,28,29
 4 5 4 5 4 8 c 1,30,31
 3 8 3 8 0 8 c 1,32,33
 0 17 0 17 0 44 c 1,34,35
 1 44 1 44 4 44 c 1,36,37
 4 45 4 45 4 48 c 1,38,39
 5 48 5 48 8 48 c 1,40,41
 8 49 8 49 8 52 c 1,42,43
 20 52 20 52 56 52 c 1,44,45
 56 51 56 51 56 48 c 1,46,47
 50 48 50 48 32 48 c 1,48,49
 32 43 32 43 32 28 c 1,50,51
 36 28 36 28 48 28 c 1,52,53
 48 27 48 27 48 24 c 1,54,55
 44 24 44 24 32 24 c 1,56,57
 32 19 32 19 32 4 c 1,58,59
 38 4 38 4 56 4 c 1,60,61
 56 3 56 3 56 0 c 1,62,63
 44 0 44 0 8 0 c 1,24,25
EndSplineSet
EndChar

StartChar: oe
Encoding: 339 339 200
Width: 60
GlyphClass: 2
Flags: W
LayerCount: 2
Fore
SplineSet
20 4 m 1,0,1
 20 5 20 5 20 8 c 1,2,3
 21 8 21 8 24 8 c 1,4,5
 24 14 24 14 24 32 c 1,6,7
 23 32 23 32 20 32 c 1,8,9
 20 33 20 33 20 36 c 1,10,11
 18 36 18 36 12 36 c 1,12,13
 12 35 12 35 12 32 c 1,14,15
 11 32 11 32 8 32 c 1,16,17
 8 26 8 26 8 8 c 1,18,19
 9 8 9 8 12 8 c 1,20,21
 12 7 12 7 12 4 c 1,22,23
 14 4 14 4 20 4 c 1,0,1
48 24 m 1,24,25
 48 26 48 26 48 32 c 1,26,27
 47 32 47 32 44 32 c 1,28,29
 44 33 44 33 44 36 c 1,30,31
 42 36 42 36 36 36 c 1,32,33
 36 35 36 35 36 32 c 1,34,35
 35 32 35 32 32 32 c 1,36,37
 32 30 32 30 32 24 c 1,38,39
 36 24 36 24 48 24 c 1,24,25
8 0 m 1,40,41
 8 1 8 1 8 4 c 1,42,43
 7 4 7 4 4 4 c 1,44,45
 4 5 4 5 4 8 c 1,46,47
 3 8 3 8 0 8 c 1,48,49
 0 14 0 14 0 32 c 1,50,51
 1 32 1 32 4 32 c 1,52,53
 4 33 4 33 4 36 c 1,54,55
 5 36 5 36 8 36 c 1,56,57
 8 37 8 37 8 40 c 1,58,59
 12 40 12 40 24 40 c 1,60,61
 24 39 24 39 24 36 c 1,62,63
 26 36 26 36 32 36 c 1,64,65
 32 37 32 37 32 40 c 1,66,67
 36 40 36 40 48 40 c 1,68,69
 48 39 48 39 48 36 c 1,70,71
 49 36 49 36 52 36 c 1,72,73
 52 35 52 35 52 32 c 1,74,75
 53 32 53 32 56 32 c 1,76,77
 56 29 56 29 56 20 c 1,78,79
 50 20 50 20 32 20 c 1,80,81
 32 17 32 17 32 8 c 1,82,83
 33 8 33 8 36 8 c 1,84,85
 36 7 36 7 36 4 c 1,86,87
 38 4 38 4 44 4 c 1,88,89
 44 5 44 5 44 8 c 1,90,91
 45 8 45 8 48 8 c 1,92,93
 48 9 48 9 48 12 c 1,94,95
 50 12 50 12 56 12 c 1,96,97
 56 11 56 11 56 8 c 1,98,99
 55 8 55 8 52 8 c 1,100,101
 52 7 52 7 52 4 c 1,102,103
 51 4 51 4 48 4 c 1,104,105
 48 3 48 3 48 0 c 1,106,107
 44 0 44 0 32 0 c 1,108,109
 32 1 32 1 32 4 c 1,110,111
 30 4 30 4 24 4 c 1,112,113
 24 3 24 3 24 0 c 1,114,115
 20 0 20 0 8 0 c 1,40,41
EndSplineSet
EndChar

StartChar: uni0158
Encoding: 344 344 201
Width: 36
GlyphClass: 2
Flags: W
LayerCount: 2
Fore
SplineSet
20 28 m 1,0,1
 20 29 20 29 20 32 c 1,2,3
 21 32 21 32 24 32 c 1,4,5
 24 35 24 35 24 44 c 1,6,7
 23 44 23 44 20 44 c 1,8,9
 20 45 20 45 20 48 c 1,10,11
 17 48 17 48 8 48 c 1,12,13
 8 43 8 43 8 28 c 1,14,15
 11 28 11 28 20 28 c 1,0,1
0 0 m 1,16,17
 0 13 0 13 0 52 c 1,18,19
 1 52 1 52 4 52 c 0,20,21
 9 52 9 52 24 52 c 1,22,23
 24 51 24 51 24 48 c 1,24,25
 25 48 25 48 28 48 c 1,26,27
 28 47 28 47 28 44 c 1,28,29
 29 44 29 44 32 44 c 1,30,31
 32 41 32 41 32 32 c 1,32,33
 31 32 31 32 28 32 c 1,34,35
 28 31 28 31 28 28 c 1,36,37
 27 28 27 28 24 28 c 1,38,39
 24 27 24 27 24 24 c 1,40,41
 23 24 23 24 20 24 c 1,42,43
 20 23 20 23 20 20 c 1,44,45
 21 20 21 20 24 20 c 1,46,47
 24 19 24 19 24 16 c 1,48,49
 25 16 25 16 28 16 c 1,50,51
 28 14 28 14 28 8 c 1,52,53
 29 8 29 8 32 8 c 1,54,55
 32 6 32 6 32 0 c 1,56,57
 30 0 30 0 24 0 c 1,58,59
 24 2 24 2 24 8 c 1,60,61
 23 8 23 8 20 8 c 1,62,63
 20 10 20 10 20 16 c 1,64,65
 19 16 19 16 16 16 c 1,66,67
 16 17 16 17 16 20 c 1,68,69
 15 20 15 20 12 20 c 1,70,71
 12 21 12 21 12 24 c 1,72,73
 11 24 11 24 8 24 c 1,74,75
 8 18 8 18 8 0 c 1,76,77
 6 0 6 0 0 0 c 1,16,17
12 56 m 1,78,79
 12 57 12 57 12 60 c 1,80,81
 11 60 11 60 8 60 c 1,82,83
 8 61 8 61 8 64 c 1,84,85
 7 64 7 64 4 64 c 1,86,87
 4 65 4 65 4 68 c 1,88,89
 6 68 6 68 12 68 c 1,90,91
 12 67 12 67 12 64 c 1,92,93
 14 64 14 64 20 64 c 1,94,95
 20 65 20 65 20 68 c 1,96,97
 22 68 22 68 28 68 c 1,98,99
 28 67 28 67 28 64 c 1,100,101
 27 64 27 64 24 64 c 1,102,103
 24 63 24 63 24 60 c 1,104,105
 23 60 23 60 20 60 c 1,106,107
 20 59 20 59 20 56 c 1,108,109
 18 56 18 56 12 56 c 1,78,79
EndSplineSet
EndChar

StartChar: uni0159
Encoding: 345 345 202
Width: 28
GlyphClass: 2
Flags: W
LayerCount: 2
Fore
SplineSet
0 0 m 1,0,1
 0 10 0 10 0 40 c 1,2,3
 2 40 2 40 8 40 c 1,4,5
 8 39 8 39 8 36 c 1,6,7
 9 36 9 36 12 36 c 1,8,9
 12 37 12 37 12 40 c 1,10,11
 15 40 15 40 24 40 c 1,12,13
 24 39 24 39 24 36 c 1,14,15
 22 36 22 36 16 36 c 1,16,17
 16 35 16 35 16 32 c 1,18,19
 15 32 15 32 12 32 c 1,20,21
 12 31 12 31 12 28 c 1,22,23
 11 28 11 28 8 28 c 1,24,25
 8 21 8 21 8 0 c 1,26,27
 6 0 6 0 0 0 c 1,0,1
8 44 m 1,28,29
 8 45 8 45 8 48 c 1,30,31
 7 48 7 48 4 48 c 1,32,33
 4 49 4 49 4 52 c 1,34,35
 3 52 3 52 0 52 c 1,36,37
 0 53 0 53 0 56 c 1,38,39
 2 56 2 56 8 56 c 1,40,41
 8 55 8 55 8 52 c 1,42,43
 10 52 10 52 16 52 c 1,44,45
 16 53 16 53 16 56 c 1,46,47
 18 56 18 56 24 56 c 1,48,49
 24 55 24 55 24 52 c 1,50,51
 23 52 23 52 20 52 c 1,52,53
 20 51 20 51 20 48 c 1,54,55
 19 48 19 48 16 48 c 1,56,57
 16 47 16 47 16 44 c 1,58,59
 14 44 14 44 8 44 c 1,28,29
EndSplineSet
EndChar

StartChar: uni015c
Encoding: 348 348 203
Width: 36
GlyphClass: 2
Flags: W
LayerCount: 2
Fore
SplineSet
8 0 m 1,0,1
 8 1 8 1 8 4 c 1,2,3
 7 4 7 4 4 4 c 1,4,5
 4 5 4 5 4 8 c 1,6,7
 3 8 3 8 0 8 c 1,8,9
 0 9 0 9 0 12 c 1,10,11
 2 12 2 12 8 12 c 1,12,13
 8 11 8 11 8 8 c 1,14,15
 9 8 9 8 12 8 c 1,16,17
 12 7 12 7 12 4 c 1,18,19
 14 4 14 4 20 4 c 1,20,21
 20 5 20 5 20 8 c 1,22,23
 21 8 21 8 24 8 c 1,24,25
 24 11 24 11 24 20 c 1,26,27
 23 20 23 20 20 20 c 1,28,29
 20 21 20 21 20 24 c 1,30,31
 18 24 18 24 12 24 c 1,32,33
 12 25 12 25 12 28 c 1,34,35
 10 28 10 28 4 28 c 1,36,37
 4 29 4 29 4 32 c 1,38,39
 3 32 3 32 0 32 c 1,40,41
 0 35 0 35 0 44 c 1,42,43
 1 44 1 44 4 44 c 1,44,45
 4 45 4 45 4 48 c 1,46,47
 5 48 5 48 8 48 c 1,48,49
 8 49 8 49 8 52 c 1,50,51
 9 52 9 52 12 52 c 0,52,53
 16 52 16 52 28 52 c 1,54,55
 28 51 28 51 28 48 c 1,56,57
 29 48 29 48 32 48 c 1,58,59
 32 47 32 47 32 44 c 1,60,61
 30 44 30 44 24 44 c 1,62,63
 24 45 24 45 24 48 c 1,64,65
 21 48 21 48 12 48 c 1,66,67
 12 47 12 47 12 44 c 1,68,69
 11 44 11 44 8 44 c 1,70,71
 8 41 8 41 8 32 c 1,72,73
 10 32 10 32 16 32 c 1,74,75
 16 31 16 31 16 28 c 1,76,77
 18 28 18 28 24 28 c 1,78,79
 24 27 24 27 24 24 c 1,80,81
 25 24 25 24 28 24 c 1,82,83
 28 23 28 23 28 20 c 1,84,85
 29 20 29 20 32 20 c 1,86,87
 32 17 32 17 32 8 c 1,88,89
 31 8 31 8 28 8 c 1,90,91
 28 7 28 7 28 4 c 1,92,93
 27 4 27 4 24 4 c 1,94,95
 24 3 24 3 24 0 c 1,96,97
 20 0 20 0 8 0 c 1,0,1
4 56 m 1,98,99
 4 57 4 57 4 60 c 1,100,101
 5 60 5 60 8 60 c 1,102,103
 8 61 8 61 8 64 c 1,104,105
 9 64 9 64 12 64 c 1,106,107
 12 65 12 65 12 68 c 1,108,109
 14 68 14 68 20 68 c 1,110,111
 20 67 20 67 20 64 c 1,112,113
 21 64 21 64 24 64 c 1,114,115
 24 63 24 63 24 60 c 1,116,117
 25 60 25 60 28 60 c 1,118,119
 28 59 28 59 28 56 c 1,120,121
 26 56 26 56 20 56 c 1,122,123
 20 57 20 57 20 60 c 1,124,125
 18 60 18 60 12 60 c 1,126,127
 12 59 12 59 12 56 c 1,128,129
 11 56 11 56 8 56 c 0,130,131
 7 56 7 56 4 56 c 1,98,99
EndSplineSet
EndChar

